<?xml version="1.0" encoding="utf-8"?>
<!-- Generator: Adobe Illustrator 16.0.0, SVG Export Plug-In . SVG Version: 6.00 Build 0)  -->
<!DOCTYPE svg PUBLIC "-//W3C//DTD SVG 1.1//EN" "http://www.w3.org/Graphics/SVG/1.1/DTD/svg11.dtd">
<svg version="1.1" id="Layer_1" xmlns="http://www.w3.org/2000/svg" xmlns:xlink="http://www.w3.org/1999/xlink" x="0px" y="0px"
	 width="224.516px" height="161.12px" viewBox="0 0 224.516 161.12" enable-background="new 0 0 224.516 161.12"
	 xml:space="preserve">
<path fill="#965BA5" d="M56.462,57.416c0,0.261-0.212,0.472-0.472,0.472l-4.014,0.002c-0.26-0.001-0.472-0.213-0.471-0.474
	l-0.001-3.974c0.001-0.262,0.211-0.473,0.473-0.473h4.014c0.261,0,0.471,0.21,0.472,0.473L56.462,57.416z"/>
<path fill="#E74C35" d="M88.492,143.617c0,0.26-0.212,0.472-0.472,0.472l-4.014,0.002c-0.261-0.002-0.472-0.214-0.472-0.474l0-3.974
	c0-0.262,0.21-0.473,0.473-0.473h4.014c0.261,0,0.471,0.211,0.471,0.473L88.492,143.617z"/>
<path fill="#E74C35" d="M189.77,53.742c0.184,0.184,0.184,0.483,0,0.667l-2.836,2.839c-0.186,0.184-0.485,0.183-0.668-0.001
	l-2.812-2.81c-0.184-0.186-0.184-0.483,0.001-0.669l2.838-2.838c0.184-0.185,0.482-0.184,0.667,0.001L189.77,53.742z"/>
<path fill="#965BA5" d="M69.144,147.192v-8.907c0-0.26-0.211-0.471-0.473-0.471h-3.973c-0.261,0-0.472,0.211-0.472,0.471v8.907
	c0,0.261,0.211,0.473,0.472,0.473h3.973C68.931,147.665,69.144,147.453,69.144,147.192z"/>
<path fill="#965BA5" d="M127.223,140.025v-8.908c0-0.26-0.211-0.471-0.473-0.471h-3.973c-0.262,0-0.473,0.211-0.473,0.471v8.908
	c0,0.26,0.21,0.473,0.473,0.473h3.973C127.01,140.499,127.223,140.286,127.223,140.025z"/>
<path fill="#965BA5" d="M122.305,158.173v-8.907c0-0.261-0.211-0.472-0.473-0.472h-3.973c-0.262,0-0.473,0.211-0.473,0.472v8.907
	c0,0.26,0.211,0.473,0.473,0.473h3.973C122.092,158.646,122.305,158.433,122.305,158.173z"/>
<path fill="#965BA5" d="M148.395,99.497v-8.908c0-0.26-0.211-0.471-0.472-0.471h-3.973c-0.262,0-0.473,0.211-0.473,0.471v8.908
	c0,0.26,0.211,0.473,0.473,0.473h3.973C148.182,99.97,148.395,99.757,148.395,99.497z"/>
<path fill="#4BA1D9" d="M45.427,119.411h-8.906c-0.261,0-0.472,0.21-0.472,0.472v3.973c0,0.262,0.21,0.473,0.472,0.473h8.906
	c0.261,0,0.473-0.211,0.473-0.473v-3.973C45.9,119.624,45.688,119.411,45.427,119.411z"/>
<path fill="#4BA1D9" d="M82.328,118.805h-8.906c-0.261,0-0.471,0.211-0.471,0.473v3.973c0,0.263,0.21,0.473,0.471,0.472l8.906,0.001
	c0.261-0.001,0.473-0.21,0.473-0.473v-3.973C82.801,119.018,82.588,118.805,82.328,118.805z"/>
<path fill="#E74C35" d="M112.876,2.963h-8.906c-0.261,0-0.472,0.211-0.472,0.473V7.41c0,0.261,0.21,0.473,0.472,0.472l8.906,0.001
	c0.261-0.001,0.473-0.211,0.473-0.473V3.436C113.35,3.176,113.137,2.963,112.876,2.963z"/>
<path fill="#E74C35" d="M141.005,130.904h-8.906c-0.262,0-0.472,0.21-0.472,0.472v3.974c0,0.261,0.21,0.472,0.472,0.472h8.906
	c0.261,0,0.473-0.211,0.473-0.472v-3.974C141.478,131.116,141.266,130.904,141.005,130.904z"/>
<path fill="#4BA1D9" d="M110.85,145.073v-8.906c0-0.261-0.211-0.472-0.472-0.472h-3.973c-0.262,0-0.473,0.21-0.473,0.472v8.906
	c0,0.261,0.211,0.473,0.473,0.473h3.973C110.638,145.546,110.85,145.334,110.85,145.073z"/>
<path fill="#4BA1D9" d="M33.536,70.669v-8.907c0-0.261-0.211-0.472-0.472-0.472H29.09c-0.262,0-0.473,0.21-0.473,0.472v8.907
	c0,0.261,0.211,0.473,0.473,0.473h3.974C33.323,71.143,33.536,70.93,33.536,70.669z"/>
<path fill="#E74C35" d="M172.461,94.912h-8.907c-0.261,0-0.471,0.211-0.471,0.472v3.974c0,0.261,0.21,0.472,0.471,0.472h8.907
	c0.26,0,0.473-0.211,0.473-0.472v-3.974C172.935,95.125,172.722,94.912,172.461,94.912z"/>
<path fill="#965BA5" d="M177.905,84.023h-8.906c-0.262,0-0.471,0.211-0.471,0.473v3.973c0,0.261,0.209,0.472,0.471,0.472h8.906
	c0.26,0,0.473-0.211,0.473-0.472v-3.973C178.378,84.236,178.166,84.023,177.905,84.023z"/>
<path fill="#4BA1D9" d="M102.12,10.16l-6.298-6.298c-0.185-0.185-0.482-0.184-0.668,0.001l-2.809,2.81
	c-0.186,0.185-0.186,0.483-0.001,0.667l6.298,6.298c0.184,0.184,0.484,0.185,0.669,0l2.809-2.81
	C102.304,10.645,102.304,10.343,102.12,10.16z"/>
<path fill="#965BA5" d="M158.075,119.044l-6.298-6.297c-0.185-0.185-0.482-0.185-0.668,0l-2.809,2.811
	c-0.185,0.185-0.186,0.482-0.001,0.666l6.298,6.299c0.184,0.183,0.484,0.185,0.669,0l2.809-2.809
	C158.259,119.529,158.259,119.229,158.075,119.044z"/>
<path fill="#965BA5" d="M110.378,153.72H96.541c-0.26,0-0.472,0.211-0.472,0.472v3.973c0,0.262,0.211,0.474,0.472,0.473
	l13.837,0.001c0.262-0.001,0.471-0.211,0.471-0.474v-3.973C110.85,153.933,110.639,153.72,110.378,153.72z"/>
<path fill="#E74C35" d="M73.97,98.073l-9.785,9.785c-0.184,0.185-0.184,0.483,0.001,0.667l2.809,2.811
	c0.186,0.185,0.484,0.185,0.668,0.001l9.785-9.785c0.185-0.186,0.185-0.484,0-0.668l-2.809-2.81
	C74.454,97.891,74.154,97.89,73.97,98.073z"/>
<path fill="#4BA1D9" d="M48.866,84.161l-9.785,9.785c-0.184,0.184-0.184,0.482,0.001,0.667l2.809,2.81
	c0.185,0.184,0.484,0.184,0.667,0l9.785-9.785c0.185-0.186,0.185-0.482,0-0.668l-2.809-2.809
	C49.35,83.977,49.05,83.977,48.866,84.161z"/>
<path fill="#E74C35" d="M63.599,67.162V53.324c0-0.26-0.211-0.471-0.473-0.471h-3.973c-0.263,0-0.473,0.211-0.473,0.471l0,13.837
	c0,0.262,0.21,0.472,0.473,0.472h3.973C63.386,67.634,63.599,67.422,63.599,67.162z"/>
<path fill="#965BA5" d="M91.951,17.255H78.114c-0.261,0-0.472,0.21-0.472,0.473v3.974c0,0.261,0.211,0.473,0.472,0.472l13.837,0.001
	c0.262-0.001,0.472-0.211,0.472-0.473v-3.974C92.423,17.467,92.211,17.255,91.951,17.255z"/>
<path fill="#4BA1D9" d="M70.252,29.96V16.122c0-0.26-0.211-0.471-0.473-0.471h-3.973c-0.262,0-0.473,0.211-0.472,0.471L65.333,29.96
	c0.001,0.262,0.211,0.472,0.473,0.472h3.973C70.04,30.432,70.252,30.22,70.252,29.96z"/>
<path fill="#4BA1D9" d="M152.913,136.788l-9.785,9.785c-0.184,0.184-0.184,0.483,0,0.667l2.81,2.81
	c0.185,0.186,0.484,0.186,0.667,0.001l9.785-9.784c0.185-0.187,0.185-0.483,0-0.668l-2.81-2.81
	C153.396,136.605,153.096,136.604,152.913,136.788z"/>
<path fill="#4BA1D9" d="M164.015,29.657V15.819c0-0.26-0.211-0.471-0.472-0.471h-3.973c-0.263,0-0.473,0.211-0.472,0.471
	l-0.001,13.837c0.001,0.262,0.21,0.472,0.473,0.472h3.973C163.802,30.129,164.015,29.917,164.015,29.657z"/>
<path fill="#965BA5" d="M181.346,49.619V35.781c0-0.26-0.211-0.471-0.472-0.471H176.9c-0.262,0-0.473,0.211-0.472,0.471
	l-0.001,13.837c0.001,0.263,0.211,0.473,0.473,0.473h3.974C181.133,50.091,181.346,49.88,181.346,49.619z"/>
<path fill="#4BA1D9" d="M167.038,32.458h13.837c0.26,0,0.471-0.21,0.471-0.472v-3.973c0-0.263-0.211-0.474-0.471-0.473
	l-13.837-0.001c-0.263,0.001-0.473,0.211-0.473,0.474v3.973C166.564,32.245,166.776,32.458,167.038,32.458z"/>
<path fill="#E74C35" d="M150.1,48.488h13.837c0.26,0,0.472-0.211,0.472-0.472v-3.973c0-0.262-0.211-0.473-0.472-0.472L150.1,43.57
	c-0.262,0.001-0.472,0.211-0.472,0.473v3.973C149.628,48.276,149.84,48.488,150.1,48.488z"/>
<path fill="#965BA5" d="M146.122,39.35V25.512c0-0.26-0.211-0.471-0.473-0.471h-3.973c-0.262,0-0.473,0.211-0.472,0.471
	l-0.001,13.838c0.001,0.262,0.211,0.472,0.473,0.472h3.973C145.909,39.822,146.122,39.61,146.122,39.35z"/>
<path fill="#4BA1D9" d="M169.173,75.809V61.971c0-0.26-0.211-0.471-0.473-0.471h-3.973c-0.262,0-0.473,0.211-0.472,0.471
	l-0.001,13.838c0.001,0.262,0.211,0.472,0.473,0.472h3.973C168.96,76.28,169.173,76.069,169.173,75.809z"/>
<path fill="#965BA5" d="M130.02,20.262V1.473c0-0.262-0.211-0.473-0.473-0.473h-3.974c-0.26,0-0.472,0.211-0.471,0.474
	l-0.001,18.788c0.001,0.26,0.212,0.472,0.472,0.472h3.974C129.807,20.735,130.02,20.522,130.02,20.262z"/>
<path fill="#4BA1D9" d="M194.712,89.072V70.283c0-0.262-0.21-0.473-0.473-0.473h-3.973c-0.261,0-0.472,0.211-0.472,0.473l0,18.789
	c0,0.26,0.211,0.471,0.472,0.471h3.973C194.5,89.545,194.712,89.333,194.712,89.072z"/>
<path fill="#E74C35" d="M33.536,104.345V85.556c0-0.262-0.211-0.473-0.473-0.473h-3.974c-0.26,0-0.472,0.211-0.471,0.475
	l-0.001,18.787c0.001,0.26,0.212,0.473,0.472,0.473h3.974C33.323,104.818,33.536,104.605,33.536,104.345z"/>
<path fill="#E74C35" d="M55.917,134.289V115.5c0-0.262-0.211-0.473-0.473-0.473h-3.974c-0.26,0-0.472,0.211-0.471,0.475
	l-0.001,18.787c0.001,0.26,0.212,0.473,0.472,0.473h3.974C55.705,134.762,55.917,134.549,55.917,134.289z"/>
<path fill="#965BA5" d="M51.14,29.463L34.342,46.26c-0.186,0.186-0.184,0.483,0.001,0.669l2.809,2.809
	c0.184,0.186,0.483,0.186,0.668,0L54.617,32.94c0.185-0.184,0.185-0.482-0.001-0.667l-2.809-2.809
	C51.625,29.278,51.324,29.278,51.14,29.463z"/>
<path fill="#E74C35" d="M83.805,27.345L67.008,44.143c-0.186,0.186-0.185,0.483,0.001,0.668l2.809,2.809
	c0.184,0.187,0.483,0.186,0.668,0l16.797-16.796c0.185-0.185,0.185-0.483-0.001-0.668l-2.809-2.809
	C84.291,27.161,83.989,27.161,83.805,27.345z"/>
<path fill="#965BA5" d="M177.568,112.336l-16.797,16.797c-0.186,0.186-0.184,0.484,0.001,0.668l2.809,2.81
	c0.184,0.187,0.483,0.186,0.668,0l16.797-16.796c0.185-0.186,0.185-0.483,0-0.668l-2.809-2.81
	C178.053,112.152,177.752,112.152,177.568,112.336z"/>
</svg>
