<?xml version="1.0" encoding="utf-8"?>
<!-- Generator: Adobe Illustrator 16.0.0, SVG Export Plug-In . SVG Version: 6.00 Build 0)  -->
<!DOCTYPE svg PUBLIC "-//W3C//DTD SVG 1.1//EN" "http://www.w3.org/Graphics/SVG/1.1/DTD/svg11.dtd">
<svg version="1.1" id="Layer_1" xmlns="http://www.w3.org/2000/svg" xmlns:xlink="http://www.w3.org/1999/xlink" x="0px" y="0px"
	 width="55.74px" height="48.935px" viewBox="0 0 55.74 48.935" enable-background="new 0 0 55.74 48.935" xml:space="preserve">
<path fill="#39BDE6" d="M17.365,33.24c0.287,0,0.52,0.232,0.52,0.52l0.002,4.424c-0.001,0.287-0.235,0.521-0.522,0.521l-4.38,0.001
	c-0.289-0.001-0.521-0.232-0.521-0.521v-4.424c0-0.287,0.232-0.519,0.521-0.52H17.365z"/>
<path fill="#965BA5" d="M27.838,28.37v9.815c0,0.288,0.232,0.52,0.521,0.52h4.379c0.288,0,0.521-0.23,0.52-0.52l0.001-9.815
	c-0.001-0.286-0.233-0.521-0.521-0.521h-4.379C28.072,27.849,27.838,28.083,27.838,28.37z"/>
<path fill="#39BDE6" d="M44.101,17.514v9.815c0,0.288,0.232,0.52,0.521,0.52h4.379c0.288,0,0.521-0.23,0.52-0.52l0.001-9.815
	c-0.001-0.286-0.233-0.521-0.521-0.521h-4.379C44.335,16.994,44.101,17.228,44.101,17.514z"/>
<path fill="#39BDE6" d="M38.68,33.797v9.815c0,0.288,0.232,0.52,0.521,0.52h4.379c0.288,0,0.521-0.23,0.52-0.52l0.001-9.815
	c-0.001-0.286-0.233-0.521-0.521-0.521h-4.379C38.914,33.277,38.68,33.511,38.68,33.797z"/>
<path fill="#EE2926" d="M33.259,10.097v9.815c0,0.288,0.232,0.52,0.521,0.52h4.379c0.288,0,0.521-0.23,0.52-0.52l0.001-9.815
	c-0.001-0.286-0.233-0.521-0.521-0.521h-4.379C33.494,9.576,33.259,9.811,33.259,10.097z"/>
<path fill="#EE2926" d="M6.417,17.514v9.815c0,0.288,0.232,0.52,0.521,0.52h4.379c0.288,0,0.521-0.23,0.52-0.52l0.001-9.815
	c-0.001-0.286-0.233-0.521-0.521-0.521H6.939C6.653,16.994,6.417,17.228,6.417,17.514z"/>
<path fill="#965BA5" d="M17.253,6.652v15.25c0,0.287,0.231,0.52,0.521,0.52h4.379c0.287,0,0.521-0.231,0.521-0.52l0.001-15.25
	c-0.001-0.289-0.232-0.521-0.521-0.521h-4.379C17.487,6.13,17.253,6.365,17.253,6.652z"/>
</svg>
