<?xml version="1.0" encoding="utf-8"?>
<!-- Generator: Adobe Illustrator 16.0.0, SVG Export Plug-In . SVG Version: 6.00 Build 0)  -->
<!DOCTYPE svg PUBLIC "-//W3C//DTD SVG 1.1//EN" "http://www.w3.org/Graphics/SVG/1.1/DTD/svg11.dtd">
<svg version="1.1" id="Layer_1" xmlns="http://www.w3.org/2000/svg" xmlns:xlink="http://www.w3.org/1999/xlink" x="0px" y="0px"
	 width="55.74px" height="53.227px" viewBox="0 0 55.74 53.227" enable-background="new 0 0 55.74 53.227" xml:space="preserve">
<path fill="#EF4134" d="M15.566,16.927c0.204,0.204,0.203,0.534,0,0.737l-3.128,3.128c-0.203,0.202-0.531,0.202-0.734-0.001
	l-3.099-3.097c-0.203-0.204-0.203-0.532,0.001-0.738l3.127-3.127c0.203-0.202,0.532-0.202,0.736,0.001L15.566,16.927z"/>
<path fill="#EF4134" d="M35.15,12.574c0.204,0.204,0.203,0.534,0,0.737l-3.128,3.128c-0.203,0.202-0.531,0.202-0.734-0.001
	l-3.099-3.097c-0.203-0.204-0.203-0.532,0.001-0.738l3.127-3.127c0.203-0.202,0.532-0.202,0.736,0.001L35.15,12.574z"/>
<path fill="#4BA1D9" d="M13.488,26.868l-6.941-6.94c-0.204-0.203-0.532-0.203-0.734,0l-3.099,3.098
	c-0.203,0.202-0.204,0.532,0.002,0.735l6.938,6.941c0.203,0.203,0.532,0.203,0.735,0l3.098-3.097
	C13.689,27.401,13.689,27.071,13.488,26.868z"/>
<path fill="#965BA5" d="M43.161,28.155L32.378,38.939c-0.203,0.203-0.203,0.532,0,0.735l3.098,3.097
	c0.203,0.205,0.533,0.206,0.735,0l10.782-10.782c0.203-0.205,0.204-0.533,0.001-0.737l-3.097-3.097
	C43.696,27.952,43.365,27.952,43.161,28.155z"/>
<path fill="#4BA1D9" d="M52.287,18.205L41.503,7.421c-0.203-0.203-0.532-0.203-0.735,0l-3.097,3.098
	c-0.205,0.203-0.206,0.533,0,0.735l10.782,10.782c0.205,0.203,0.533,0.204,0.737,0.001l3.097-3.097
	C52.49,18.739,52.49,18.409,52.287,18.205z"/>
<path fill="#965BA5" d="M29.007,18.759L18.224,7.976c-0.203-0.202-0.531-0.202-0.735,0l-3.097,3.099
	c-0.204,0.204-0.205,0.533,0.001,0.735l10.781,10.783c0.205,0.204,0.533,0.204,0.737,0l3.095-3.097
	C29.21,19.293,29.212,18.964,29.007,18.759z"/>
<path fill="#EF4134" d="M31.771,45.5L17.127,30.857c-0.203-0.203-0.531-0.203-0.734,0l-3.097,3.097
	c-0.206,0.203-0.206,0.534,0,0.736L27.94,49.334c0.204,0.204,0.53,0.204,0.733,0l3.098-3.097
	C31.974,46.033,31.975,45.703,31.771,45.5z"/>
</svg>
