<?xml version="1.0" encoding="utf-8"?>
<!-- Generator: Adobe Illustrator 16.0.0, SVG Export Plug-In . SVG Version: 6.00 Build 0)  -->
<!DOCTYPE svg PUBLIC "-//W3C//DTD SVG 1.1//EN" "http://www.w3.org/Graphics/SVG/1.1/DTD/svg11.dtd">
<svg version="1.1" id="Layer_4" xmlns="http://www.w3.org/2000/svg" xmlns:xlink="http://www.w3.org/1999/xlink" x="0px" y="0px"
	 width="56.425px" height="48.727px" viewBox="0 0 56.425 48.727" enable-background="new 0 0 56.425 48.727" xml:space="preserve">
<path fill="#965BA5" d="M43.422,14.663c-0.185,0.185-0.484,0.184-0.667,0l-2.84-2.837c-0.183-0.184-0.183-0.484,0.002-0.668
	l2.81-2.811c0.186-0.184,0.483-0.185,0.668,0l2.839,2.839c0.185,0.184,0.184,0.481-0.001,0.668L43.422,14.663z"/>
<path fill="#E74C35" d="M41.35,6.168c0.185,0.184,0.185,0.483,0,0.667l-2.836,2.839c-0.186,0.184-0.484,0.183-0.668-0.001
	l-2.812-2.81C34.85,6.677,34.85,6.38,35.035,6.194l2.838-2.838c0.184-0.185,0.481-0.184,0.667,0.001L41.35,6.168z"/>
<path fill="#E74C35" d="M13.823,15.341c0.185,0.184,0.185,0.483,0,0.667l-2.836,2.839c-0.186,0.184-0.484,0.183-0.668-0.001
	l-2.812-2.81c-0.185-0.186-0.185-0.483,0.001-0.669l2.838-2.838c0.184-0.185,0.481-0.184,0.667,0.001L13.823,15.341z"/>
<path fill="#965BA5" d="M15.118,20.771H6.21c-0.26,0-0.471,0.211-0.471,0.473v3.974c0,0.262,0.211,0.473,0.471,0.473h8.908
	c0.26,0,0.473-0.21,0.473-0.473v-3.974C15.593,20.984,15.38,20.771,15.118,20.771z"/>
<path fill="#965BA5" d="M50.723,25.224v-8.908c0-0.26-0.211-0.471-0.473-0.471h-3.972c-0.263,0-0.474,0.211-0.474,0.471v8.908
	c0,0.26,0.211,0.473,0.474,0.473h3.972C50.51,25.697,50.723,25.484,50.723,25.224z"/>
<path fill="#4BA1D9" d="M19.389,36.5l-6.298-6.298c-0.185-0.185-0.483-0.185-0.668,0l-2.81,2.81c-0.185,0.185-0.186,0.483,0,0.668
	l6.298,6.298c0.185,0.185,0.483,0.185,0.668,0l2.81-2.81C19.574,36.986,19.574,36.685,19.389,36.5z"/>
<path fill="#4BA1D9" d="M45.247,28.468l-9.786,9.785c-0.185,0.184-0.185,0.48,0.001,0.666l2.809,2.811
	c0.186,0.184,0.484,0.184,0.667,0l9.786-9.785c0.184-0.186,0.184-0.482,0-0.668l-2.809-2.809
	C45.729,28.283,45.43,28.283,45.247,28.468z"/>
<path fill="#E74C35" d="M31.876,2H22.97c-0.261,0-0.472,0.211-0.472,0.473v3.974c0,0.261,0.21,0.473,0.472,0.472l8.906,0.001
	c0.261-0.001,0.473-0.211,0.473-0.473V2.473C32.35,2.213,32.137,2,31.876,2z"/>
<path fill="#4BA1D9" d="M22.65,10.727l-6.299-6.298c-0.185-0.185-0.481-0.184-0.668,0.001l-2.809,2.81
	c-0.186,0.185-0.186,0.483-0.001,0.667l6.298,6.298c0.185,0.184,0.484,0.185,0.669,0l2.81-2.81
	C22.833,11.211,22.833,10.909,22.65,10.727z"/>
<path fill="#E74C35" d="M31.876,40.345h-8.907c-0.261,0-0.471,0.211-0.471,0.473v3.975c0,0.26,0.21,0.471,0.471,0.471h8.907
	c0.26,0,0.473-0.211,0.473-0.471v-3.975C32.35,40.558,32.137,40.345,31.876,40.345z"/>
</svg>
