<?xml version="1.0" encoding="utf-8"?>
<!-- Generator: Adobe Illustrator 16.0.0, SVG Export Plug-In . SVG Version: 6.00 Build 0)  -->
<!DOCTYPE svg PUBLIC "-//W3C//DTD SVG 1.1//EN" "http://www.w3.org/Graphics/SVG/1.1/DTD/svg11.dtd">
<svg version="1.1" id="Layer_1" xmlns="http://www.w3.org/2000/svg" xmlns:xlink="http://www.w3.org/1999/xlink" x="0px" y="0px"
	 width="56.508px" height="53.311px" viewBox="0 0 56.508 53.311" enable-background="new 0 0 56.508 53.311" xml:space="preserve">
<path fill="#EF382C" d="M48.367,21.841c0,0.287-0.233,0.521-0.521,0.521h-4.423c-0.286,0-0.521-0.233-0.521-0.521v-4.38
	c0-0.289,0.229-0.521,0.521-0.521h4.425c0.286,0,0.52,0.229,0.52,0.521V21.841z"/>
<path fill="#EF382C" d="M23.759,12.914c0,0.287-0.233,0.521-0.521,0.521h-4.423c-0.286,0-0.521-0.233-0.521-0.521v-4.38
	c0-0.289,0.229-0.521,0.521-0.521h4.425c0.286,0,0.52,0.229,0.52,0.521V12.914z"/>
<path fill="#965BA5" d="M35.145,18.623c0.205,0.203,0.203,0.532,0,0.735l-3.127,3.128c-0.203,0.203-0.533,0.203-0.734,0
	l-3.098-3.097c-0.205-0.205-0.205-0.533,0-0.737l3.127-3.128c0.203-0.203,0.53-0.2,0.735,0L35.145,18.623z"/>
<path fill="#EF382C" d="M8.679,39.171l8.934,8.932c0.205,0.204,0.532,0.203,0.735,0l3.097-3.099c0.205-0.202,0.205-0.532,0-0.734
	l-8.932-8.934c-0.203-0.203-0.531-0.203-0.735,0l-3.097,3.098C8.478,38.635,8.477,38.967,8.679,39.171z"/>
<path fill="#4BA1D9" d="M42.924,24.396l0.001,9.815c0,0.288,0.231,0.521,0.521,0.521h4.382c0.286,0,0.521-0.232,0.521-0.521v-9.814
	c0-0.287-0.231-0.521-0.521-0.521h-4.382C43.158,23.876,42.925,24.108,42.924,24.396z"/>
<path fill="#4BA1D9" d="M19.474,35.034l6.939-6.941c0.205-0.203,0.203-0.532,0-0.736l-3.097-3.098c-0.204-0.203-0.532-0.204-0.736,0
	l-6.941,6.94c-0.202,0.203-0.204,0.532,0,0.737l3.097,3.097C18.939,35.235,19.271,35.235,19.474,35.034z"/>
<path fill="#965BA5" d="M25.591,41.321l10.783-10.784c0.203-0.203,0.203-0.531,0-0.734l-3.099-3.098
	c-0.202-0.204-0.531-0.204-0.734,0.001L21.758,37.488c-0.202,0.203-0.203,0.532,0,0.736l3.097,3.096
	C25.058,41.523,25.388,41.525,25.591,41.321z"/>
<path fill="#4BA1D9" d="M27.127,13.436l20.709-0.002c0.289,0,0.521-0.232,0.521-0.521l-0.002-4.381
	c0.002-0.287-0.23-0.521-0.52-0.52H27.127c-0.287,0-0.521,0.231-0.521,0.52v4.381C26.605,13.2,26.839,13.435,27.127,13.436z"/>
</svg>
