<?xml version="1.0" encoding="utf-8"?>
<!-- Generator: Adobe Illustrator 16.0.0, SVG Export Plug-In . SVG Version: 6.00 Build 0)  -->
<!DOCTYPE svg PUBLIC "-//W3C//DTD SVG 1.1//EN" "http://www.w3.org/Graphics/SVG/1.1/DTD/svg11.dtd">
<svg version="1.1" id="Layer_1" xmlns="http://www.w3.org/2000/svg" xmlns:xlink="http://www.w3.org/1999/xlink" x="0px" y="0px"
	 width="56.486px" height="53.468px" viewBox="0 0 56.486 53.468" enable-background="new 0 0 56.486 53.468" xml:space="preserve">
<path fill="#EF382C" d="M40.321,18.501c0,0.287-0.233,0.521-0.521,0.521h-4.423c-0.287,0-0.521-0.232-0.521-0.521v-4.379
	c0-0.289,0.229-0.521,0.521-0.521h4.424c0.287,0,0.521,0.229,0.521,0.521L40.321,18.501L40.321,18.501z"/>
<path fill="#4BA1D9" d="M20.447,19.044c-0.287,0-0.521-0.233-0.521-0.521V14.1c0-0.288,0.233-0.521,0.521-0.521h4.381
	c0.288,0,0.521,0.232,0.521,0.521v4.423c0,0.288-0.232,0.52-0.521,0.52L20.447,19.044L20.447,19.044z"/>
<path fill="#EF382C" d="M12.207,38.686L2.39,38.687c-0.288,0-0.52,0.232-0.52,0.52v4.381c0,0.289,0.23,0.521,0.521,0.52l9.815,0.001
	c0.286-0.001,0.52-0.231,0.52-0.521v-4.379C12.725,38.919,12.493,38.686,12.207,38.686z"/>
<path fill="#4BA1D9" d="M54.097,2.745l-9.816,0.001c-0.287,0-0.52,0.232-0.52,0.52v4.38c0,0.289,0.231,0.521,0.521,0.52l9.814,0.001
	c0.286-0.001,0.521-0.232,0.521-0.521V3.267C54.615,2.979,54.383,2.745,54.097,2.745z"/>
<path fill="#EF382C" d="M19.028,52.621l10.783-10.785c0.204-0.203,0.203-0.533,0-0.734l-3.097-3.098
	c-0.204-0.203-0.533-0.205-0.735,0L15.196,48.787c-0.202,0.203-0.203,0.53,0,0.733l3.098,3.099
	C18.494,52.821,18.824,52.822,19.028,52.621z"/>
<path fill="#965BA5" d="M54.117,38.686H33.408c-0.287,0-0.521,0.231-0.521,0.521v4.379c0,0.289,0.232,0.521,0.521,0.521
	l20.708,0.002c0.288-0.002,0.52-0.23,0.52-0.521v-4.379C54.638,38.919,54.406,38.686,54.117,38.686z"/>
<path fill="#EF382C" d="M32.956,2.745H12.247c-0.287,0-0.521,0.232-0.521,0.521v4.379c0,0.289,0.232,0.521,0.521,0.521l20.708,0.002
	c0.288-0.002,0.52-0.231,0.52-0.521V3.268C33.476,2.979,33.244,2.745,32.956,2.745z"/>
<path fill="#4BA1D9" d="M54.613,32.8l-0.002-20.708c0-0.289-0.23-0.521-0.52-0.521l-4.381,0.001
	c-0.287-0.001-0.521,0.232-0.521,0.52V32.8c0,0.287,0.232,0.52,0.521,0.52h4.381C54.377,33.32,54.612,33.087,54.613,32.8z"/>
<path fill="#965BA5" d="M7.294,23.925L7.292,3.217c0-0.289-0.231-0.521-0.521-0.521L2.391,2.697c-0.287-0.001-0.521,0.232-0.52,0.52
	v20.708c0,0.288,0.231,0.52,0.521,0.52h4.381C7.058,24.445,7.293,24.212,7.294,23.925z"/>
<g>
	<path fill="#965BA5" d="M38.418,25.8c-4.945,3.934-11.964,3.935-16.908,0c-0.207-0.164-0.489-0.16-0.643,0.017
		c-0.769,0.9-1.538,1.802-2.306,2.702c-0.154,0.176-0.062,0.505,0.212,0.723c6.545,5.208,15.836,5.208,22.381,0
		c0.275-0.218,0.367-0.546,0.214-0.723c-0.769-0.9-1.538-1.801-2.307-2.702C38.909,25.641,38.621,25.638,38.418,25.8z"/>
</g>
</svg>
