<?xml version="1.0" encoding="utf-8"?>
<!-- Generator: Adobe Illustrator 16.0.0, SVG Export Plug-In . SVG Version: 6.00 Build 0)  -->
<!DOCTYPE svg PUBLIC "-//W3C//DTD SVG 1.1//EN" "http://www.w3.org/Graphics/SVG/1.1/DTD/svg11.dtd">
<svg version="1.1" id="Layer_1" xmlns="http://www.w3.org/2000/svg" xmlns:xlink="http://www.w3.org/1999/xlink" x="0px" y="0px"
	 width="333.167px" height="110.167px" viewBox="0 0 333.167 110.167" enable-background="new 0 0 333.167 110.167"
	 xml:space="preserve">
<g>
	<path fill="#3C3640" d="M20.917,105.739c-2.639,2.552-5.572,3.827-8.797,3.827c-3.167,0-5.836-1.085-8.006-3.256
		c-1.349-1.348-2.214-2.99-2.595-4.926c-0.235-1.32-0.352-3.9-0.352-7.742S1.284,87.22,1.519,85.9
		c0.381-1.936,1.246-3.576,2.595-4.926c2.17-2.17,4.839-3.256,8.006-3.256c3.226,0,6.158,1.276,8.797,3.828l-2.243,2.242
		c-1.085-1.055-2.039-1.803-2.859-2.242c-1.085-0.558-2.317-0.836-3.695-0.836c-2.17,0-3.974,0.732-5.411,2.199
		c-0.938,0.967-1.555,2.185-1.847,3.65c-0.235,1.291-0.352,3.651-0.352,7.082c0,3.432,0.117,5.792,0.352,7.082
		c0.292,1.467,0.909,2.684,1.847,3.65c1.437,1.467,3.24,2.2,5.411,2.2c1.378,0,2.61-0.278,3.695-0.836
		c0.821-0.44,1.774-1.188,2.859-2.243L20.917,105.739z"/>
	<path fill="#3C3640" d="M48.894,93.642c0,3.842-0.118,6.422-0.352,7.742c-0.381,1.936-1.247,3.578-2.595,4.926
		c-2.17,2.171-4.839,3.256-8.006,3.256s-5.836-1.085-8.006-3.256c-1.349-1.348-2.214-2.99-2.595-4.926
		c-0.235-1.32-0.352-3.9-0.352-7.742s0.117-6.422,0.352-7.742c0.381-1.936,1.246-3.576,2.595-4.926
		c2.17-2.17,4.839-3.256,8.006-3.256s5.835,1.086,8.006,3.256c1.348,1.35,2.214,2.99,2.595,4.926
		C48.776,87.22,48.894,89.8,48.894,93.642z M45.55,93.642c0-3.431-0.118-5.777-0.352-7.038c-0.293-1.466-0.909-2.683-1.847-3.651
		c-1.467-1.495-3.271-2.242-5.411-2.242c-2.141,0-3.944,0.747-5.411,2.242c-0.938,0.969-1.555,2.186-1.847,3.651
		c-0.235,1.261-0.352,3.607-0.352,7.038c0,3.432,0.117,5.777,0.352,7.038c0.292,1.467,0.909,2.683,1.847,3.651
		c1.466,1.495,3.27,2.243,5.411,2.243c2.14,0,3.944-0.748,5.411-2.243c0.938-0.969,1.554-2.185,1.847-3.651
		C45.433,99.419,45.55,97.074,45.55,93.642z"/>
	<path fill="#3C3640" d="M83.599,109.302h-3.343V85.504l-8.578,18.87h-2.859l-8.71-18.87v23.798h-3.343V77.983h3.343l10.205,22.214
		l9.941-22.214h3.343V109.302z"/>
	<path fill="#3C3640" d="M113.994,87.176c0,2.786-0.895,5.022-2.684,6.708c-1.789,1.687-4.12,2.529-6.994,2.529h-8.314v12.889H92.66
		V77.983h11.657c2.874,0,5.205,0.835,6.994,2.507S113.994,84.39,113.994,87.176z M110.651,87.176c0-2.023-0.601-3.563-1.803-4.618
		c-1.203-1.057-2.815-1.584-4.839-1.584h-8.006v12.448h8.006c2.023,0,3.636-0.534,4.839-1.605
		C110.05,90.747,110.651,89.2,110.651,87.176z"/>
	<path fill="#3C3640" d="M141.794,98.964c0,3.109-1.034,5.652-3.101,7.633c-2.067,1.979-4.685,2.969-7.852,2.969
		c-3.167,0-5.777-0.99-7.83-2.969c-2.053-1.98-3.079-4.523-3.079-7.633V77.983h3.343v20.718c0,2.375,0.688,4.282,2.067,5.719
		c1.378,1.438,3.211,2.155,5.498,2.155c2.288,0,4.127-0.718,5.521-2.155c1.393-1.437,2.089-3.344,2.089-5.719V77.983h3.343V98.964z"
		/>
	<path fill="#3C3640" d="M168.669,80.974h-9.061v28.328h-3.343V80.974h-9.061v-2.991h21.465V80.974z"/>
	<path fill="#3C3640" d="M177.863,109.302h-3.344V77.983h3.344V109.302z"/>
	<path fill="#3C3640" d="M210.061,109.302h-3.167l-16.627-25.117v25.117h-3.344V77.983h3.168l16.627,25.028V77.983h3.343V109.302z"
		/>
	<path fill="#3C3640" d="M239.841,97.865c0,3.461-0.896,6.158-2.684,8.094c-2.229,2.405-4.985,3.607-8.27,3.607
		c-3.167,0-5.836-1.085-8.006-3.256c-1.349-1.348-2.214-2.99-2.595-4.926c-0.235-1.32-0.353-3.9-0.353-7.742
		s0.117-6.422,0.353-7.742c0.381-1.936,1.246-3.576,2.595-4.926c2.17-2.17,4.839-3.256,8.006-3.256c1.964,0,3.695,0.367,5.19,1.1
		c1.29,0.616,2.684,1.672,4.179,3.168l-2.243,2.243c-1.231-1.231-2.287-2.097-3.167-2.595c-1.144-0.616-2.464-0.924-3.959-0.924
		c-2.141,0-3.944,0.747-5.41,2.242c-0.939,0.969-1.555,2.186-1.848,3.651c-0.235,1.261-0.352,3.607-0.352,7.038
		c0,3.432,0.116,5.792,0.352,7.082c0.293,1.467,0.908,2.684,1.848,3.65c1.437,1.467,3.239,2.2,5.41,2.2
		c2.434,0,4.398-0.895,5.895-2.684c1.144-1.378,1.715-3.284,1.715-5.718v-2.332h-7.609v-2.947h10.953V97.865z"/>
	<path fill="#3C3640" d="M277.801,109.302h-19.354V77.983h3.344v28.327h16.011V109.302z"/>
	<path fill="#3C3640" d="M305.469,109.302h-3.563l-2.507-7.082h-13.681l-2.507,7.082h-3.562l11.524-31.319h2.815L305.469,109.302z
		 M298.431,99.316l-5.807-16.539l-5.895,16.539H298.431z"/>
	<path fill="#3C3640" d="M332.038,100.636c0,2.786-0.844,4.927-2.529,6.422c-1.688,1.496-3.952,2.244-6.797,2.244h-12.185V77.983
		h11.789c2.756,0,4.985,0.747,6.687,2.243c1.7,1.496,2.551,3.534,2.551,6.114c0,1.613-0.433,3.035-1.298,4.267
		c-0.865,1.232-1.973,2.098-3.32,2.596C330.336,94.463,332.038,96.941,332.038,100.636z M328.21,86.384
		c0-1.789-0.565-3.138-1.693-4.047c-1.13-0.908-2.617-1.363-4.465-1.363h-8.182v10.865h8.182c1.817,0,3.299-0.463,4.442-1.387
		S328.21,88.173,328.21,86.384z M328.694,100.548c0-1.76-0.564-3.152-1.693-4.179s-2.661-1.54-4.597-1.54h-8.533v11.48h8.533
		c1.936,0,3.468-0.52,4.597-1.561S328.694,102.308,328.694,100.548z"/>
</g>
<path fill="#E74C35" d="M332.283,55.034c0.015,0.449-0.337,0.826-0.786,0.842l-6.926,0.242c-0.449,0.016-0.828-0.336-0.844-0.785
	l-0.239-6.859c-0.016-0.451,0.337-0.826,0.787-0.842l6.925-0.242c0.45-0.016,0.828,0.336,0.843,0.785L332.283,55.034z"/>
<path fill="#E74C35" d="M283.951,56.72c0.016,0.451-0.337,0.828-0.786,0.844l-6.926,0.242c-0.449,0.016-0.827-0.336-0.843-0.787
	l-0.239-6.855c-0.016-0.451,0.336-0.83,0.787-0.846l6.926-0.24c0.448-0.016,0.826,0.336,0.842,0.787L283.951,56.72z"/>
<path fill="#E74C35" d="M226.901,58.714c0.017,0.449-0.336,0.826-0.786,0.844l-6.925,0.24c-0.45,0.016-0.829-0.336-0.845-0.785
	l-0.239-6.859c-0.016-0.449,0.337-0.826,0.787-0.844l6.925-0.24c0.45-0.016,0.828,0.336,0.845,0.785L226.901,58.714z"/>
<path fill="#965BA5" d="M181.435,60.302c0.016,0.449-0.336,0.826-0.786,0.842l-6.926,0.242c-0.45,0.016-0.827-0.336-0.843-0.785
	l-0.24-6.857c-0.015-0.451,0.337-0.828,0.787-0.844l6.927-0.242c0.448-0.016,0.826,0.336,0.842,0.787L181.435,60.302z"/>
<path fill="#E74C35" d="M169.881,60.636c0.016,0.449-0.336,0.826-0.786,0.844l-6.926,0.24c-0.45,0.018-0.828-0.336-0.844-0.785
	l-0.239-6.859c-0.016-0.449,0.336-0.826,0.787-0.842l6.925-0.242c0.45-0.016,0.827,0.336,0.844,0.785L169.881,60.636z"/>
<path fill="#E74C35" d="M90.484,63.472c0.016,0.449-0.336,0.826-0.787,0.844l-6.925,0.24c-0.451,0.018-0.829-0.336-0.844-0.785
	l-0.24-6.858c-0.016-0.451,0.336-0.828,0.787-0.844l6.925-0.242c0.45-0.016,0.828,0.336,0.844,0.787L90.484,63.472z"/>
<path fill="#4BA1D9" d="M79.016,63.873c0.016,0.449-0.336,0.828-0.786,0.844l-6.926,0.242c-0.45,0.016-0.828-0.336-0.843-0.787
	l-0.24-6.858c-0.016-0.451,0.336-0.828,0.787-0.844l6.925-0.242c0.45-0.016,0.827,0.336,0.843,0.787L79.016,63.873z"/>
<path fill="#965BA5" d="M53.462,64.765c0.016,0.449-0.336,0.828-0.786,0.842l-6.925,0.244c-0.45,0.014-0.828-0.338-0.844-0.787
	l-0.24-6.858c-0.015-0.451,0.337-0.828,0.788-0.844l6.925-0.242c0.449-0.016,0.827,0.336,0.843,0.787L53.462,64.765z"/>
<path fill="#4BA1D9" d="M22.027,65.863c0.016,0.449-0.337,0.828-0.787,0.844l-6.925,0.242c-0.45,0.016-0.828-0.338-0.844-0.787
	l-0.239-6.858c-0.016-0.451,0.336-0.828,0.787-0.844l6.925-0.242c0.45-0.016,0.828,0.338,0.843,0.787L22.027,65.863z"/>
<path fill="#965BA5" d="M10.514,66.265c0.016,0.449-0.336,0.828-0.786,0.844l-6.925,0.242c-0.451,0.016-0.828-0.338-0.844-0.787
	l-0.24-6.86c-0.015-0.449,0.336-0.826,0.787-0.842l6.925-0.242c0.45-0.016,0.828,0.336,0.843,0.787L10.514,66.265z"/>
<path fill="#4BA1D9" d="M320.893,55.431c0.016,0.451-0.336,0.828-0.786,0.844l-6.926,0.24c-0.45,0.018-0.826-0.334-0.842-0.785
	l-0.24-6.857c-0.015-0.451,0.335-0.828,0.785-0.844l6.927-0.242c0.45-0.016,0.827,0.336,0.843,0.787L320.893,55.431z"/>
<path fill="#4BA1D9" d="M258.394,57.544c0.017,0.451-0.336,0.828-0.785,0.844l-6.926,0.242c-0.45,0.016-0.828-0.336-0.844-0.787
	l-0.24-6.857c-0.015-0.451,0.337-0.828,0.787-0.844l6.926-0.242c0.45-0.016,0.827,0.336,0.844,0.787L258.394,57.544z"/>
<path fill="#965BA5" d="M245.761,50.372l-15.368,0.537c-0.451,0.016-0.802,0.393-0.786,0.844l0.24,6.857
	c0.015,0.451,0.392,0.803,0.843,0.785l15.368-0.535c0.45-0.018,0.803-0.393,0.787-0.844l-0.24-6.857
	C246.59,50.71,246.211,50.356,245.761,50.372z"/>
<path fill="#4BA1D9" d="M200.264,51.96l-15.368,0.539c-0.45,0.016-0.802,0.393-0.786,0.842l0.239,6.857
	c0.016,0.451,0.392,0.803,0.844,0.787l15.367-0.537c0.45-0.016,0.803-0.393,0.787-0.842l-0.239-6.859
	C201.092,52.298,200.714,51.946,200.264,51.96z"/>
<path fill="#4BA1D9" d="M143.245,53.884l-15.369,0.537c-0.451,0.016-0.803,0.393-0.788,0.844l0.24,6.858
	c0.016,0.449,0.394,0.801,0.844,0.785l15.369-0.537c0.45-0.016,0.802-0.393,0.787-0.842l-0.24-6.857
	C144.072,54.22,143.694,53.868,143.245,53.884z"/>
<path fill="#965BA5" d="M109.313,55.132l-15.369,0.537c-0.45,0.016-0.803,0.393-0.787,0.842l0.239,6.86
	c0.016,0.449,0.394,0.803,0.844,0.787l15.368-0.537c0.45-0.016,0.802-0.395,0.786-0.844l-0.239-6.858
	C110.141,55.468,109.763,55.116,109.313,55.132z"/>
<path fill="#E74C35" d="M40.855,57.522L25.487,58.06c-0.45,0.016-0.802,0.393-0.787,0.844l0.24,6.858
	c0.016,0.449,0.393,0.803,0.844,0.787l15.368-0.537c0.45-0.016,0.802-0.395,0.787-0.844l-0.239-6.858
	C41.683,57.858,41.305,57.507,40.855,57.522z"/>
<path fill="#965BA5" d="M309.504,55.829c0.017,0.449-0.336,0.826-0.786,0.842l-6.925,0.242c-0.45,0.018-0.828-0.336-0.844-0.785
	l-0.24-6.857c-0.016-0.451,0.337-0.828,0.787-0.846l6.926-0.24c0.45-0.016,0.827,0.336,0.844,0.787L309.504,55.829z"/>
<path fill="#3C3640" d="M27.021,12.292c0,3.188-1.059,5.816-3.173,7.884c-2.116,2.069-4.917,3.103-8.403,3.103H7.22v14.242H1.737
	V1.305h13.708c3.486,0,6.287,1.035,8.403,3.103C25.963,6.477,27.021,9.105,27.021,12.292z M21.538,12.292
	c0-1.899-0.584-3.383-1.751-4.451c-1.168-1.068-2.717-1.602-4.646-1.602H7.22v12.054h7.92c1.929,0,3.478-0.534,4.646-1.602
	C20.954,15.624,21.538,14.157,21.538,12.292z"/>
<path fill="#3C3640" d="M68.909,37.521h-6.398l-7.615-15.26h-6.854v15.26h-5.483V1.305h14.013c3.384,0,6.101,0.984,8.149,2.95
	c2.047,1.967,3.072,4.511,3.072,7.629c0,2.476-0.669,4.553-2.005,6.231c-1.338,1.678-3.072,2.807-5.205,3.382L68.909,37.521z
	 M62.308,11.961c0-1.771-0.559-3.167-1.676-4.189c-1.117-1.021-2.606-1.533-4.468-1.533h-8.124v11.394h8.124
	c1.861,0,3.351-0.502,4.468-1.507C61.75,15.121,62.308,13.733,62.308,11.961z"/>
<path fill="#3C3640" d="M109.374,19.413c0,4.239-0.136,7.088-0.407,8.545c-0.406,2.374-1.421,4.375-3.046,6.002
	c-2.573,2.578-5.755,3.867-9.545,3.867c-3.757,0-6.922-1.289-9.494-3.867c-1.625-1.627-2.657-3.628-3.097-6.002
	c-0.271-1.492-0.406-4.34-0.406-8.545c0-4.205,0.135-7.052,0.406-8.545c0.44-2.373,1.472-4.375,3.097-6.002
	C89.454,2.289,92.619,1,96.376,1c3.791,0,6.972,1.289,9.545,3.866c1.625,1.628,2.64,3.629,3.046,6.002
	C109.238,12.326,109.374,15.174,109.374,19.413z M103.891,19.413c0-3.085-0.051-5.052-0.152-5.9
	c-0.238-2.408-0.897-4.188-1.98-5.341c-1.388-1.492-3.182-2.238-5.382-2.238c-2.201,0-3.994,0.746-5.382,2.238
	c-1.083,1.153-1.744,2.933-1.98,5.341c-0.102,0.848-0.152,2.815-0.152,5.9c0,3.086,0.051,5.053,0.152,5.9
	c0.236,2.408,0.896,4.188,1.98,5.342c1.388,1.491,3.181,2.236,5.382,2.236c2.2,0,3.994-0.745,5.382-2.236
	c1.083-1.154,1.743-2.934,1.98-5.342C103.84,24.466,103.891,22.499,103.891,19.413z"/>
<path fill="#3C3640" d="M149.027,27.195c0,3.29-1.202,5.884-3.605,7.782c-2.404,1.898-5.534,2.85-9.393,2.85
	c-5.382,0-9.646-1.594-12.794-4.783l3.656-3.61c2.301,2.307,5.382,3.458,9.24,3.458c2.369,0,4.206-0.482,5.509-1.449
	c1.303-0.966,1.955-2.332,1.955-4.094c0-1.629-0.475-2.883-1.422-3.765c-0.812-0.745-2.132-1.255-3.96-1.526l-4.265-0.61
	c-2.979-0.44-5.264-1.406-6.854-2.898c-1.761-1.662-2.641-3.968-2.641-6.918c0-3.187,1.083-5.756,3.25-7.706
	C129.868,1.976,132.813,1,136.537,1c4.536,0,8.276,1.374,11.221,4.12l-3.503,3.458c-1.964-1.864-4.587-2.797-7.87-2.797
	c-2.065,0-3.681,0.525-4.849,1.576c-1.168,1.052-1.752,2.408-1.752,4.069c0,1.424,0.465,2.552,1.396,3.383
	c0.931,0.831,2.276,1.381,4.037,1.653l4.112,0.61c2.979,0.441,5.229,1.34,6.753,2.695C148.045,21.498,149.027,23.974,149.027,27.195
	z"/>
<path fill="#3C3640" d="M189.897,19.413c0,4.239-0.135,7.088-0.406,8.545c-0.405,2.374-1.42,4.375-3.045,6.002
	c-2.573,2.578-5.755,3.867-9.546,3.867c-3.756,0-6.923-1.289-9.494-3.867c-1.625-1.627-2.657-3.628-3.097-6.002
	c-0.271-1.492-0.406-4.34-0.406-8.545c0-4.205,0.136-7.052,0.406-8.545c0.439-2.373,1.472-4.375,3.097-6.002
	C169.977,2.289,173.144,1,176.9,1c3.791,0,6.973,1.289,9.546,3.866c1.625,1.628,2.64,3.629,3.045,6.002
	C189.762,12.326,189.897,15.174,189.897,19.413z M184.415,19.413c0-3.085-0.05-5.052-0.152-5.9
	c-0.236-2.408-0.897-4.188-1.979-5.341c-1.39-1.492-3.183-2.238-5.383-2.238s-3.994,0.746-5.381,2.238
	c-1.084,1.153-1.745,2.933-1.979,5.341c-0.102,0.848-0.153,2.815-0.153,5.9c0,3.086,0.052,5.053,0.153,5.9
	c0.234,2.408,0.896,4.188,1.979,5.342c1.387,1.491,3.181,2.236,5.381,2.236s3.993-0.745,5.383-2.236
	c1.082-1.154,1.743-2.934,1.979-5.342C184.365,24.466,184.415,22.499,184.415,19.413z"/>
<path fill="#3C3640" d="M228.688,33.554c-2.912,2.848-6.28,4.273-10.104,4.273c-3.758,0-6.923-1.289-9.494-3.867
	c-1.625-1.627-2.658-3.628-3.097-6.002c-0.273-1.492-0.406-4.34-0.406-8.545c0-4.205,0.133-7.052,0.406-8.545
	c0.438-2.373,1.472-4.375,3.097-6.002C211.662,2.289,214.827,1,218.584,1c3.823,0,7.191,1.424,10.104,4.272l-3.656,3.713
	c-2.03-2.035-4.18-3.052-6.447-3.052c-2.201,0-3.978,0.729-5.332,2.187c-1.083,1.153-1.742,2.933-1.979,5.341
	c-0.102,0.848-0.153,2.832-0.153,5.951c0,3.12,0.052,5.104,0.153,5.951c0.237,2.408,0.896,4.188,1.979,5.34
	c1.354,1.459,3.131,2.188,5.332,2.188c2.268,0,4.417-1.016,6.447-3.052L228.688,33.554z"/>
<path fill="#3C3640" d="M250.418,37.521h-5.484V1.305h5.484V37.521z"/>
<path fill="#3C3640" d="M295.35,37.521h-5.838l-2.488-7.273h-14.268l-2.488,7.273h-5.837l13.251-36.215h4.416L295.35,37.521z
	 M285.501,25.618l-5.484-16.124l-5.636,16.124H285.501z"/>
<path fill="#3C3640" d="M332.262,37.521h-22.898V1.305h5.483v31.282h17.415V37.521z"/>
</svg>
