<?xml version="1.0" encoding="utf-8"?>
<!-- Generator: Adobe Illustrator 16.0.0, SVG Export Plug-In . SVG Version: 6.00 Build 0)  -->
<!DOCTYPE svg PUBLIC "-//W3C//DTD SVG 1.1//EN" "http://www.w3.org/Graphics/SVG/1.1/DTD/svg11.dtd">
<svg version="1.1" id="Layer_1" xmlns="http://www.w3.org/2000/svg" xmlns:xlink="http://www.w3.org/1999/xlink" x="0px" y="0px"
	 width="125.561px" height="25.708px" viewBox="0 0 125.561 25.708" enable-background="new 0 0 125.561 25.708"
	 xml:space="preserve">
<g>
	<g>
		<path fill="#FFFFFF" d="M125.031,20.359c0.005,0.169-0.126,0.312-0.295,0.317l-2.61,0.092c-0.169,0.005-0.31-0.127-0.316-0.296
			l-0.089-2.584c-0.008-0.171,0.126-0.312,0.296-0.317l2.608-0.091c0.168-0.007,0.312,0.127,0.318,0.297L125.031,20.359z"/>
		<path fill="#FFFFFF" d="M106.821,20.997c0.007,0.168-0.125,0.31-0.296,0.316l-2.609,0.09c-0.168,0.008-0.312-0.125-0.317-0.294
			l-0.09-2.586c-0.005-0.17,0.125-0.31,0.297-0.317l2.609-0.088c0.169-0.01,0.312,0.125,0.317,0.295L106.821,20.997z"/>
		<path fill="#FFFFFF" d="M85.329,21.745c0.004,0.17-0.129,0.312-0.299,0.317l-2.606,0.093c-0.17,0.006-0.313-0.129-0.318-0.299
			l-0.092-2.582c-0.005-0.168,0.129-0.312,0.296-0.316l2.608-0.094c0.17-0.004,0.314,0.129,0.318,0.297L85.329,21.745z"/>
		<path fill="#FFFFFF" d="M68.195,22.342c0.008,0.172-0.124,0.314-0.293,0.318l-2.612,0.092c-0.171,0.006-0.311-0.129-0.316-0.299
			l-0.09-2.58c-0.008-0.17,0.126-0.313,0.298-0.317l2.609-0.093c0.168-0.004,0.308,0.129,0.317,0.297L68.195,22.342z"/>
		<path fill="#FFFFFF" d="M63.844,22.469c0.006,0.168-0.129,0.312-0.297,0.318l-2.608,0.092c-0.169,0.006-0.31-0.127-0.318-0.297
			L60.532,20c-0.008-0.172,0.125-0.312,0.294-0.317l2.611-0.093c0.171-0.006,0.311,0.127,0.316,0.298L63.844,22.469z"/>
		<path fill="#FFFFFF" d="M33.928,23.54c0.008,0.17-0.125,0.312-0.296,0.316l-2.606,0.092c-0.171,0.006-0.313-0.128-0.321-0.299
			l-0.089-2.581c-0.005-0.17,0.125-0.312,0.295-0.317l2.611-0.092c0.169-0.006,0.312,0.127,0.316,0.297L33.928,23.54z"/>
		<path fill="#FFFFFF" d="M29.61,23.687c0.005,0.169-0.128,0.315-0.297,0.319l-2.608,0.093c-0.169,0.006-0.312-0.128-0.316-0.296
			l-0.092-2.584c-0.005-0.17,0.128-0.314,0.295-0.317l2.61-0.092c0.17-0.005,0.312,0.127,0.318,0.296L29.61,23.687z"/>
		<path fill="#FFFFFF" d="M19.981,24.027c0.005,0.169-0.125,0.312-0.295,0.317l-2.609,0.091c-0.17,0.007-0.312-0.127-0.318-0.298
			l-0.092-2.582c-0.004-0.17,0.128-0.311,0.298-0.318l2.61-0.09c0.167-0.007,0.31,0.123,0.317,0.293L19.981,24.027z"/>
		<path fill="#FFFFFF" d="M8.138,24.44c0.005,0.169-0.129,0.309-0.3,0.318l-2.605,0.088c-0.17,0.009-0.313-0.124-0.318-0.295
			l-0.091-2.586c-0.005-0.166,0.127-0.309,0.297-0.316l2.608-0.088c0.17-0.01,0.312,0.124,0.316,0.294L8.138,24.44z"/>
		<path fill="#FFFFFF" d="M3.799,24.588c0.008,0.17-0.126,0.314-0.296,0.318L0.896,25c-0.171,0.004-0.313-0.131-0.32-0.297
			l-0.09-2.582c-0.004-0.17,0.126-0.314,0.296-0.318l2.61-0.094c0.169-0.004,0.31,0.129,0.316,0.299L3.799,24.588z"/>
		<path fill="#FFFFFF" d="M120.742,20.51c0.004,0.17-0.129,0.309-0.298,0.318l-2.607,0.088c-0.17,0.01-0.312-0.125-0.316-0.293
			l-0.092-2.584c-0.005-0.17,0.125-0.312,0.295-0.322l2.609-0.086c0.17-0.008,0.313,0.123,0.318,0.293L120.742,20.51z"/>
		<path fill="#FFFFFF" d="M97.194,21.306c0.005,0.17-0.128,0.312-0.298,0.317l-2.607,0.092c-0.17,0.006-0.313-0.129-0.317-0.299
			l-0.093-2.582c-0.004-0.168,0.129-0.312,0.3-0.317l2.606-0.091c0.169-0.006,0.312,0.127,0.318,0.293L97.194,21.306z"/>
		<path fill="#FFFFFF" d="M92.434,18.604l-5.792,0.2c-0.167,0.009-0.3,0.149-0.296,0.317l0.093,2.586
			c0.004,0.17,0.147,0.303,0.317,0.293l5.788-0.199c0.17-0.008,0.304-0.149,0.296-0.318L92.752,18.9
			C92.745,18.73,92.604,18.596,92.434,18.604z"/>
		<path fill="#FFFFFF" d="M75.292,19.204l-5.791,0.198c-0.171,0.009-0.305,0.151-0.295,0.317l0.088,2.587
			c0.007,0.17,0.146,0.302,0.317,0.293l5.792-0.199c0.169-0.008,0.299-0.147,0.297-0.317l-0.09-2.584
			C75.604,19.329,75.459,19.194,75.292,19.204z"/>
		<path fill="#FFFFFF" d="M53.807,19.926l-5.787,0.201c-0.17,0.006-0.305,0.148-0.3,0.317l0.094,2.582
			c0.003,0.171,0.146,0.304,0.316,0.3l5.788-0.203c0.169-0.006,0.304-0.147,0.297-0.317l-0.091-2.587
			C54.12,20.053,53.978,19.92,53.807,19.926z"/>
		<path fill="#FFFFFF" d="M41.025,20.397l-5.793,0.201c-0.17,0.007-0.303,0.146-0.295,0.316l0.089,2.586
			c0.008,0.17,0.149,0.303,0.316,0.295l5.794-0.201c0.17-0.008,0.299-0.149,0.295-0.318l-0.089-2.583
			C41.335,20.524,41.195,20.39,41.025,20.397z"/>
		<path fill="#FFFFFF" d="M15.232,21.297L9.442,21.5c-0.17,0.004-0.303,0.146-0.298,0.316L9.235,24.4
			c0.005,0.169,0.147,0.302,0.318,0.298l5.789-0.203c0.17-0.006,0.303-0.152,0.296-0.322l-0.09-2.58
			C15.542,21.424,15.401,21.292,15.232,21.297z"/>
		<path fill="#FFFFFF" d="M116.449,20.659c0.008,0.172-0.125,0.312-0.295,0.317l-2.609,0.092c-0.169,0.007-0.311-0.128-0.317-0.299
			l-0.089-2.581c-0.008-0.169,0.125-0.312,0.295-0.318l2.61-0.092c0.17-0.004,0.311,0.127,0.317,0.297L116.449,20.659z"/>
	</g>
	<path fill="#FFFFFF" d="M10.02,4.256c0,1.2-0.399,2.19-1.196,2.969C8.028,8.004,6.971,8.394,5.659,8.394h-3.1v5.366H0.494V0.118
		h5.165c1.312,0,2.369,0.39,3.165,1.167C9.62,2.064,10.02,3.055,10.02,4.256z M7.954,4.256c0-0.717-0.22-1.276-0.66-1.678
		C6.854,2.176,6.271,1.974,5.543,1.974H2.56v4.542h2.982c0.729,0,1.312-0.2,1.751-0.6C7.734,5.513,7.954,4.958,7.954,4.256z"/>
	<path fill="#FFFFFF" d="M25.802,13.76h-2.41l-2.869-5.748H17.94v5.748h-2.068V0.118h5.281c1.273,0,2.298,0.367,3.069,1.111
		c0.772,0.74,1.157,1.697,1.157,2.872c0,0.936-0.251,1.717-0.756,2.352c-0.503,0.629-1.158,1.055-1.959,1.271L25.802,13.76z
		 M23.314,4.133c0-0.67-0.21-1.195-0.632-1.581c-0.42-0.383-0.981-0.578-1.685-0.578h-3.059V6.27h3.059
		c0.703,0,1.265-0.192,1.685-0.571C23.104,5.32,23.314,4.798,23.314,4.133z"/>
	<path fill="#FFFFFF" d="M41.045,6.941c0,1.595-0.051,2.668-0.151,3.217c-0.155,0.896-0.536,1.648-1.147,2.261
		c-0.972,0.971-2.17,1.457-3.598,1.457c-1.416,0-2.606-0.484-3.577-1.457c-0.612-0.613-1.001-1.365-1.166-2.261
		c-0.104-0.562-0.153-1.635-0.153-3.217c0-1.586,0.05-2.66,0.153-3.222c0.165-0.892,0.554-1.648,1.166-2.259
		C33.542,0.485,34.733,0,36.148,0c1.428,0,2.626,0.485,3.598,1.46c0.611,0.611,0.992,1.368,1.147,2.259
		C40.994,4.269,41.045,5.342,41.045,6.941z M38.98,6.941c0-1.165-0.018-1.904-0.056-2.226c-0.092-0.908-0.338-1.578-0.749-2.01
		c-0.521-0.562-1.197-0.843-2.026-0.843c-0.83,0-1.504,0.281-2.028,0.843c-0.406,0.432-0.657,1.102-0.745,2.01
		c-0.038,0.322-0.059,1.061-0.059,2.226c0,1.16,0.021,1.904,0.059,2.222c0.088,0.905,0.339,1.576,0.745,2.014
		c0.524,0.562,1.198,0.84,2.028,0.84c0.829,0,1.507-0.278,2.026-0.84c0.41-0.438,0.657-1.108,0.749-2.014
		C38.963,8.845,38.98,8.101,38.98,6.941z"/>
	<path fill="#FFFFFF" d="M55.987,9.871c0,1.24-0.453,2.217-1.359,2.932c-0.905,0.715-2.085,1.073-3.539,1.073
		c-2.027,0-3.634-0.602-4.82-1.8l1.377-1.362c0.867,0.87,2.027,1.304,3.481,1.304c0.894,0,1.584-0.181,2.076-0.546
		c0.494-0.364,0.738-0.879,0.738-1.542c0-0.614-0.182-1.086-0.537-1.419c-0.305-0.281-0.804-0.47-1.489-0.575l-1.609-0.23
		c-1.123-0.165-1.983-0.53-2.583-1.092c-0.664-0.623-0.994-1.495-0.994-2.606c0-1.202,0.406-2.167,1.224-2.904
		C48.767,0.368,49.877,0,51.281,0c1.708,0,3.118,0.521,4.228,1.553l-1.319,1.302c-0.739-0.7-1.726-1.053-2.965-1.053
		c-0.777,0-1.385,0.196-1.824,0.593c-0.443,0.396-0.663,0.909-0.663,1.532c0,0.537,0.177,0.963,0.529,1.275
		c0.348,0.313,0.855,0.52,1.518,0.623l1.549,0.229c1.122,0.166,1.972,0.507,2.548,1.017C55.616,7.723,55.987,8.657,55.987,9.871z"/>
	<path fill="#FFFFFF" d="M71.386,6.941c0,1.595-0.055,2.668-0.152,3.217c-0.154,0.896-0.536,1.648-1.147,2.261
		c-0.971,0.971-2.172,1.457-3.6,1.457c-1.416,0-2.607-0.484-3.577-1.457c-0.61-0.613-1.001-1.365-1.166-2.261
		c-0.101-0.562-0.149-1.635-0.149-3.217c0-1.586,0.049-2.66,0.149-3.222C61.909,2.827,62.3,2.071,62.91,1.46
		C63.88,0.485,65.071,0,66.487,0c1.428,0,2.628,0.485,3.6,1.46c0.611,0.611,0.994,1.368,1.147,2.259
		C71.333,4.269,71.386,5.342,71.386,6.941z M69.318,6.941c0-1.165-0.018-1.904-0.056-2.226c-0.092-0.908-0.338-1.578-0.746-2.01
		c-0.524-0.562-1.2-0.843-2.03-0.843c-0.827,0-1.502,0.281-2.026,0.843c-0.406,0.432-0.656,1.102-0.745,2.01
		c-0.038,0.322-0.058,1.061-0.058,2.226c0,1.16,0.021,1.904,0.058,2.222c0.089,0.905,0.339,1.576,0.745,2.014
		c0.524,0.562,1.199,0.84,2.026,0.84c0.83,0,1.506-0.278,2.03-0.84c0.408-0.438,0.654-1.108,0.746-2.014
		C69.301,8.845,69.318,8.101,69.318,6.941z"/>
	<path fill="#FFFFFF" d="M86.001,12.266c-1.098,1.073-2.367,1.609-3.807,1.609c-1.416,0-2.61-0.484-3.577-1.457
		c-0.612-0.613-1.001-1.365-1.17-2.261c-0.099-0.562-0.15-1.635-0.15-3.217c0-1.586,0.052-2.66,0.15-3.222
		c0.168-0.892,0.558-1.648,1.17-2.259C79.584,0.485,80.779,0,82.194,0c1.439,0,2.709,0.537,3.807,1.61l-1.378,1.401
		c-0.766-0.769-1.574-1.152-2.429-1.152c-0.829,0-1.5,0.273-2.011,0.823c-0.406,0.438-0.653,1.109-0.746,2.013
		c-0.038,0.319-0.056,1.067-0.056,2.246c0,1.172,0.018,1.92,0.056,2.24c0.092,0.91,0.34,1.578,0.746,2.012
		c0.511,0.549,1.182,0.824,2.011,0.824c0.854,0,1.663-0.383,2.429-1.149L86.001,12.266z"/>
	<path fill="#FFFFFF" d="M94.189,13.76h-2.068V0.118h2.068V13.76z"/>
	<path fill="#FFFFFF" d="M111.116,13.76h-2.2l-0.938-2.74h-5.375l-0.938,2.74h-2.199l4.993-13.642h1.663L111.116,13.76z
		 M107.406,9.276l-2.066-6.075l-2.123,6.075H107.406z"/>
	<path fill="#FFFFFF" d="M125.023,13.76h-8.626V0.118h2.064v11.784h6.562V13.76z"/>
</g>
</svg>
