<?xml version="1.0" encoding="utf-8"?>
<!-- Generator: Adobe Illustrator 16.0.0, SVG Export Plug-In . SVG Version: 6.00 Build 0)  -->
<!DOCTYPE svg PUBLIC "-//W3C//DTD SVG 1.1//EN" "http://www.w3.org/Graphics/SVG/1.1/DTD/svg11.dtd">
<svg version="1.1" id="Layer_1" xmlns="http://www.w3.org/2000/svg" xmlns:xlink="http://www.w3.org/1999/xlink" x="0px" y="0px"
	 width="224.516px" height="161.12px" viewBox="0 0 224.516 161.12" enable-background="new 0 0 224.516 161.12"
	 xml:space="preserve">
<path fill="#39BDE6" d="M75.051,96.439c0,0.287-0.233,0.52-0.52,0.52l-4.424,0.002c-0.287,0-0.521-0.234-0.52-0.521l-0.001-4.38
	c0.001-0.288,0.232-0.521,0.521-0.521h4.424c0.287,0,0.519,0.232,0.52,0.521L75.051,96.439z"/>
<path fill="#EE2926" d="M123.051,80.689c0,0.287-0.233,0.52-0.52,0.52l-4.424,0.002c-0.287,0-0.521-0.234-0.52-0.521l-0.001-4.38
	c0.001-0.288,0.232-0.521,0.521-0.521h4.424c0.287,0,0.519,0.232,0.52,0.521L123.051,80.689z"/>
<path fill="#39BDE6" d="M30.667,24.089c0.203,0.203,0.203,0.533,0,0.735l-3.127,3.129c-0.204,0.202-0.534,0.202-0.736-0.002
	l-3.098-3.096c-0.204-0.205-0.204-0.533,0-0.737l3.128-3.128c0.203-0.203,0.531-0.203,0.736,0.001L30.667,24.089z"/>
<path fill="#965BA5" d="M172.371,64.339c0.203,0.203,0.203,0.533,0,0.735l-3.127,3.129c-0.204,0.202-0.534,0.202-0.736-0.002
	l-3.098-3.096c-0.204-0.205-0.204-0.533,0-0.737l3.128-3.128c0.203-0.203,0.531-0.203,0.736,0.001L172.371,64.339z"/>
<path fill="#EE2926" d="M95.226,64.342c0.203,0.203,0.203,0.533,0,0.735L92.1,68.207c-0.204,0.202-0.534,0.202-0.736-0.002
	l-3.098-3.096c-0.204-0.205-0.204-0.533,0-0.737l3.128-3.128c0.203-0.203,0.531-0.203,0.736,0.001L95.226,64.342z"/>
<path fill="#39BDE6" d="M106.821,50.913c0,0.287-0.233,0.52-0.52,0.52l-4.424,0.002c-0.287-0.001-0.521-0.235-0.52-0.522
	l-0.001-4.38c0.001-0.289,0.232-0.521,0.521-0.521h4.424c0.287,0,0.519,0.232,0.52,0.521L106.821,50.913z"/>
<path fill="#39BDE6" d="M153.801,26.439c0,0.287-0.233,0.52-0.52,0.52l-4.424,0.002c-0.287-0.001-0.521-0.235-0.52-0.522
	l-0.001-4.38c0.001-0.289,0.232-0.521,0.521-0.521h4.424c0.287,0,0.519,0.232,0.52,0.521L153.801,26.439z"/>
<path fill="#EE2926" d="M30.745,114.162c0,0.287-0.233,0.52-0.52,0.52l-4.424,0.002c-0.287-0.001-0.521-0.234-0.52-0.521
	l-0.001-4.381c0.001-0.288,0.232-0.521,0.521-0.521h4.424c0.287,0,0.519,0.232,0.52,0.521L30.745,114.162z"/>
<path fill="#EE2926" d="M131.953,146.493c0,0.287-0.233,0.521-0.52,0.521l-4.424,0.002c-0.287-0.002-0.521-0.235-0.52-0.522
	l-0.001-4.38c0.001-0.289,0.232-0.521,0.521-0.521h4.424c0.287,0,0.519,0.232,0.52,0.521L131.953,146.493z"/>
<path fill="#965BA5" d="M194.821,80.412c0,0.287-0.233,0.521-0.52,0.521l-4.424,0.002c-0.287-0.001-0.521-0.235-0.52-0.522
	l-0.001-4.379c0.001-0.289,0.232-0.521,0.521-0.521h4.424c0.287,0,0.519,0.232,0.52,0.521L194.821,80.412z"/>
<path fill="#965BA5" d="M79.158,109.512h-9.815c-0.288,0-0.52,0.232-0.52,0.521v4.379c0,0.287,0.231,0.521,0.52,0.52l9.815,0.001
	c0.287-0.001,0.521-0.233,0.521-0.521v-4.379C79.679,109.746,79.445,109.512,79.158,109.512z"/>
<path fill="#EE2926" d="M63.908,97.262h-9.815c-0.288,0-0.52,0.232-0.52,0.521v4.379c0,0.287,0.231,0.521,0.52,0.52l9.815,0.001
	c0.287-0.001,0.521-0.233,0.521-0.521v-4.379C64.429,97.496,64.195,97.262,63.908,97.262z"/>
<path fill="#965BA5" d="M51.158,109.262h-9.815c-0.288,0-0.52,0.232-0.52,0.521v4.379c0,0.287,0.231,0.521,0.52,0.52l9.815,0.001
	c0.287-0.001,0.521-0.233,0.521-0.521v-4.379C51.679,109.496,51.445,109.262,51.158,109.262z"/>
<path fill="#39BDE6" d="M121.908,117.512h-9.815c-0.288,0-0.52,0.232-0.52,0.521v4.379c0,0.287,0.231,0.521,0.52,0.52l9.815,0.001
	c0.287-0.001,0.521-0.233,0.521-0.521v-4.379C122.429,117.746,122.195,117.512,121.908,117.512z"/>
<path fill="#EE2926" d="M153.408,131.262h-9.815c-0.288,0-0.52,0.232-0.52,0.521v4.379c0,0.287,0.231,0.521,0.52,0.52l9.815,0.001
	c0.287-0.001,0.521-0.233,0.521-0.521v-4.379C153.929,131.496,153.695,131.262,153.408,131.262z"/>
<path fill="#965BA5" d="M150.658,108.512h-9.815c-0.288,0-0.52,0.232-0.52,0.521v4.379c0,0.287,0.231,0.521,0.52,0.52l9.815,0.001
	c0.287-0.001,0.521-0.233,0.521-0.521v-4.379C151.179,108.746,150.945,108.512,150.658,108.512z"/>
<path fill="#39BDE6" d="M147.158,91.012h-9.815c-0.288,0-0.52,0.232-0.52,0.521v4.379c0,0.287,0.231,0.521,0.52,0.52l9.815,0.001
	c0.287-0.001,0.521-0.233,0.521-0.521v-4.379C147.679,91.246,147.445,91.012,147.158,91.012z"/>
<path fill="#965BA5" d="M28.908,84.012h-9.815c-0.288,0-0.52,0.232-0.52,0.521v4.379c0,0.287,0.231,0.521,0.52,0.52l9.815,0.001
	c0.287-0.001,0.521-0.233,0.521-0.521v-4.379C29.429,84.246,29.195,84.012,28.908,84.012z"/>
<path fill="#965BA5" d="M151.908,75.262h-9.815c-0.288,0-0.52,0.232-0.52,0.521v4.379c0,0.287,0.231,0.521,0.52,0.52l9.815,0.001
	c0.287-0.001,0.521-0.233,0.521-0.521v-4.379C152.429,75.496,152.195,75.262,151.908,75.262z"/>
<path fill="#39BDE6" d="M116.908,62.012h-9.815c-0.288,0-0.52,0.232-0.52,0.521v4.379c0,0.288,0.231,0.521,0.52,0.52l9.815,0.001
	c0.287-0.001,0.521-0.233,0.521-0.521v-4.379C117.429,62.246,117.195,62.012,116.908,62.012z"/>
<path fill="#965BA5" d="M58.658,54.762h-9.815c-0.288,0-0.52,0.232-0.52,0.521v4.379c0,0.288,0.231,0.521,0.52,0.52l9.815,0.001
	c0.287-0.001,0.521-0.233,0.521-0.521v-4.379C59.179,54.996,58.945,54.762,58.658,54.762z"/>
<path fill="#965BA5" d="M27.658,45.262h-9.815c-0.288,0-0.52,0.232-0.52,0.521v4.379c0,0.288,0.231,0.521,0.52,0.52l9.815,0.001
	c0.287-0.001,0.521-0.233,0.521-0.521v-4.379C28.179,45.496,27.945,45.262,27.658,45.262z"/>
<path fill="#965BA5" d="M46.137,17.525l-6.941-6.94c-0.204-0.204-0.532-0.203-0.735,0.001l-3.097,3.096
	c-0.204,0.204-0.205,0.532,0,0.735l6.939,6.941c0.204,0.203,0.534,0.204,0.737,0l3.096-3.096
	C46.34,18.06,46.34,17.728,46.137,17.525z"/>
<path fill="#39BDE6" d="M131.408,7.012h-9.815c-0.288,0-0.52,0.232-0.52,0.521v4.379c0,0.288,0.231,0.521,0.52,0.52l9.815,0.001
	c0.287-0.001,0.521-0.233,0.521-0.521V7.533C131.929,7.246,131.695,7.012,131.408,7.012z"/>
<path fill="#39BDE6" d="M121.658,21.762h-9.815c-0.288,0-0.52,0.232-0.52,0.521v4.379c0,0.288,0.231,0.521,0.52,0.52l9.815,0.001
	c0.287-0.001,0.521-0.233,0.521-0.521v-4.379C122.179,21.996,121.945,21.762,121.658,21.762z"/>
<path fill="#EE2926" d="M183.658,26.928h-9.815c-0.288,0-0.52,0.232-0.52,0.521v4.379c0,0.288,0.231,0.521,0.52,0.52l9.815,0.001
	c0.287-0.001,0.521-0.233,0.521-0.521v-4.379C184.179,27.163,183.945,26.928,183.658,26.928z"/>
<path fill="#965BA5" d="M213.18,26.012h-15.25c-0.287,0-0.52,0.232-0.52,0.521v4.379c0,0.288,0.232,0.521,0.52,0.52l15.25,0.001
	c0.289-0.001,0.521-0.233,0.521-0.521v-4.379C213.701,26.246,213.467,26.012,213.18,26.012z"/>
<path fill="#EE2926" d="M54.864,148.697L44.08,137.914c-0.203-0.203-0.532-0.203-0.736,0.001l-3.097,3.097
	c-0.203,0.202-0.204,0.532,0,0.734L51.03,152.53c0.205,0.203,0.533,0.203,0.736,0l3.096-3.097
	C55.066,149.23,55.066,148.9,54.864,148.697z"/>
<path fill="#39BDE6" d="M64.78,121.164l-10.783,10.783c-0.203,0.203-0.203,0.532,0.001,0.736l3.096,3.096
	c0.204,0.204,0.533,0.205,0.735,0.001l10.784-10.782c0.204-0.205,0.203-0.533,0-0.737l-3.096-3.097
	C65.314,120.962,64.983,120.961,64.78,121.164z"/>
<path fill="#39BDE6" d="M115.18,107.762H99.93c-0.287,0-0.52,0.232-0.52,0.521v4.379c0,0.287,0.232,0.521,0.52,0.52l15.25,0.001
	c0.289-0.001,0.521-0.233,0.521-0.521v-4.379C115.701,107.996,115.467,107.762,115.18,107.762z"/>
<path fill="#965BA5" d="M114.904,141.594h-15.25c-0.287,0-0.52,0.232-0.52,0.521v4.379c0,0.287,0.232,0.521,0.52,0.52l15.25,0.001
	c0.289-0.001,0.521-0.233,0.521-0.521v-4.379C115.425,141.828,115.191,141.594,114.904,141.594z"/>
<path fill="#39BDE6" d="M83.904,142.094h-15.25c-0.287,0-0.52,0.232-0.52,0.521v4.379c0,0.287,0.232,0.521,0.52,0.52l15.25,0.001
	c0.289-0.001,0.521-0.233,0.521-0.521v-4.379C84.425,142.328,84.191,142.094,83.904,142.094z"/>
<path fill="#965BA5" d="M132.68,90.762h-15.25c-0.287,0-0.52,0.232-0.52,0.521v4.379c0,0.287,0.232,0.521,0.52,0.52l15.25,0.001
	c0.289-0.001,0.521-0.233,0.521-0.521v-4.379C133.201,90.996,132.967,90.762,132.68,90.762z"/>
<path fill="#39BDE6" d="M18.43,91.262H3.18c-0.287,0-0.52,0.232-0.52,0.521v4.379c0,0.287,0.232,0.521,0.52,0.52l15.25,0.001
	c0.289-0.001,0.521-0.233,0.521-0.521v-4.379C18.951,91.496,18.717,91.262,18.43,91.262z"/>
<path fill="#965BA5" d="M220.364,129.447l-10.784-10.783c-0.203-0.203-0.532-0.203-0.736,0l-3.096,3.097
	c-0.204,0.204-0.204,0.533,0,0.735l10.783,10.784c0.205,0.204,0.533,0.203,0.737-0.001l3.096-3.096
	C220.566,129.98,220.566,129.65,220.364,129.447z"/>
<path fill="#EE2926" d="M47.711,41.248L36.927,30.465c-0.203-0.203-0.532-0.203-0.736,0.001l-3.096,3.096
	c-0.204,0.204-0.204,0.533,0,0.735l10.783,10.784c0.205,0.204,0.533,0.203,0.737,0l3.096-3.096
	C47.913,41.782,47.914,41.451,47.711,41.248z"/>
<path fill="#965BA5" d="M199.03,107.664l-10.783,10.783c-0.203,0.203-0.203,0.531,0.001,0.736l3.096,3.096
	c0.204,0.203,0.533,0.204,0.735,0l10.784-10.782c0.204-0.205,0.203-0.532,0-0.737l-3.096-3.096
	C199.564,107.461,199.233,107.461,199.03,107.664z"/>
<path fill="#39BDE6" d="M82.93,40.262H67.68c-0.287,0-0.52,0.232-0.52,0.521v4.379c0,0.288,0.232,0.521,0.52,0.52l15.25,0.001
	c0.289-0.001,0.521-0.233,0.521-0.521v-4.379C83.451,40.496,83.217,40.262,82.93,40.262z"/>
<path fill="#965BA5" d="M40.43,55.012H25.18c-0.287,0-0.52,0.232-0.52,0.521v4.379c0,0.288,0.232,0.521,0.52,0.52l15.25,0.001
	c0.289-0.001,0.521-0.233,0.521-0.521v-4.379C40.951,55.246,40.717,55.012,40.43,55.012z"/>
<path fill="#965BA5" d="M80.68,6.262H65.43c-0.287,0-0.52,0.232-0.52,0.521v4.379c0,0.288,0.232,0.521,0.52,0.52l15.25,0.001
	c0.289-0.001,0.521-0.233,0.521-0.521V6.783C81.201,6.496,80.967,6.262,80.68,6.262z"/>
<path fill="#EE2926" d="M187.78,41.664l-10.783,10.784c-0.203,0.203-0.203,0.532,0.001,0.736l3.096,3.096
	c0.204,0.204,0.533,0.204,0.735,0l10.784-10.783c0.204-0.205,0.203-0.533,0-0.737l-3.096-3.096
	C188.314,41.462,187.983,41.461,187.78,41.664z"/>
<path fill="#965BA5" d="M73.03,20.164L62.247,30.948c-0.203,0.203-0.203,0.532,0.001,0.736l3.096,3.096
	c0.204,0.204,0.533,0.204,0.735,0l10.784-10.783c0.204-0.205,0.203-0.533,0-0.737l-3.096-3.096
	C73.564,19.962,73.233,19.961,73.03,20.164z"/>
<path fill="#39BDE6" d="M211.93,60.262h-15.25c-0.287,0-0.52,0.232-0.52,0.521v4.379c0,0.288,0.232,0.521,0.52,0.52l15.25,0.001
	c0.289-0.001,0.521-0.233,0.521-0.521v-4.379C212.451,60.496,212.217,60.262,211.93,60.262z"/>
<path fill="#965BA5" d="M175.612,108.012h-20.707c-0.289,0-0.521,0.232-0.521,0.521v4.379c0,0.287,0.232,0.521,0.522,0.52
	l20.706,0.001c0.287-0.001,0.521-0.233,0.521-0.521v-4.379C176.133,108.246,175.899,108.012,175.612,108.012z"/>
<path fill="#965BA5" d="M98.612,77.512H77.905c-0.289,0-0.521,0.232-0.521,0.521v4.379c0,0.287,0.232,0.521,0.522,0.52l20.706,0.001
	c0.287-0.001,0.521-0.233,0.521-0.521v-4.379C99.133,77.746,98.899,77.512,98.612,77.512z"/>
<path fill="#EE2926" d="M139.362,45.762h-20.707c-0.289,0-0.521,0.232-0.521,0.521v4.379c0,0.288,0.232,0.521,0.522,0.52
	l20.706,0.001c0.287-0.001,0.521-0.233,0.521-0.521v-4.379C139.883,45.996,139.649,45.762,139.362,45.762z"/>
<path fill="#EE2926" d="M205.369,130.762h-26.18c-0.29,0-0.521,0.232-0.521,0.521v4.379c-0.002,0.287,0.231,0.521,0.521,0.52
	l26.18,0.001c0.287-0.001,0.52-0.233,0.52-0.521v-4.379C205.891,130.996,205.656,130.762,205.369,130.762z"/>
</svg>
