<?xml version="1.0" encoding="utf-8"?>
<!-- Generator: Adobe Illustrator 16.0.0, SVG Export Plug-In . SVG Version: 6.00 Build 0)  -->
<!DOCTYPE svg PUBLIC "-//W3C//DTD SVG 1.1//EN" "http://www.w3.org/Graphics/SVG/1.1/DTD/svg11.dtd">
<svg version="1.1" id="Layer_1" xmlns="http://www.w3.org/2000/svg" xmlns:xlink="http://www.w3.org/1999/xlink" x="0px" y="0px"
	 width="586px" height="316px" viewBox="-167.242 -82.94 586 316" enable-background="new -167.242 -82.94 586 316"
	 xml:space="preserve">
<path fill="#EF382C" d="M143.917,197.035c0,0.354-0.289,0.643-0.644,0.643h-5.453c-0.354,0-0.641-0.286-0.641-0.643v-5.399
	c0-0.356,0.283-0.642,0.641-0.642h5.455c0.354,0,0.642,0.282,0.642,0.642V197.035L143.917,197.035z"/>
<path fill="#4BA1D9" d="M272.785-37.778c0,0.354-0.287,0.641-0.641,0.641h-5.456c-0.354,0-0.641-0.287-0.641-0.643v-5.4
	c0-0.355,0.284-0.643,0.642-0.643h5.455c0.354,0,0.641,0.286,0.642,0.643L272.785-37.778z"/>
<path fill="#965BA5" d="M-14.126,216.545c0.25,0.25,0.249,0.657,0,0.907l-3.856,3.856c-0.251,0.25-0.657,0.25-0.908,0l-3.818-3.818
	c-0.251-0.253-0.251-0.656,0-0.909l3.855-3.855c0.25-0.251,0.655-0.248,0.907,0L-14.126,216.545z"/>
<path fill="#965BA5" d="M113.754-54.562c0.251,0.25,0.25,0.658,0,0.908l-3.855,3.855c-0.252,0.25-0.658,0.25-0.908,0l-3.818-3.818
	c-0.251-0.253-0.251-0.656,0-0.909l3.856-3.855c0.249-0.25,0.655-0.248,0.907,0L113.754-54.562z"/>
<path fill="#4BA1D9" d="M340.721,139.93c0.252,0.252,0.25,0.658,0,0.907l-3.855,3.856c-0.251,0.252-0.655,0.252-0.907,0
	l-3.819-3.818c-0.252-0.253-0.252-0.657,0-0.909l3.856-3.856c0.251-0.248,0.655-0.248,0.907,0.004L340.721,139.93z"/>
<path fill="#4BA1D9" d="M-117.258-14.587c0,0.355-0.288,0.643-0.642,0.643h-5.454c-0.355,0-0.642-0.287-0.642-0.643v-5.4
	c0-0.355,0.287-0.643,0.643-0.643h5.454c0.355,0,0.641,0.287,0.641,0.643V-14.587z"/>
<path fill="#4BA1D9" d="M9.351,11.191V-0.913c0-0.354-0.287-0.641-0.643-0.641h-5.4c-0.354,0-0.643,0.287-0.642,0.642V11.19
	c0,0.354,0.288,0.641,0.642,0.641h5.399C9.062,11.832,9.351,11.545,9.351,11.191z"/>
<path fill="#EF382C" d="M-66.548,155.977H-78.65c-0.355,0-0.642,0.286-0.642,0.643v5.399c0,0.356,0.287,0.644,0.643,0.642h12.102
	c0.355,0,0.642-0.285,0.642-0.642v-5.399C-65.906,156.266-66.192,155.977-66.548,155.977z"/>
<path fill="#965BA5" d="M-135.919,115.525l-12.103,0.001c-0.354,0-0.641,0.287-0.641,0.644v5.399c0,0.356,0.287,0.642,0.641,0.642
	l12.103,0.001c0.355-0.001,0.642-0.286,0.642-0.643v-5.399C-135.278,115.815-135.565,115.526-135.919,115.525z"/>
<path fill="#965BA5" d="M-98.922,166.355h-12.103c-0.355,0-0.642,0.286-0.642,0.643v5.4c-0.001,0.354,0.287,0.643,0.643,0.638
	l12.101,0.005c0.355-0.005,0.643-0.287,0.643-0.643v-5.4C-98.28,166.642-98.568,166.355-98.922,166.355z"/>
<path fill="#EF382C" d="M177.444,160.177l-12.102,0.001c-0.354,0-0.642,0.288-0.642,0.643v5.399
	c-0.001,0.356,0.287,0.644,0.644,0.641l12.1,0.003c0.355-0.003,0.644-0.289,0.644-0.644v-5.399
	C178.087,160.467,177.799,160.178,177.444,160.177z"/>
<path fill="#965BA5" d="M318.567,115.764l-12.102,0.003c-0.354,0-0.642,0.286-0.642,0.643v5.399
	c-0.001,0.354,0.288,0.642,0.644,0.64l12.1,0.002c0.355-0.002,0.644-0.287,0.644-0.642v-5.399
	C319.211,116.056,318.922,115.764,318.567,115.764z"/>
<path fill="#EF382C" d="M248.157,162.131V150.03c0-0.356-0.287-0.644-0.644-0.644h-5.4c-0.356,0-0.642,0.287-0.641,0.644v12.102
	c0,0.353,0.283,0.641,0.641,0.641h5.399C247.867,162.772,248.157,162.484,248.157,162.131z"/>
<path fill="#965BA5" d="M229.098-64.489v12.104c0,0.355,0.285,0.641,0.642,0.641h5.401c0.354,0,0.643-0.287,0.642-0.643v-12.102
	c0-0.354-0.285-0.642-0.642-0.642h-5.399C229.385-65.13,229.098-64.842,229.098-64.489z"/>
<path fill="#4BA1D9" d="M103.88,0.717L91.777,0.718c-0.356,0-0.642,0.286-0.642,0.641v5.399c0,0.356,0.287,0.644,0.642,0.643h12.102
	c0.355,0,0.643-0.287,0.643-0.643V1.36C104.523,1.006,104.235,0.718,103.88,0.717z"/>
<path fill="#965BA5" d="M-135.941,0.694l-12.103,0.001c-0.356,0-0.641,0.286-0.641,0.641v5.4c0,0.355,0.285,0.643,0.641,0.641
	h12.103c0.354,0,0.642-0.285,0.642-0.641V1.338C-135.299,0.984-135.587,0.696-135.941,0.694z"/>
<path fill="#965BA5" d="M-31.099-24.736H-43.2c-0.355,0-0.642,0.286-0.642,0.643v5.4c0,0.355,0.287,0.643,0.642,0.641h12.102
	c0.354,0,0.643-0.286,0.643-0.641v-5.399C-30.456-24.446-30.745-24.736-31.099-24.736z"/>
<path fill="#EF382C" d="M-39.094-59.004l-8.559-8.557c-0.252-0.252-0.656-0.25-0.908,0l-3.817,3.818
	c-0.253,0.25-0.253,0.658,0,0.908l8.558,8.559c0.25,0.249,0.654,0.25,0.906,0l3.819-3.819
	C-38.846-58.346-38.845-58.753-39.094-59.004z"/>
<path fill="#4BA1D9" d="M183.444-39.828l0.001,12.104c0,0.356,0.286,0.641,0.643,0.641h5.402c0.354,0,0.642-0.287,0.641-0.642
	v-12.103c0-0.354-0.286-0.642-0.641-0.642h-5.402C183.734-40.47,183.445-40.181,183.444-39.828z"/>
<path fill="#4BA1D9" d="M54.742-32.84v12.102c0,0.356,0.288,0.641,0.643,0.641h5.399c0.356,0,0.643-0.286,0.641-0.641l0.001-12.102
	c-0.001-0.355-0.285-0.643-0.642-0.643h-5.399C55.032-33.483,54.742-33.194,54.742-32.84z"/>
<path fill="#4BA1D9" d="M-111.657-64.483v12.104c0,0.356,0.288,0.641,0.643,0.641h5.4c0.355,0,0.642-0.286,0.641-0.642v-12.103
	c0-0.354-0.285-0.642-0.641-0.642h-5.399C-111.368-65.125-111.657-64.837-111.657-64.483z"/>
<path fill="#965BA5" d="M158.732-33.171l0.003,12.104c0,0.356,0.285,0.641,0.642,0.641h5.4c0.355,0,0.642-0.287,0.641-0.641
	l0.001-12.102c-0.001-0.354-0.285-0.643-0.642-0.643h-5.4C159.022-33.813,158.733-33.525,158.732-33.171z"/>
<path fill="#4BA1D9" d="M61.714,193.035H49.611c-0.356,0-0.641,0.286-0.641,0.641v5.403c0,0.354,0.286,0.643,0.642,0.64h12.103
	c0.354,0,0.641-0.285,0.641-0.64v-5.401C62.355,193.324,62.068,193.035,61.714,193.035z"/>
<path fill="#EF382C" d="M265.723-77.451l-12.104,0.001c-0.355,0-0.641,0.286-0.641,0.641v5.401c0,0.356,0.285,0.643,0.642,0.641
	l12.103,0.001c0.354-0.001,0.641-0.286,0.641-0.643v-5.399C266.363-77.163,266.076-77.451,265.723-77.451z"/>
<path fill="#EF382C" d="M-149.787,205.55l-12.104,0.002c-0.355,0-0.641,0.286-0.641,0.641v5.4c0,0.356,0.285,0.643,0.642,0.643
	h12.103c0.353,0,0.641-0.286,0.641-0.643v-5.398C-149.148,205.839-149.434,205.55-149.787,205.55z"/>
<path fill="#EF382C" d="M301.059,14.458l-12.104,0.001c-0.354,0-0.641,0.286-0.641,0.641v5.401c0,0.356,0.286,0.642,0.643,0.641
	l12.103,0.001c0.353-0.001,0.641-0.286,0.641-0.642v-5.399C301.698,14.747,301.411,14.458,301.059,14.458z"/>
<path fill="#4BA1D9" d="M164.762-65.126l-12.103,0.001c-0.356,0-0.642,0.286-0.642,0.641v5.4c0,0.355,0.286,0.643,0.643,0.641
	l12.102,0.001c0.354-0.001,0.642-0.286,0.642-0.643v-5.399C165.403-64.837,165.116-65.126,164.762-65.126z"/>
<path fill="#965BA5" d="M40.644,153.373v-18.804c0-0.354-0.288-0.641-0.643-0.641H34.6c-0.355,0-0.643,0.285-0.641,0.641v18.804
	c0,0.354,0.286,0.641,0.641,0.641h5.401C40.354,154.011,40.643,153.726,40.644,153.373z"/>
<path fill="#4BA1D9" d="M-45.611,199.882l-13.296,13.295c-0.25,0.25-0.25,0.656,0,0.906l3.819,3.818c0.25,0.251,0.656,0.251,0.907,0
	l13.297-13.295c0.249-0.25,0.25-0.654,0-0.905l-3.82-3.819C-44.952,199.631-45.361,199.631-45.611,199.882z"/>
<path fill="#EF382C" d="M-9.065,172.331l-13.297-13.295c-0.252-0.253-0.656-0.253-0.907,0l-3.821,3.819
	c-0.252,0.25-0.252,0.655,0.001,0.905l13.295,13.298c0.252,0.249,0.658,0.25,0.907,0l3.818-3.82
	C-8.816,172.989-8.815,172.581-9.065,172.331z"/>
<path fill="#965BA5" d="M128.859,111.376h-18.804c-0.354,0-0.642,0.285-0.642,0.642v5.401c0,0.354,0.287,0.643,0.642,0.641
	l18.804,0.002c0.354-0.002,0.64-0.288,0.64-0.643v-5.401C129.498,111.665,129.212,111.376,128.859,111.376z"/>
<path fill="#EF382C" d="M344.678-48.132l-13.294,13.297c-0.252,0.252-0.251,0.654,0.001,0.906l3.818,3.819
	c0.251,0.253,0.656,0.253,0.907,0l13.295-13.295c0.249-0.251,0.251-0.657,0-0.907l-3.818-3.819
	C345.337-48.38,344.929-48.38,344.678-48.132z"/>
<path fill="#EF382C" d="M-77.214-29.551l-13.299-13.296c-0.251-0.252-0.657-0.25-0.907,0l-3.818,3.819
	c-0.251,0.251-0.252,0.657,0,0.906l13.295,13.296c0.252,0.25,0.655,0.251,0.906,0l3.819-3.819
	C-76.967-28.893-76.966-29.299-77.214-29.551z"/>
<path fill="#965BA5" d="M43.016-67.289L29.72-53.992c-0.25,0.251-0.25,0.656,0,0.906l3.818,3.82c0.25,0.252,0.657,0.252,0.908-0.001
	l13.296-13.295c0.25-0.251,0.25-0.656,0-0.908l-3.819-3.817C43.675-67.537,43.268-67.54,43.016-67.289z"/>
<path fill="#EF382C" d="M91.748,147.632l-18.804,0.001c-0.354,0-0.641,0.286-0.641,0.641v5.401c0,0.356,0.285,0.644,0.641,0.643
	l18.804,0.002c0.355-0.002,0.643-0.288,0.643-0.642v-5.399C92.391,147.922,92.102,147.632,91.748,147.632z"/>
<path fill="#4BA1D9" d="M109.463,173.653l0.002,18.804c0,0.356,0.284,0.642,0.642,0.642h5.401c0.355,0,0.642-0.285,0.641-0.642
	l0.001-18.804c-0.001-0.354-0.285-0.643-0.642-0.643h-5.401C109.753,173.012,109.463,173.298,109.463,173.653z"/>
<path fill="#4BA1D9" d="M-145.313,144.918l0.002,18.804c0,0.356,0.284,0.642,0.642,0.642h5.4c0.355,0,0.642-0.285,0.641-0.642
	l0.001-18.804c-0.001-0.354-0.286-0.643-0.642-0.643h-5.4C-145.023,144.278-145.313,144.564-145.313,144.918z"/>
<path fill="#965BA5" d="M324.971,181.75l-13.295,13.297c-0.251,0.252-0.25,0.656,0.001,0.906l3.819,3.818
	c0.251,0.25,0.656,0.25,0.905,0l13.297-13.296c0.25-0.25,0.251-0.653,0-0.904l-3.82-3.82
	C325.632,181.5,325.224,181.499,324.971,181.75z"/>
<path fill="#4BA1D9" d="M374.838,194.937l-13.297-13.296c-0.25-0.252-0.654-0.252-0.905,0l-3.819,3.816
	c-0.252,0.253-0.252,0.66,0,0.909l13.294,13.295c0.251,0.251,0.657,0.253,0.907,0l3.818-3.816
	C375.087,195.594,375.088,195.187,374.838,194.937z"/>
<path fill="#4BA1D9" d="M376.766,145.422V126.62c0-0.356-0.287-0.642-0.643-0.642h-5.401c-0.355,0-0.642,0.285-0.641,0.642
	l-0.002,18.802c0.002,0.354,0.286,0.642,0.642,0.642h5.399C376.477,146.066,376.766,145.777,376.766,145.422z"/>
<path fill="#4BA1D9" d="M388.439-19.066l-18.803,0.001c-0.355,0-0.641,0.285-0.641,0.641v5.401
	c-0.001,0.355,0.284,0.642,0.642,0.641l18.802,0.001c0.355-0.001,0.643-0.287,0.643-0.642v-5.399
	C389.082-18.778,388.794-19.065,388.439-19.066z"/>
<path fill="#965BA5" d="M314.451-65.138l-18.803,0.001c-0.355,0-0.642,0.288-0.642,0.643v5.401c0,0.355,0.285,0.642,0.642,0.641
	h18.803c0.355,0,0.643-0.286,0.643-0.641v-5.4C315.096-64.848,314.805-65.138,314.451-65.138z"/>
<path fill="#EF382C" d="M-105.001,45.872V20.337c0-0.355-0.286-0.641-0.643-0.641h-5.399c-0.356,0-0.642,0.285-0.641,0.643v25.533
	c0.001,0.353,0.285,0.642,0.642,0.642h5.399C-105.291,46.513-105.001,46.224-105.001,45.872z"/>
<path fill="#965BA5" d="M247.444,190.98h-25.535c-0.354,0-0.643,0.287-0.643,0.643v5.399c0,0.356,0.287,0.644,0.644,0.643
	l25.534,0.002c0.354-0.002,0.641-0.285,0.641-0.642v-5.399C248.085,191.269,247.798,190.98,247.444,190.98z"/>
<path fill="#4BA1D9" d="M235.814,30.569l-0.003-25.535c0-0.356-0.285-0.642-0.641-0.642l-5.401,0.001
	c-0.354-0.001-0.643,0.287-0.642,0.641v25.535c0,0.354,0.286,0.641,0.642,0.641h5.401C235.524,31.21,235.813,30.923,235.814,30.569z
	"/>
<path fill="#EF382C" d="M135.613-23.966l-25.535,0.001c-0.356,0-0.642,0.286-0.642,0.641l0.001,5.401
	c-0.001,0.355,0.285,0.642,0.641,0.642h25.535c0.354,0,0.642-0.286,0.642-0.642v-5.399
	C136.255-23.677,135.965-23.966,135.613-23.966z"/>
<path fill="#EF382C" d="M389.094,47.837V22.302c0-0.356-0.287-0.642-0.644-0.642h-5.399c-0.356,0-0.642,0.286-0.641,0.643
	l-0.001,25.534c0.001,0.354,0.284,0.642,0.642,0.642h5.399C388.805,48.479,389.094,48.191,389.094,47.837z"/>
<path fill="#EF382C" d="M318.076,221.548l-32.281,0.002c-0.356,0-0.642,0.287-0.642,0.644l0.001,5.399
	c-0.002,0.354,0.285,0.642,0.641,0.64l32.281,0.002c0.355-0.002,0.643-0.288,0.643-0.642v-5.399
	C318.719,221.837,318.43,221.55,318.076,221.548z"/>
<text transform="matrix(0.9962 0 0 1 -155.8391 86.7817)" fill="#3C3640" font-family="'DINMediumAlternate'" font-size="34.4668" letter-spacing="4.015">PROSOCIAL </text>
<text transform="matrix(0.9962 0 0 1 92.1667 86.7817)" fill="#3C3640" font-family="'DINRegularAlternate'" font-size="34.4668" letter-spacing="4.015">COMPUTING LAB</text>
</svg>
