<?xml version="1.0" encoding="utf-8"?>
<!-- Generator: Adobe Illustrator 16.0.0, SVG Export Plug-In . SVG Version: 6.00 Build 0)  -->
<!DOCTYPE svg PUBLIC "-//W3C//DTD SVG 1.1//EN" "http://www.w3.org/Graphics/SVG/1.1/DTD/svg11.dtd">
<svg version="1.1" id="Layer_3" xmlns="http://www.w3.org/2000/svg" xmlns:xlink="http://www.w3.org/1999/xlink" x="0px" y="0px"
	 width="250px" height="180.333px" viewBox="0 0 250 180.333" enable-background="new 0 0 250 180.333" xml:space="preserve">
<path fill="#4BA1D9" d="M99.103,160.75c0,0.378-0.308,0.686-0.687,0.686l-5.83,0c-0.379-0.001-0.687-0.308-0.687-0.687l0-5.773
	c0-0.379,0.307-0.686,0.687-0.686l5.83,0c0.378,0.001,0.686,0.307,0.686,0.686V160.75z"/>
<path fill="#F49E1E" d="M83.822,142.058c0,0.378-0.308,0.686-0.687,0.686l-5.83,0c-0.379-0.001-0.687-0.308-0.687-0.687l0-5.773
	c0-0.379,0.307-0.686,0.687-0.686l5.83,0c0.378,0.001,0.686,0.307,0.686,0.686V142.058z"/>
<path fill="#4BA1D9" d="M134.408,85.918c0,0.378-0.308,0.686-0.687,0.686l-5.83,0c-0.379-0.001-0.687-0.308-0.687-0.687l0-5.773
	c0-0.379,0.307-0.686,0.687-0.686l5.83,0c0.378,0.001,0.686,0.307,0.686,0.686V85.918z"/>
<path fill="#F49E1E" d="M43.418,65.036c0,0.378-0.308,0.686-0.687,0.686l-5.83,0c-0.379-0.001-0.687-0.308-0.687-0.687l0-5.773
	c0-0.379,0.307-0.686,0.687-0.686l5.83,0c0.378,0.001,0.686,0.307,0.686,0.686V65.036z"/>
<path fill="#F49E1E" d="M229.289,11.283c0,0.378-0.308,0.686-0.687,0.686l-5.83,0c-0.379-0.001-0.687-0.308-0.687-0.687l0-5.773
	c0-0.379,0.307-0.686,0.687-0.686l5.83,0c0.378,0.001,0.686,0.307,0.686,0.686V11.283z"/>
<path fill="#EF382C" d="M205.685,11.283c0,0.378-0.308,0.686-0.687,0.686l-5.83,0c-0.379-0.001-0.687-0.308-0.687-0.687l0-5.773
	c0-0.379,0.307-0.686,0.687-0.686l5.83,0c0.378,0.001,0.686,0.307,0.686,0.686V11.283z"/>
<path fill="#F49E1E" d="M228.125,90.464c0,0.378-0.308,0.686-0.687,0.686l-5.83,0c-0.379-0.001-0.687-0.308-0.687-0.687l0-5.773
	c0-0.379,0.307-0.686,0.687-0.686l5.83,0c0.378,0.001,0.686,0.307,0.686,0.686V90.464z"/>
<path fill="#4BA1D9" d="M246.891,44.555h-12.938c-0.379,0-0.686,0.307-0.687,0.686v5.773c0,0.378,0.307,0.686,0.687,0.686h12.937
	c0.379,0,0.686-0.308,0.686-0.686l0-5.773C247.576,44.862,247.27,44.555,246.891,44.555z"/>
<path fill="#EF382C" d="M169.906,82.988h-12.938c-0.379,0-0.686,0.307-0.687,0.686v5.773c0,0.378,0.307,0.686,0.687,0.686h12.937
	c0.379,0,0.686-0.308,0.686-0.686l0-5.773C170.591,83.295,170.285,82.988,169.906,82.988z"/>
<path fill="#F49E1E" d="M246.891,4.823h-12.938c-0.379,0-0.686,0.307-0.687,0.686v5.773c0,0.378,0.307,0.686,0.687,0.686h12.937
	c0.379,0,0.686-0.308,0.686-0.686l0-5.773C247.576,5.13,247.27,4.823,246.891,4.823z"/>
<path fill="#4BA1D9" d="M134.67,4.823h-12.938c-0.379,0-0.686,0.307-0.687,0.686v5.773c0,0.378,0.307,0.686,0.687,0.686h12.937
	c0.379,0,0.686-0.308,0.686-0.686l0-5.773C135.355,5.13,135.049,4.823,134.67,4.823z"/>
<path fill="#EF382C" d="M213.051,24.995l-9.148,9.148c-0.268,0.268-0.268,0.703,0,0.971l4.082,4.083
	c0.268,0.267,0.703,0.268,0.971,0l9.148-9.147c0.268-0.269,0.268-0.703,0-0.97l-4.082-4.083
	C213.752,24.727,213.318,24.727,213.051,24.995z"/>
<path fill="#F49E1E" d="M70.949,4.877L61.8,14.025c-0.268,0.268-0.268,0.703,0,0.971l4.082,4.083c0.268,0.267,0.703,0.268,0.971,0
	l9.148-9.147c0.268-0.269,0.268-0.703,0-0.97l-4.082-4.083C71.65,4.61,71.216,4.609,70.949,4.877z"/>
<path fill="#4BA1D9" d="M31.633,161.629l-9.148,9.148c-0.268,0.268-0.268,0.703,0,0.971l4.082,4.083
	c0.268,0.267,0.703,0.268,0.971,0l9.148-9.147c0.268-0.269,0.268-0.703,0-0.97l-4.082-4.083
	C32.334,161.362,31.9,161.361,31.633,161.629z"/>
<path fill="#EF382C" d="M63.085,116.934H50.147c-0.379,0-0.686,0.307-0.687,0.686v5.773c0,0.378,0.307,0.686,0.687,0.686h12.937
	c0.379,0,0.686-0.308,0.686-0.686l0-5.773C63.771,117.241,63.464,116.934,63.085,116.934z"/>
<path fill="#F49E1E" d="M144.994,109.407h-12.938c-0.379,0-0.686,0.307-0.687,0.686v5.773c0,0.378,0.307,0.686,0.687,0.686h12.937
	c0.379,0,0.686-0.308,0.686-0.686l0-5.773C145.68,109.714,145.373,109.407,144.994,109.407z"/>
<path fill="#F49E1E" d="M19.139,141.021H6.202c-0.379,0-0.686,0.307-0.687,0.686v5.773c0,0.378,0.307,0.686,0.687,0.686h12.937
	c0.379,0,0.686-0.308,0.686-0.686l0-5.773C19.825,141.328,19.518,141.021,19.139,141.021z"/>
<path fill="#F49E1E" d="M17.636,102.173H4.698c-0.379,0-0.686,0.307-0.687,0.686v5.773c0,0.378,0.307,0.686,0.687,0.686h12.937
	c0.379,0,0.686-0.308,0.686-0.686l0-5.773C18.321,102.48,18.015,102.173,17.636,102.173z"/>
<path fill="#F49E1E" d="M17.636,44.57H4.698c-0.379,0-0.686,0.307-0.687,0.686v5.773c0,0.378,0.307,0.686,0.687,0.686h12.937
	c0.379,0,0.686-0.308,0.686-0.686l0-5.773C18.321,44.877,18.015,44.57,17.636,44.57z"/>
<path fill="#4BA1D9" d="M121.224,44.57h-12.938c-0.379,0-0.686,0.307-0.687,0.686v5.773c0,0.378,0.307,0.686,0.687,0.686h12.937
	c0.379,0,0.686-0.308,0.686-0.686l0-5.773C121.909,44.877,121.603,44.57,121.224,44.57z"/>
<path fill="#4BA1D9" d="M247.567,123.021v-12.938c0-0.379-0.307-0.687-0.686-0.687h-5.773c-0.378,0-0.687,0.307-0.687,0.687v12.937
	c0,0.38,0.308,0.687,0.686,0.687h5.773C247.261,123.707,247.567,123.4,247.567,123.021z"/>
<path fill="#EF382C" d="M135.355,38.564V25.627c0-0.379-0.307-0.687-0.686-0.687h-5.773c-0.378,0-0.687,0.307-0.687,0.687v12.937
	c0,0.38,0.308,0.687,0.686,0.687h5.773C135.049,39.25,135.355,38.943,135.355,38.564z"/>
<path fill="#4BA1D9" d="M160.861,18.447V5.51c0-0.379-0.307-0.687-0.686-0.687h-5.773c-0.378,0-0.687,0.307-0.687,0.687v12.937
	c0,0.38,0.308,0.687,0.686,0.687h5.773C160.554,19.133,160.861,18.826,160.861,18.447z"/>
<path fill="#4BA1D9" d="M11.133,19.423V6.486c0-0.379-0.307-0.687-0.686-0.687H4.674c-0.378,0-0.687,0.307-0.687,0.687v12.937
	c0,0.38,0.308,0.687,0.686,0.687h5.773C10.827,20.109,11.133,19.802,11.133,19.423z"/>
<path fill="#EF382C" d="M38.104,39.124l-9.148-9.148c-0.268-0.268-0.703-0.269-0.97,0l-4.083,4.083
	c-0.268,0.267-0.269,0.702,0,0.971l9.147,9.147c0.269,0.269,0.703,0.268,0.971,0l4.082-4.082
	C38.373,39.825,38.373,39.392,38.104,39.124z"/>
<path fill="#EF382C" d="M40.51,13.721l-9.148-9.148c-0.268-0.268-0.703-0.269-0.97,0l-4.083,4.083c-0.268,0.267-0.269,0.702,0,0.971
	l9.147,9.147c0.269,0.269,0.703,0.268,0.971,0l4.082-4.082C40.778,14.423,40.778,13.989,40.51,13.721z"/>
<path fill="#F49E1E" d="M243.355,166.894l-9.148-9.148c-0.268-0.268-0.703-0.269-0.97,0l-4.083,4.083
	c-0.268,0.267-0.269,0.702,0,0.971l9.147,9.147c0.269,0.269,0.703,0.268,0.971,0l4.082-4.082
	C243.624,167.595,243.624,167.162,243.355,166.894z"/>
<path fill="#F49E1E" d="M195.38,18.447V5.51c0-0.379-0.307-0.687-0.686-0.687h-5.773c-0.378,0-0.687,0.307-0.687,0.687v12.937
	c0,0.38,0.308,0.687,0.686,0.687h5.773C195.074,19.133,195.38,18.826,195.38,18.447z"/>
<path fill="#4BA1D9" d="M92.66,38.564V25.627c0-0.379-0.307-0.687-0.686-0.687h-5.773c-0.378,0-0.687,0.307-0.687,0.687v12.937
	c0,0.38,0.308,0.687,0.686,0.687h5.773C92.353,39.25,92.66,38.943,92.66,38.564z"/>
<path fill="#4BA1D9" d="M134.556,160.759v-12.938c0-0.379-0.307-0.687-0.686-0.687h-5.773c-0.378,0-0.687,0.307-0.687,0.687v12.937
	c0,0.38,0.308,0.687,0.686,0.687h5.773C134.25,161.444,134.556,161.138,134.556,160.759z"/>
<path fill="#EF382C" d="M195.38,123.021v-12.938c0-0.379-0.307-0.687-0.686-0.687h-5.773c-0.378,0-0.687,0.307-0.687,0.687v12.937
	c0,0.38,0.308,0.687,0.686,0.687h5.773C195.074,123.707,195.38,123.4,195.38,123.021z"/>
<path fill="#F49E1E" d="M83.793,131.989v-12.938c0-0.379-0.307-0.687-0.686-0.687h-5.773c-0.378,0-0.687,0.307-0.687,0.687v12.937
	c0,0.38,0.308,0.687,0.686,0.687h5.773C83.486,132.674,83.793,132.368,83.793,131.989z"/>
<path fill="#4BA1D9" d="M65.383,85.928V72.991c0-0.379-0.307-0.687-0.686-0.687h-5.773c-0.378,0-0.687,0.307-0.687,0.687v12.937
	c0,0.38,0.308,0.687,0.686,0.687h5.773C65.076,86.614,65.383,86.307,65.383,85.928z"/>
<path fill="#F49E1E" d="M223.049,139.372l-19.267,19.267c-0.268,0.268-0.268,0.702,0,0.971l4.083,4.082
	c0.268,0.267,0.702,0.269,0.97,0l19.267-19.267c0.268-0.268,0.268-0.703,0-0.97l-4.082-4.083
	C223.751,139.104,223.316,139.104,223.049,139.372z"/>
<path fill="#F49E1E" d="M104.582,86.561l-27.248,0c-0.379,0-0.686,0.307-0.687,0.686v5.773c0,0.378,0.307,0.686,0.687,0.686
	l27.247,0c0.379,0,0.686-0.308,0.686-0.686l0-5.773C105.267,86.868,104.96,86.561,104.582,86.561z"/>
<path fill="#EF382C" d="M152.149,170.812l-27.248,0c-0.379,0-0.686,0.307-0.687,0.686v5.773c0,0.378,0.307,0.686,0.687,0.686
	l27.247,0c0.379,0,0.686-0.308,0.686-0.686l0-5.773C152.834,171.12,152.527,170.812,152.149,170.812z"/>
<path fill="#EF382C" d="M223.315,170.812l-27.248,0c-0.379,0-0.686,0.307-0.687,0.686v5.773c0,0.378,0.307,0.686,0.687,0.686
	l27.247,0c0.379,0,0.686-0.308,0.686-0.686l0-5.773C224,171.12,223.693,170.812,223.315,170.812z"/>
<path fill="#EF382C" d="M247.568,85.691l-0.001-27.247c0-0.38-0.307-0.687-0.686-0.687h-5.773c-0.378,0-0.687,0.307-0.687,0.687
	l0.001,27.247c0,0.379,0.308,0.686,0.686,0.686l5.773,0.001C247.26,86.377,247.568,86.07,247.568,85.691z"/>
<path fill="#EF382C" d="M11.167,95.016l-0.001-27.247c0-0.38-0.307-0.687-0.686-0.687H4.707c-0.378,0-0.687,0.307-0.687,0.687
	l0.001,27.247c0,0.379,0.308,0.686,0.686,0.686l5.773,0.001C10.859,95.702,11.167,95.395,11.167,95.016z"/>
<path fill="#4BA1D9" d="M195.381,85.875l-0.001-27.247c0-0.38-0.307-0.687-0.686-0.687h-5.773c-0.378,0-0.687,0.307-0.687,0.687
	l0.001,27.247c0,0.379,0.308,0.686,0.686,0.686l5.773,0.001C195.073,86.56,195.381,86.253,195.381,85.875z"/>
<path fill="#EF382C" d="M63.552,161.397l-19.267-19.266c-0.269-0.269-0.702-0.269-0.97,0l-4.083,4.083
	c-0.267,0.267-0.269,0.702,0,0.971L58.5,166.45c0.268,0.268,0.702,0.267,0.969,0l4.083-4.082
	C63.82,162.099,63.82,161.665,63.552,161.397z"/>
<path fill="#F49E1E" d="M194.695,141.02l-27.248,0c-0.379,0-0.686,0.307-0.687,0.686v5.773c0,0.378,0.307,0.686,0.687,0.686
	l27.247,0c0.379,0,0.686-0.308,0.686-0.686l0-5.773C195.38,141.327,195.073,141.02,194.695,141.02z"/>
<path fill="#EF382C" d="M156.106,44.541l-27.248,0c-0.379,0-0.686,0.307-0.687,0.686V51c0,0.378,0.307,0.686,0.687,0.686l27.247,0
	c0.379,0,0.686-0.308,0.686-0.686l0-5.773C156.792,44.848,156.484,44.541,156.106,44.541z"/>
<g>
	<path fill="#3C3640" d="M56.616,85.116h-4.042v16.816H48.49V85.116h-2.321v-3.123h2.321v-3.124c0-1.574,0.454-2.883,1.361-3.924
		c1.014-1.147,2.415-1.722,4.203-1.722h2.562v3.483h-1.801c-1.495,0-2.241,0.788-2.241,2.362v2.924h4.042V85.116z"/>
	<path fill="#3C3640" d="M84.278,101.933h-4.084v-2.042c-1.379,1.521-3.169,2.282-5.369,2.282c-2.068,0-3.726-0.613-4.972-1.842
		c-1.353-1.335-2.029-3.243-2.029-5.726V81.633h4.084v12.372c0,1.496,0.4,2.644,1.201,3.443c0.72,0.721,1.681,1.081,2.882,1.081
		c1.228,0,2.235-0.381,3.022-1.142c0.787-0.76,1.181-1.887,1.181-3.383V81.633h4.084V101.933z"/>
	<path fill="#3C3640" d="M106.256,101.933h-2.442c-1.788,0-3.189-0.573-4.203-1.722c-0.907-1.041-1.361-2.349-1.361-3.923V85.116
		h-2.321v-3.123h2.321v-6.167h4.084v6.167h3.923v3.123h-3.923v10.972c0,1.574,0.746,2.361,2.241,2.361h1.682V101.933z"/>
	<path fill="#3C3640" d="M134.719,101.933h-4.084v-2.042c-1.379,1.521-3.169,2.282-5.369,2.282c-2.068,0-3.726-0.613-4.972-1.842
		c-1.353-1.335-2.029-3.243-2.029-5.726V81.633h4.084v12.372c0,1.496,0.4,2.644,1.201,3.443c0.72,0.721,1.681,1.081,2.882,1.081
		c1.228,0,2.235-0.381,3.022-1.142c0.787-0.76,1.181-1.887,1.181-3.383V81.633h4.084V101.933z"/>
	<path fill="#3C3640" d="M162.419,83.314l-3.106,3.083c-0.915-0.907-1.938-1.361-3.066-1.361c-1.157,0-2.126,0.42-2.904,1.261
		c-0.78,0.841-1.17,1.942-1.17,3.304v12.332h-4.004v-20.3h4.004v2.202c1.174-1.628,2.975-2.442,5.403-2.442
		C159.522,81.393,161.138,82.033,162.419,83.314z"/>
	<path fill="#3C3640" d="M188.921,92.964H175.79c0,1.762,0.445,3.15,1.337,4.164c0.891,1.015,2.161,1.521,3.811,1.521
		c1.89,0,3.525-0.694,4.908-2.081l2.595,2.441c-1.095,1.095-2.176,1.882-3.243,2.362c-1.201,0.534-2.655,0.801-4.363,0.801
		c-6.085,0-9.127-3.47-9.127-10.41c0-3.256,0.773-5.799,2.321-7.628c1.548-1.828,3.644-2.742,6.285-2.742
		c2.669,0,4.79,0.907,6.365,2.723c1.494,1.762,2.242,4.111,2.242,7.047V92.964z M184.877,90.121
		c-0.026-1.041-0.212-1.962-0.558-2.763c-0.718-1.708-2.046-2.562-3.985-2.562c-1.967,0-3.309,0.854-4.026,2.562
		c-0.318,0.721-0.491,1.642-0.518,2.763H184.877z"/>
	<path fill="#3C3640" d="M216.382,95.728c0,2.055-0.781,3.643-2.342,4.764c-1.562,1.121-3.597,1.682-6.105,1.682
		c-3.71,0-6.552-0.975-8.526-2.923l2.682-2.682c1.388,1.414,3.336,2.121,5.845,2.121c2.963,0,4.444-0.935,4.444-2.802
		c0-1.442-0.908-2.243-2.723-2.403l-3.242-0.28c-4.004-0.347-6.005-2.215-6.005-5.605c0-1.922,0.746-3.457,2.241-4.604
		c1.414-1.067,3.216-1.602,5.404-1.602c3.283,0,5.791,0.761,7.526,2.282l-2.562,2.603c-1.174-0.987-2.842-1.481-5.004-1.481
		c-2.455,0-3.683,0.867-3.683,2.603c0,1.389,0.934,2.162,2.802,2.322l3.203,0.28C214.366,90.349,216.382,92.257,216.382,95.728z"/>
</g>
</svg>
