<?xml version="1.0" encoding="utf-8"?>
<!-- Generator: Adobe Illustrator 16.0.0, SVG Export Plug-In . SVG Version: 6.00 Build 0)  -->
<!DOCTYPE svg PUBLIC "-//W3C//DTD SVG 1.1//EN" "http://www.w3.org/Graphics/SVG/1.1/DTD/svg11.dtd">
<svg version="1.1" xmlns="http://www.w3.org/2000/svg" xmlns:xlink="http://www.w3.org/1999/xlink" x="0px" y="0px" width="250px"
	 height="180.333px" viewBox="0 0 250 180.333" enable-background="new 0 0 250 180.333" xml:space="preserve">
<g id="Layer_1">
	<g>
		<path fill-rule="evenodd" clip-rule="evenodd" fill="#EF382C" d="M247.699,79.995c0.023-2.978-0.01-5.957-0.033-8.936
			c-0.004-0.387,0.064-0.854-0.117-1.145c-0.482-0.761-0.357-1.444-0.066-2.216c0.166-0.437,0.186-0.963,0.137-1.434
			c-0.057-0.556-0.344-1.034-0.988-1.097c-1.598-0.156-3.197-0.235-4.928,0.061c0,0.427-0.002,0.665,0,0.905
			c0.021,4.883,0.041,9.766,0.068,14.648c0.01,1.414-0.205,2.895,0.141,4.225c0.336,1.282,0.445,2.383-0.02,3.629
			c-0.391,1.054,0.139,1.676,1.271,1.705c0.781,0.02,1.562-0.01,2.344-0.026c1.422-0.03,1.805-0.339,1.643-1.734
			c-0.232-2.023,0.447-4.009,0.133-6.022c-0.021-0.137,0.045-0.287,0.07-0.431C247.475,81.417,247.691,80.707,247.699,79.995z"/>
		<path fill-rule="evenodd" clip-rule="evenodd" fill="#EF382C" d="M193.684,110.021c-1.459,0.004-2.916,0.001-4.514,0.001
			c-0.061,0.589-0.154,1.104-0.158,1.62c-0.014,1.901-0.01,3.801,0.012,5.702c0.025,2.343,0.088,4.686,0.109,7.028
			c0.004,0.57,0.189,1.027,0.768,1.044c1.537,0.041,3.102,0.312,4.518-0.233c0.098-0.153,0.146-0.192,0.146-0.233
			c0.02-4.688,0.037-9.374,0.047-14.061C194.615,110.273,194.271,110.02,193.684,110.021z"/>
		<path fill-rule="evenodd" clip-rule="evenodd" fill="#EF382C" d="M34.392,14.435c0.916,0.891,1.418,0.789,2.441,0.027
			c0.463-0.345,0.902-0.726,1.32-1.122c0.814-0.773,0.797-1.1,0.039-1.91c-1.309-1.4-2.676-2.76-3.879-4.249
			c-0.779-0.965-1.795-1.501-2.768-2.227c-1.158,0.972-2.248,1.886-3.49,2.928C30.263,10.181,32.269,12.368,34.392,14.435z"/>
		<path fill-rule="evenodd" clip-rule="evenodd" fill="#EF382C" d="M52.858,153.189c-1.844-1.962-3.754-3.861-5.605-5.819
			c-0.791-0.837-1.48-1.773-2.264-2.621c-0.529-0.575-1.047-1.222-1.953-1.259c-1.023,0.949-2.051,1.902-3.219,2.985
			c0.555,0.673,1.004,1.304,1.541,1.848c1.17,1.186,2.439,2.274,3.564,3.499c1.629,1.769,3.145,3.639,4.746,5.433
			c1.289,1.446,2.623,2.854,3.959,4.258c0.723,0.758,1.08,0.843,1.746,0.28c0.934-0.789,1.787-1.67,2.658-2.496
			c-0.402-0.59-0.652-1.058-0.996-1.448C55.661,156.279,54.286,154.709,52.858,153.189z"/>
		<path fill-rule="evenodd" clip-rule="evenodd" fill="#EF382C" d="M64.72,119.636c-0.088-0.562-0.248-1.111-0.418-1.836
			c-2.168,0-4.113,0.006-6.061-0.003c-3.008-0.013-6.018-0.02-9.025-0.07c-0.672-0.012-1.023,0.217-1.07,0.876
			c-0.059,0.876-0.176,1.757-0.127,2.628c0.035,0.638,0.291,1.265,0.455,1.918c0.973,0,1.754-0.002,2.535,0
			c2.389,0.011,4.777,0.015,7.166,0.037c1.463,0.015,2.93,0.165,4.385,0.068c2.189-0.145,2.186-0.214,2.17-2.448
			C64.728,120.415,64.778,120.018,64.72,119.636z"/>
		<path fill-rule="evenodd" clip-rule="evenodd" fill="#EF382C" d="M10.312,83.799c0.016-0.041-0.012-0.096-0.014-0.145
			c-0.076-1.72-0.184-3.438-0.215-5.159c-0.01-0.672,0.211-1.345,0.219-2.018c0.025-2.148,0.006-4.296-0.014-6.443
			c-0.012-1.174-0.256-1.435-1.459-1.496c-0.973-0.049-1.953-0.02-2.926-0.041c-0.664-0.016-1.006,0.286-1.025,0.947
			c-0.01,0.293-0.018,0.586-0.014,0.879c0.07,4.285,0.141,8.57,0.213,12.856c0.008,0.001,0.014,0.001,0.02,0.001
			c0,1.952-0.016,3.902,0.006,5.854c0.014,1.274,0.182,1.408,1.471,1.384c0.73-0.013,1.463-0.03,2.195-0.029
			c1.268,0.003,1.471-0.209,1.547-1.534C10.411,87.169,9.729,85.486,10.312,83.799z"/>
		<path fill-rule="evenodd" clip-rule="evenodd" fill="#EF382C" d="M29.704,32.066c-0.842-0.848-1.713-1.669-2.539-2.529
			c-0.463-0.482-0.891-0.52-1.377-0.069c-0.746,0.689-1.506,1.365-2.24,2.066c-0.787,0.749-0.812,1.072-0.098,1.78
			c2.73,2.715,5.479,5.412,8.219,8.12c1.053,1.041,2.123,2.065,3.135,3.146c0.535,0.57,0.918,0.551,1.432-0.01
			c0.873-0.947,1.797-1.846,2.838-2.908c-1.625-1.68-3.104-3.223-4.594-4.751C32.896,35.287,31.3,33.676,29.704,32.066z"/>
		<path fill-rule="evenodd" clip-rule="evenodd" fill="#EF382C" d="M225.251,171.601c-1.02-0.019-2.043,0.159-3.063,0.165
			c-3.209,0.021-6.417,0.001-9.624,0.003c-4.402,0-8.805,0.005-13.208,0.007c-1.31,0.002-2.621,0-4.119,0
			c0,1.562-0.049,2.967,0.021,4.367c0.034,0.704,0.657,1.049,1.497,1.028c2.442-0.06,4.887-0.11,7.33-0.172
			c1.853-0.046,3.702-0.142,5.555-0.145c2.094-0.001,4.188,0.086,6.281,0.116c2.388,0.034,4.775,0.059,7.161,0.07
			c0.782,0.004,1.566-0.028,2.346-0.08c0.725-0.048,1.184-0.41,1.226-1.184c0.046-0.83,0.114-1.657,0.13-2.487
			C226.811,171.866,226.624,171.625,225.251,171.601z"/>
		<path fill-rule="evenodd" clip-rule="evenodd" fill="#EF382C" d="M139.125,172.915c-2.496-0.066-4.991,0.064-7.483-0.012
			c-2.46-0.075-4.917-0.12-7.461,0.109c0,1.142-0.031,2.242,0.008,3.34c0.049,1.392,0.254,1.566,1.681,1.569
			c6.696,0.009,13.392,0.016,20.088,0.017c0.274,0,0.55-0.06,0.886-0.099c0-1.635,0-3.19,0-4.91
			C144.163,172.93,141.643,172.983,139.125,172.915z"/>
		<path fill-rule="evenodd" clip-rule="evenodd" fill="#EF382C" d="M170.48,84.349c-1.605,0.008-3.211,0.015-4.818,0.004
			c-1.213-0.008-2.426-0.042-3.641-0.058c-0.707-0.009-1.082,0.314-1.092,1.058c-0.012,0.778-0.1,1.558-0.105,2.336
			c-0.01,1.54,0.508,2.071,2.096,2.089c2.387,0.025,4.773,0.007,7.158,0.007c0.531,0,1.064,0,1.836,0
			c0-1.484,0.02-2.783-0.004-4.082C171.893,84.651,171.539,84.345,170.48,84.349z"/>
		<path fill-rule="evenodd" clip-rule="evenodd" fill="#EF382C" d="M155.83,48.197c-2.189-0.01-4.377,0.023-6.566,0.016
			c-5.115-0.021-10.232-0.059-15.348-0.083c-1.217-0.007-2.432,0.01-3.646,0.014c-0.547,0-1.15-0.009-1.314,0.64
			c-0.223,0.881-0.461,1.799,0.201,2.628c-0.016,0.146-0.041,0.291-0.045,0.438c-0.045,1.565,0.211,1.787,1.756,1.76
			c1.465-0.026,2.93,0.035,4.395,0.039c5.625,0.011,11.248,0.019,16.873,0.015c1.602-0.002,3.205-0.044,4.912-0.068
			c0.229-1.715,0.264-3.277,0.002-4.848C156.846,48.115,156.297,48.199,155.83,48.197z"/>
		<path fill-rule="evenodd" clip-rule="evenodd" fill="#EF382C" d="M133.322,37.306c0-4.557,0-9.063,0-13.671
			c-1.627,0-3.148,0-4.678,0c0,4.693,0,9.197,0,13.705C130.266,37.834,131.738,37.497,133.322,37.306z"/>
		<path fill-rule="evenodd" clip-rule="evenodd" fill="#EF382C" d="M204.408,34.642l-0.01,0.009c-0.389-0.001-0.6,0.175-0.566,0.583
			l-0.014,0.016c-0.842,0.047-0.877,0.677-0.521,1.093c0.664,0.773,1.502,1.398,2.268,2.086l0.006,0.006
			c0.352,1.151,0.361,1.166,1.242,0.621c0.73-0.453,1.492-0.883,2.129-1.449c0.596-0.527,1.041-1.218,1.555-1.837
			c2.814-2.566,6.053-4.666,8.539-7.544c-0.096-0.265-0.113-0.425-0.199-0.531c-0.551-0.664-1.055-1.379-1.684-1.957
			c-1.389-1.275-1.498-1.238-2.859-0.05c-3.145,2.745-6.211,5.578-9.309,8.375C204.559,34.023,204.406,34.257,204.408,34.642z"/>
		<path fill-rule="evenodd" clip-rule="evenodd" fill="#EF382C" d="M199.406,10.777c1.854,0.016,3.707,0.004,5.562,0.004
			c0,0.005,0,0.009,0,0.014c2.002,0,4.004,0.013,6.004-0.006c0.922-0.01,1.217-0.324,1.205-1.233
			c-0.006-0.536-0.049-1.072-0.088-1.607c-0.152-2.067-0.154-2.067-2.283-2.14c-0.047-0.002-0.098-0.006-0.145-0.006
			c-2.279-0.044-4.557-0.094-6.834-0.131c-1.303-0.021-2.605-0.021-3.908-0.04c-0.639-0.008-1.178,0.461-1.207,1.158
			c-0.033,0.779,0.002,1.562,0.016,2.343C197.748,10.243,198.264,10.767,199.406,10.777z"/>
	</g>
	<path fill-rule="evenodd" clip-rule="evenodd" fill="#F49E1E" d="M83.187,119.484c0.012-0.195-0.006-0.391-0.002-0.586
		c0.008-0.67-0.332-0.982-0.992-0.981c-0.781,0.003-1.562-0.012-2.346-0.008c-2.387,0.012-2.578-0.577-2.59,2.508
		c-0.021,6.101-0.025,12.202-0.025,18.304c0,0.329,0.092,0.66,0.166,1.155c1.715,0.157,3.4,0.104,5.322,0.023
		c0.145-0.881,0.275-1.64,0.391-2.401c0.293-1.931-0.232-3.84-0.047-5.797C83.45,127.645,82.913,123.558,83.187,119.484z"/>
	<path fill-rule="evenodd" clip-rule="evenodd" fill="#F49E1E" d="M129.287,110.061c-0.484,1.832-0.139,3.561-0.232,5.38
		c1.018,0.153,1.912,0.371,2.814,0.405c1.805,0.069,3.611,0.041,5.416,0.045c3.17,0.004,6.344-0.002,9.516,0.008
		c0.57,0.003,1.174-0.01,1.199-0.732c0.053-1.549,0.016-3.102,0.016-4.713C141.676,109.925,135.523,110.148,129.287,110.061z"/>
	<path fill-rule="evenodd" clip-rule="evenodd" fill="#F49E1E" d="M228.217,5.936c0,1.374,0,2.716,0,4.161
		c1.654,0.244,3.066,0.587,4.488,0.632c2.98,0.098,5.963,0.048,8.947,0.038c1.594-0.003,3.189-0.046,4.879-0.072
		c0-1.658,0-3.14,0-4.698c-3.709-0.175-7.295-0.412-10.887-0.491C233.176,5.449,230.684,5.344,228.217,5.936z"/>
	<path fill-rule="evenodd" clip-rule="evenodd" fill="#F49E1E" d="M105.433,86.689c-5.818-0.042-11.635-0.073-17.451-0.117
		c-1.158-0.008-2.316-0.039-3.475-0.087c-1.895-0.079-3.789-0.208-5.684-0.263c-1.111-0.033-1.562,0.46-1.578,1.604
		c-0.014,0.88-0.004,1.76,0.012,2.641c0.025,1.394,0.221,1.612,1.59,1.619c6.994,0.039,13.986,0.058,20.98,0.1
		c1.855,0.011,3.713,0.035,5.564,0.142c0.83,0.051,1.121,0.015,1.145-0.726c0.049-1.552,0.014-3.106,0.014-4.789
		C106.003,86.75,105.718,86.692,105.433,86.689z M81.804,89.509c-0.549,0.347-1.133,0.639-1.738,0.969
		c-0.176-0.163-0.395-0.271-0.414-0.409c-0.031-0.211-0.002-0.556,0.133-0.644c0.432-0.286,0.91-0.517,1.398-0.687
		c0.162-0.057,0.463,0.093,0.604,0.241C81.884,89.08,81.886,89.458,81.804,89.509z"/>
	<path fill-rule="evenodd" clip-rule="evenodd" fill="#F49E1E" d="M37.722,59.704c-0.24-0.001-0.543-0.05-0.713,0.07
		c-0.291,0.204-0.686,0.509-0.715,0.802c-0.092,0.913-0.084,1.845-0.016,2.762c0.057,0.755,0.594,1.217,1.34,1.225
		c3.07,0.03,6.139,0.044,9.209,0.043c0.275,0,0.549-0.149,0.896-0.253c0-1.476,0-2.918,0-4.494
		c-0.443-0.038-0.682-0.073-0.918-0.076C43.778,59.752,40.751,59.727,37.722,59.704z"/>
	<path fill-rule="evenodd" clip-rule="evenodd" fill="#F49E1E" d="M215.77,89.537c0.064,0.416,0.402,0.672,0.99,0.577
		c1.1-0.175,2.223-0.25,3.34-0.273c1.504-0.033,3.008,0.033,4.51,0.03c0.363,0,0.729-0.101,1.078-0.154c0-1.445,0-2.75,0-4.189
		c-3.502,0-6.838,0-10.365,0C215.473,86.959,215.564,88.257,215.77,89.537z"/>
	<path fill-rule="evenodd" clip-rule="evenodd" fill="#F49E1E" d="M76.849,6.555c-0.627-0.663-1.336-1.247-1.988-1.891
		c-0.146-0.146-0.203-0.389-0.301-0.587c-0.393,0-0.783,0-1.174,0c-0.062,0.209-0.057,0.49-0.195,0.616
		c-1.518,1.416-3.062,2.808-4.596,4.207c-2.145,1.957-4.291,3.913-6.43,5.874c-0.432,0.396-0.836,0.818-1.258,1.226
		c-0.461,0.448-0.531,0.958-0.084,1.417c0.768,0.791,1.561,1.561,2.402,2.27c0.182,0.154,0.715,0.147,0.904-0.007
		c1.066-0.877,2.111-1.79,3.104-2.75c1.178-1.143,2.238-2.412,3.459-3.509c1.967-1.771,4.023-3.442,6.037-5.166
		C77.413,7.668,77.466,7.211,76.849,6.555z"/>
	<path fill-rule="evenodd" clip-rule="evenodd" fill="#F49E1E" d="M192.645,141.943c-2.737-0.017-5.478-0.098-8.21-0.009
		c-4.728,0.154-9.468-0.384-14.182,0.306c-0.188,0.027-0.387-0.048-0.58-0.056c-1.702-0.07-3.402-0.174-5.102-0.186
		c-0.815-0.005-1.144,0.452-1.124,1.208c0.02,0.72,0.03,1.441-0.006,2.159c-0.061,1.205,0.468,1.853,1.653,1.933
		c0.339,0.021,0.683-0.006,1.024-0.006c2.966-0.007,5.932-0.014,8.897-0.017c2.933-0.003,5.865,0,8.798,0
		c0.488-0.002,0.976-0.002,1.465-0.002c2.539,0.002,5.08,0.019,7.62-0.004c1-0.009,1.279-0.353,1.238-1.348
		c-0.035-0.879-0.072-1.756-0.104-2.633C193.992,142.122,193.83,141.949,192.645,141.943z"/>
	<path fill-rule="evenodd" clip-rule="evenodd" fill="#F49E1E" d="M220.295,143.021c-0.245,0.399-0.52,0.798-0.852,1.124
		c-0.72,0.704-1.529,1.318-2.224,2.045c-2.811,2.939-5.308,6.165-8.266,8.974c-0.639,0.608-1.073,1.429-1.595,2.138
		c1.226,1.156,2.298,2.169,3.519,3.319c2.414-2.595,4.763-4.973,6.944-7.495c2.169-2.511,4.758-4.658,6.702-7.518
		c-1.048-1.006-1.992-1.969-3.001-2.86C220.964,142.254,220.688,142.377,220.295,143.021z"/>
	<path fill-rule="evenodd" clip-rule="evenodd" fill="#F49E1E" d="M235.779,160.597c-1.315-1.282-2.641-2.556-3.978-3.814
		c-0.591-0.556-1.068-0.556-1.512-0.024c-0.826,0.991-1.627,2.002-2.613,3.222c1.452,1.406,2.815,2.94,4.399,4.195
		c1.116,0.882,2.1,1.879,3.114,2.848c1.071,1.022,1.805,2.367,3,3.286c0.494,0.381,1.166,0.658,1.448,1.157
		c0.57,1.011,1.575,1.271,2.431,1.862c0.695-0.785,1.325-1.52,1.98-2.231c1.058-1.149,1.065-1.335-0.099-2.481
		C241.231,165.938,238.509,163.264,235.779,160.597z"/>
	<path fill-rule="evenodd" clip-rule="evenodd" fill="#F49E1E" d="M17.757,141.442c-0.963,0.131-1.936,0.239-2.906,0.253
		c-2.246,0.033-4.496,0.003-6.744,0.004c-0.439,0.001-0.879,0.024-1.314,0.065c-0.75,0.07-1.154,0.47-1.129,1.25
		c0.023,0.586,0.039,1.173,0.053,1.759c0.045,1.791,0.402,2.162,2.156,2.167c3.324,0.009,6.646,0.015,9.971,0
		c0.516-0.003,1.031-0.128,1.836-0.236c-0.232-1.703-0.395-3.175-0.652-4.63C18.909,141.417,18.362,141.361,17.757,141.442z"/>
	<path fill-rule="evenodd" clip-rule="evenodd" fill="#F49E1E" d="M16.591,106.729c0.852-0.015,1.062-0.278,1.123-1.178
		c0.059-0.826,0.049-1.655,0.08-2.483c0.049-1.318-0.26-1.677-1.561-1.693c-1.559-0.021-3.119-0.006-4.68-0.006c0,0,0-0.002,0-0.004
		c-1.656,0-3.314-0.016-4.971,0.008c-0.955,0.015-1.428,0.47-1.463,1.412c-0.035,0.876-0.025,1.756,0.012,2.632
		c0.035,0.819,0.551,1.373,1.371,1.375C9.866,106.799,13.228,106.779,16.591,106.729z"/>
	<path fill-rule="evenodd" clip-rule="evenodd" fill="#F49E1E" d="M14.927,52.402c2.508,0.049,2.881-0.311,2.793-2.834
		c-0.057-1.602-0.352-1.936-2.006-1.946c-3.42-0.027-6.844-0.052-10.264-0.07c-0.432-0.003-0.863,0.035-1.541,0.066
		c0,1.105-0.012,2.025,0.004,2.945c0.02,1.495,0.41,1.888,1.924,1.883C8.866,52.435,11.897,52.345,14.927,52.402z"/>
	<path fill-rule="evenodd" clip-rule="evenodd" fill="#F49E1E" d="M188.193,14.482c0.033,1.192,0.066,2.385,0.506,3.598
		c1.199,0,2.32,0.018,3.441-0.005c0.854-0.019,1.111-0.248,1.189-1.136c0.064-0.728,0.049-1.464,0.037-2.197
		c-0.039-2.582-0.096-5.165-0.139-7.746c-0.012-0.673-0.305-1.041-1.072-1.084c-0.975-0.057-1.957-0.054-2.934-0.013
		c-0.785,0.032-1.215,0.414-1.223,1.161c-0.014,1.366,0.068,2.735,0.107,4.103C188.139,12.269,188.162,13.375,188.193,14.482z"/>
	<path fill-rule="evenodd" clip-rule="evenodd" fill="#E04C9B" d="M80.065,90.478c-0.176-0.163-0.395-0.271-0.414-0.409
		c-0.031-0.211-0.002-0.556,0.133-0.644c0.432-0.286,0.91-0.517,1.398-0.687c0.162-0.057,0.463,0.093,0.604,0.241
		c0.098,0.1,0.1,0.478,0.018,0.529C81.255,89.856,80.671,90.148,80.065,90.478z"/>
	<path fill="#4BA1D9" d="M134.556,157.447c0.038-2.879,0.034-5.759,0.034-8.638c-0.001-1.04-0.486-1.685-1.497-1.821
		c-1.059-0.144-2.135-0.199-3.205-0.208c-0.955-0.009-1.215,0.276-1.228,1.224c-0.008,0.632,0.126,1.265,0.105,1.896
		c-0.089,2.87-0.211,5.74-0.32,8.61c0.014,0.001,0.026,0.002,0.042,0.004c0,2.194-0.003,4.392,0,6.586
		c0.005,1.355,0.37,1.736,1.731,1.757c1.015,0.015,2.03-0.025,3.046-0.021c0.706,0.003,1.195-0.49,1.254-1.009
		c0.124-1.103,0.307-2.356-0.096-3.314c-0.425-1.018-0.324-1.842-0.137-2.793C134.435,158.973,134.547,158.206,134.556,157.447z"/>
	<path fill="#4BA1D9" d="M193.232,74.579c-0.35-2.228,0.475-4.472-0.328-6.647c-0.076-0.206,0.031-0.479,0.053-0.722
		c0.037-0.438,0.102-0.874,0.107-1.312c0.014-1.054-0.215-1.328-1.244-1.349c-0.828-0.017-1.658,0.06-2.484,0.112
		c-0.463,0.03-0.924,0.097-1.475,0.156c0,0.979,0.012,1.802,0,2.624c-0.043,2.504,0.908,5.007,0.004,7.515
		c-0.062,0.174-0.023,0.387-0.021,0.582c0.049,3.213,0.119,6.425,0.139,9.637c0.008,1.315-0.105,2.63-0.133,3.946
		c-0.014,0.556,0.072,1.143,0.805,1.159c1.404,0.031,2.809,0.009,4.291,0.009c0.105-1.038,0.254-1.857,0.26-2.676
		c0.018-2.271-0.049-4.544-0.035-6.815C193.184,78.722,193.547,76.599,193.232,74.579z"/>
	<path fill="#4BA1D9" d="M35.513,159.902c-0.41-0.439-0.791-0.336-1.109,0.037c-0.502,0.589-0.951,1.223-1.412,1.845
		c-0.172,0.231-0.266,0.61-0.482,0.7c-1.834,0.741-2.787,2.485-4.211,3.691c-2.064,1.754-3.893,3.787-5.791,5.734
		c-0.59,0.605-1.068,1.317-1.588,1.967c0.729,1.66,1.91,2.844,3.236,3.969c0.314-0.258,0.627-0.48,0.898-0.742
		c2.758-2.651,5.553-5.269,8.25-7.98c1.574-1.579,3.027-3.282,4.461-4.992c0.674-0.803,0.629-1.188-0.025-1.934
		C37.04,161.396,36.241,160.682,35.513,159.902z"/>
	<path fill="#4BA1D9" d="M229.5,51.777c5.273,0.068,10.547,0.157,15.82,0.226c0.221,0.004,0.445-0.105,0.631-0.154
		c0.668-3.602,0.668-3.602-0.221-4.962c-1.68,0-3.344,0.046-5.002-0.014c-1.832-0.064-3.66-0.279-5.492-0.333
		c-2.148-0.064-4.299-0.039-6.449-0.028c-1.137,0.007-1.588,0.48-1.59,1.59c-0.002,0.439,0.01,0.879,0.01,1.319
		C227.203,51.262,227.703,51.754,229.5,51.777z"/>
	<path fill="#4BA1D9" d="M245.539,106.801c-0.682,0.292-1.307,0.249-1.986,0.038c-0.27-0.084-0.631-0.059-0.893,0.053
		c-0.523,0.224-1.006,0.54-1.414,0.767c0,1.526-0.045,2.895,0.018,4.258c0.037,0.863,0.248,1.717,0.359,2.577
		c0.049,0.385,0.123,0.792,0.053,1.165c-0.203,1.095-0.121,2.162-0.023,3.265c0.121,1.4-0.061,2.825-0.061,4.24
		c0.002,0.658,0.125,1.317,0.199,2.028c1.637,0,3.09,0,4.844,0c0.041-0.802,0.107-1.52,0.109-2.236
		c0.012-3.421,0.02-6.841,0.01-10.262c-0.006-1.712-0.01-3.424-0.082-5.133C246.643,106.814,246.191,106.522,245.539,106.801z"/>
	<path fill="#4BA1D9" d="M9.327,5.448C8.401,5.386,7.474,5.308,6.548,5.332C5.276,5.364,4.874,5.746,4.845,7.018
		c-0.047,2.049-0.012,4.102-0.012,6.152c-0.02,0-0.037,0-0.057,0c0,1.904-0.006,3.81,0.002,5.715
		c0.008,1.442,0.232,1.668,1.715,1.691c0.869,0.013,1.74-0.004,2.609-0.024c0.617-0.014,1.037-0.381,1.125-0.947
		c0.111-0.7,0.104-1.423,0.104-2.136c0.012-3.616,0.01-7.231,0.016-10.848C10.349,5.925,10.038,5.495,9.327,5.448z"/>
	<path fill="#4BA1D9" d="M99.13,160.586c0.66-0.096,1.336-0.085,2.006-0.096c1.307-0.023,2.615,0.004,3.922-0.052
		c0.764-0.031,0.998-0.347,0.975-1.15c-0.01-0.486-0.08-0.972-0.104-1.256c0-0.84-0.01-1.476,0.002-2.111
		c0.008-0.459-0.182-0.81-0.635-0.835c-1.162-0.062-2.396-0.314-3.469-0.014c-1.068,0.301-2.131,0.209-3.156,0.28
		c-1.762,0.124-3.564-0.22-5.346-0.395c-0.957-0.095-1.51,0.298-1.543,1.258c-0.033,1.024-0.01,2.053,0.021,3.078
		c0.037,1.288,0.385,1.714,1.594,1.41C95.323,160.222,97.226,160.862,99.13,160.586z"/>
	<path fill="#4BA1D9" d="M113.731,53.542c2.439,0.062,4.879,0.035,7.32,0.014c1.146-0.01,1.365-0.212,1.422-1.364
		c0.057-1.108,0.012-2.221,0.012-3.487c-1.73,0.107-3.199-0.735-4.779-0.126c-0.297,0.114-0.676,0.035-1.018,0.021
		c-2.088-0.091-4.174-0.193-6.262-0.281c-0.666-0.028-0.996,0.34-1.002,0.981c-0.016,1.209-0.004,2.42-0.004,3.842
		C111.04,53.297,112.382,53.506,113.731,53.542z"/>
	<path fill="#4BA1D9" d="M159.5,7.712c-0.004-1.038-0.568-1.938-1.414-2.174c-1.172-0.328-2.479-0.428-3.744,0.022
		c0,4.123,0,8.194,0,12.52c1.449,0,2.666,0.025,3.881-0.008c0.984-0.025,1.449-0.591,1.404-1.586
		c-0.035-0.729-0.072-1.459-0.078-2.189C159.525,12.103,159.512,9.906,159.5,7.712z"/>
	<path fill="#4BA1D9" d="M128.641,89.164c1.516,0,2.969,0,4.609,0c0.061-0.752,0.143-1.329,0.143-1.907
		c0.016-2.589,0.006-5.18,0.006-7.771c0-0.634,0.033-1.271-0.002-1.905c-0.051-0.949-0.174-1.091-1.125-1.155
		c-0.875-0.06-1.756-0.044-2.633-0.043c-0.865,0.002-1.4,0.415-1.428,1.27c-0.039,1.266,0.049,2.533,0.076,3.801
		c0.035,1.732,0.18,3.475,0.053,5.196C128.273,87.562,128.338,88.363,128.641,89.164z"/>
	<path fill="#4BA1D9" d="M91.661,24.892c-1.324-0.02-2.582-0.06-3.84-0.052c-1.289,0.008-1.498,0.232-1.496,1.568
		c0.004,1.902,0.037,3.803,0.047,5.705c0.01,1.45,0.002,2.9,0.002,4.526c1.586,0.074,3.016,0.141,4.574,0.213
		c0.654-0.312,0.787-1.036,0.799-1.783c0.049-3.119,0.076-6.238,0.102-9.356C91.851,25.525,91.767,25.338,91.661,24.892z"/>
	<path fill="#4BA1D9" d="M60.308,85.552c1.248,0.026,2.502-0.128,3.857-0.21c0.041-0.623,0.092-1.097,0.098-1.57
		c0.018-1.512-0.033-3.025,0.043-4.534c0.049-0.954,0.369-1.896,0.4-2.849c0.074-2.145,0.051-4.292,0.055-6.438
		c0.002-1.005-0.367-1.405-1.398-1.437c-1.264-0.038-2.527-0.009-3.875-0.009c-0.096,0.368-0.291,0.698-0.242,0.989
		c0.426,2.565-0.918,5.134,0.068,7.721c0.213,0.559-0.113,1.329-0.205,2c-0.066,0.474-0.205,0.942-0.221,1.417
		c-0.037,1.121-0.031,2.245-0.023,3.367C58.87,85.118,59.171,85.525,60.308,85.552z"/>
	<path fill="#4BA1D9" d="M124.044,10.144c1.415,0.031,2.831,0.008,4.245,0.008c0,0.005,0,0.012,0,0.017
		c1.465,0,2.93,0.013,4.395-0.004c1.01-0.011,1.273-0.271,1.322-1.311c0.035-0.731,0.035-1.466,0.008-2.197
		c-0.037-0.933-0.266-1.254-1.234-1.273c-2.975-0.059-5.949-0.055-8.923-0.026c-0.789,0.008-1.121,0.399-1.178,1.204
		c-0.053,0.729-0.057,1.463-0.049,2.194C122.636,9.773,122.968,10.12,124.044,10.144z"/>
</g>
<g id="Layer_3">
	<path fill="#A09F9F" d="M99.529,160.75c0,0.378-0.308,0.686-0.687,0.686l-5.83,0c-0.379-0.001-0.687-0.308-0.687-0.687l0-5.773
		c0-0.379,0.307-0.686,0.687-0.686l5.83,0c0.378,0.001,0.686,0.307,0.686,0.686V160.75z"/>
	<path fill="#F49E1E" d="M83.241,142.058c0,0.378-0.308,0.686-0.687,0.686l-5.83,0c-0.379-0.001-0.687-0.308-0.687-0.687l0-5.773
		c0-0.379,0.307-0.686,0.687-0.686l5.83,0c0.378,0.001,0.686,0.307,0.686,0.686V142.058z"/>
	<path fill="#A09F9F" d="M134.408,84.414c0,0.378-0.308,0.686-0.687,0.686l-5.83,0c-0.379-0.001-0.687-0.308-0.687-0.687l0-5.773
		c0-0.379,0.307-0.686,0.687-0.686l5.83,0c0.378,0.001,0.686,0.307,0.686,0.686V84.414z"/>
	<path fill="#A09F9F" d="M43.418,65.036c0,0.378-0.308,0.686-0.687,0.686l-5.83,0c-0.379-0.001-0.687-0.308-0.687-0.687l0-5.773
		c0-0.379,0.307-0.686,0.687-0.686l5.83,0c0.378,0.001,0.686,0.307,0.686,0.686V65.036z"/>
	<path fill="#A09F9F" d="M229.289,11.102c0,0.378-0.308,0.686-0.687,0.686l-5.83,0c-0.379-0.001-0.687-0.308-0.687-0.687l0-5.773
		c0-0.379,0.307-0.686,0.687-0.686l5.83,0c0.378,0.001,0.686,0.307,0.686,0.686V11.102z"/>
	<path fill="#A09F9F" d="M205.685,11.011c0,0.378-0.308,0.686-0.687,0.686l-5.83,0c-0.379-0.001-0.687-0.308-0.687-0.687l0-5.773
		c0-0.379,0.307-0.686,0.687-0.686l5.83,0c0.378,0.001,0.686,0.307,0.686,0.686V11.011z"/>
	<path fill="#A09F9F" d="M228.125,90.464c0,0.378-0.308,0.686-0.687,0.686l-5.83,0c-0.379-0.001-0.687-0.308-0.687-0.687l0-5.773
		c0-0.379,0.307-0.686,0.687-0.686l5.83,0c0.378,0.001,0.686,0.307,0.686,0.686V90.464z"/>
	<path fill="#A09F9F" d="M246.891,44.555h-12.938c-0.379,0-0.686,0.307-0.687,0.686v5.773c0,0.378,0.307,0.686,0.687,0.686h12.937
		c0.379,0,0.686-0.308,0.686-0.686l0-5.773C247.576,44.862,247.27,44.555,246.891,44.555z"/>
	<path fill="#A09F9F" d="M169.906,84.005h-12.938c-0.379,0-0.686,0.307-0.687,0.686v5.773c0,0.378,0.307,0.686,0.687,0.686h12.937
		c0.379,0,0.686-0.308,0.686-0.686l0-5.773C170.591,84.312,170.285,84.005,169.906,84.005z"/>
	<path fill="#A09F9F" d="M246.891,4.643h-12.938c-0.379,0-0.686,0.307-0.687,0.686v5.773c0,0.378,0.307,0.686,0.687,0.686h12.937
		c0.379,0,0.686-0.308,0.686-0.686l0-5.773C247.576,4.95,247.27,4.643,246.891,4.643z"/>
	<path fill="#A09F9F" d="M134.67,4.643h-12.938c-0.379,0-0.686,0.307-0.687,0.686v5.773c0,0.378,0.307,0.686,0.687,0.686h12.937
		c0.379,0,0.686-0.308,0.686-0.686l0-5.773C135.355,4.95,135.049,4.643,134.67,4.643z"/>
	<path fill="#A09F9F" d="M213.051,24.995l-9.148,9.148c-0.268,0.268-0.268,0.703,0,0.971l4.082,4.083
		c0.268,0.267,0.703,0.268,0.971,0l9.148-9.147c0.268-0.269,0.268-0.703,0-0.97l-4.082-4.083
		C213.752,24.727,213.318,24.727,213.051,24.995z"/>
	<path fill="#A09F9F" d="M70.949,4.877L61.8,14.025c-0.268,0.268-0.268,0.703,0,0.971l4.082,4.083c0.268,0.267,0.703,0.268,0.971,0
		l9.148-9.147c0.268-0.269,0.268-0.703,0-0.97l-4.082-4.083C71.65,4.61,71.216,4.609,70.949,4.877z"/>
	<path fill="#A09F9F" d="M31.633,161.629l-9.148,9.148c-0.268,0.268-0.268,0.703,0,0.971l4.082,4.083
		c0.268,0.267,0.703,0.268,0.971,0l9.148-9.147c0.268-0.269,0.268-0.703,0-0.97l-4.082-4.083
		C32.334,161.362,31.9,161.361,31.633,161.629z"/>
	<path fill="#A09F9F" d="M63.085,116.934H50.147c-0.379,0-0.686,0.307-0.687,0.686v5.773c0,0.378,0.307,0.686,0.687,0.686h12.937
		c0.379,0,0.686-0.308,0.686-0.686l0-5.773C63.771,117.241,63.464,116.934,63.085,116.934z"/>
	<path fill="#F49E1E" d="M144.994,109.407h-12.938c-0.379,0-0.686,0.307-0.687,0.686v5.773c0,0.378,0.307,0.686,0.687,0.686h12.937
		c0.379,0,0.686-0.308,0.686-0.686l0-5.773C145.68,109.714,145.373,109.407,144.994,109.407z"/>
	<path fill="#A09F9F" d="M19.139,141.021H6.202c-0.379,0-0.686,0.307-0.687,0.686v5.773c0,0.378,0.307,0.686,0.687,0.686h12.937
		c0.379,0,0.686-0.308,0.686-0.686l0-5.773C19.825,141.328,19.518,141.021,19.139,141.021z"/>
	<path fill="#A09F9F" d="M17.917,100.504H4.98c-0.379,0-0.686,0.307-0.687,0.686v5.773c0,0.378,0.307,0.686,0.687,0.686h12.937
		c0.379,0,0.686-0.308,0.686-0.686l0-5.773C18.603,100.811,18.296,100.504,17.917,100.504z"/>
	<path fill="#A09F9F" d="M16.816,47.322H3.878c-0.379,0-0.686,0.307-0.687,0.686v5.773c0,0.378,0.307,0.686,0.687,0.686h12.937
		c0.379,0,0.686-0.308,0.686-0.686l0-5.773C17.501,47.629,17.195,47.322,16.816,47.322z"/>
	<path fill="#A09F9F" d="M121.224,45.678h-12.938c-0.379,0-0.686,0.307-0.687,0.686v5.773c0,0.378,0.307,0.686,0.687,0.686h12.937
		c0.379,0,0.686-0.308,0.686-0.686l0-5.773C121.909,45.985,121.603,45.678,121.224,45.678z"/>
	<path fill="#A09F9F" d="M248.277,124.195v-12.938c0-0.379-0.307-0.687-0.686-0.687h-5.773c-0.378,0-0.687,0.307-0.687,0.687v12.937
		c0,0.38,0.308,0.687,0.686,0.687h5.773C247.971,124.881,248.277,124.574,248.277,124.195z"/>
	<path fill="#A09F9F" d="M135.728,38.564V25.627c0-0.379-0.307-0.687-0.686-0.687h-5.773c-0.378,0-0.687,0.307-0.687,0.687v12.937
		c0,0.38,0.308,0.687,0.686,0.687h5.773C135.421,39.25,135.728,38.943,135.728,38.564z"/>
	<path fill="#A09F9F" d="M160.861,18.447V5.51c0-0.379-0.307-0.687-0.686-0.687h-5.773c-0.378,0-0.687,0.307-0.687,0.687v12.937
		c0,0.38,0.308,0.687,0.686,0.687h5.773C160.554,19.133,160.861,18.826,160.861,18.447z"/>
	<path fill="#A09F9F" d="M11.133,19.423V6.486c0-0.379-0.307-0.687-0.686-0.687H4.674c-0.378,0-0.687,0.307-0.687,0.687v12.937
		c0,0.38,0.308,0.687,0.686,0.687h5.773C10.827,20.109,11.133,19.802,11.133,19.423z"/>
	<path fill="#A09F9F" d="M38.104,39.124l-9.148-9.148c-0.268-0.268-0.703-0.269-0.97,0l-4.083,4.083
		c-0.268,0.267-0.269,0.702,0,0.971l9.147,9.147c0.269,0.269,0.703,0.268,0.971,0l4.082-4.082
		C38.373,39.825,38.373,39.392,38.104,39.124z"/>
	<path fill="#A09F9F" d="M40.51,13.721l-9.148-9.148c-0.268-0.268-0.703-0.269-0.97,0l-4.083,4.083
		c-0.268,0.267-0.269,0.702,0,0.971l9.147,9.147c0.269,0.269,0.703,0.268,0.971,0l4.082-4.082
		C40.778,14.423,40.778,13.989,40.51,13.721z"/>
	<path fill="#F49E1E" d="M243.355,166.894l-9.148-9.148c-0.268-0.268-0.703-0.269-0.97,0l-4.083,4.083
		c-0.268,0.267-0.269,0.702,0,0.971l9.147,9.147c0.269,0.269,0.703,0.268,0.971,0l4.082-4.082
		C243.624,167.595,243.624,167.162,243.355,166.894z"/>
	<path fill="#A09F9F" d="M195.38,18.447V5.51c0-0.379-0.307-0.687-0.686-0.687h-5.773c-0.378,0-0.687,0.307-0.687,0.687v12.937
		c0,0.38,0.308,0.687,0.686,0.687h5.773C195.074,19.133,195.38,18.826,195.38,18.447z"/>
	<path fill="#A09F9F" d="M92.66,38.564V25.627c0-0.379-0.307-0.687-0.686-0.687h-5.773c-0.378,0-0.687,0.307-0.687,0.687v12.937
		c0,0.38,0.308,0.687,0.686,0.687h5.773C92.353,39.25,92.66,38.943,92.66,38.564z"/>
	<path fill="#4BA1D9" d="M134.556,161.397v-12.938c0-0.379-0.307-0.687-0.686-0.687h-5.773c-0.378,0-0.687,0.307-0.687,0.687v12.937
		c0,0.38,0.308,0.687,0.686,0.687h5.773C134.25,162.083,134.556,161.776,134.556,161.397z"/>
	<path fill="#EF382C" d="M195.38,124.341v-12.938c0-0.379-0.307-0.687-0.686-0.687h-5.773c-0.378,0-0.687,0.307-0.687,0.687v12.937
		c0,0.38,0.308,0.687,0.686,0.687h5.773C195.074,125.026,195.38,124.72,195.38,124.341z"/>
	<path fill="#F49E1E" d="M83.793,131.989v-12.938c0-0.379-0.307-0.687-0.686-0.687h-5.773c-0.378,0-0.687,0.307-0.687,0.687v12.937
		c0,0.38,0.308,0.687,0.686,0.687h5.773C83.486,132.674,83.793,132.368,83.793,131.989z"/>
	<path fill="#A09F9F" d="M65.383,85.928V72.991c0-0.379-0.307-0.687-0.686-0.687h-5.773c-0.378,0-0.687,0.307-0.687,0.687v12.937
		c0,0.38,0.308,0.687,0.686,0.687h5.773C65.076,86.614,65.383,86.307,65.383,85.928z"/>
	<path fill="#F49E1E" d="M223.049,139.372l-19.267,19.267c-0.268,0.268-0.268,0.702,0,0.971l4.083,4.082
		c0.268,0.267,0.702,0.269,0.97,0l19.267-19.267c0.268-0.268,0.268-0.703,0-0.97l-4.082-4.083
		C223.751,139.104,223.316,139.104,223.049,139.372z"/>
	<path fill="#A09F9F" d="M105.524,86.561l-27.248,0c-0.379,0-0.686,0.307-0.687,0.686v5.773c0,0.378,0.307,0.686,0.687,0.686
		l27.247,0c0.379,0,0.686-0.308,0.686-0.686l0-5.773C106.21,86.868,105.903,86.561,105.524,86.561z"/>
	<path fill="#EF382C" d="M152.149,170.812l-27.248,0c-0.379,0-0.686,0.307-0.687,0.686v5.773c0,0.378,0.307,0.686,0.687,0.686
		l27.247,0c0.379,0,0.686-0.308,0.686-0.686l0-5.773C152.834,171.12,152.527,170.812,152.149,170.812z"/>
	<path fill="#EF382C" d="M221.519,171.817l-27.248,0c-0.379,0-0.686,0.307-0.687,0.686v5.773c0,0.378,0.307,0.686,0.687,0.686
		l27.247,0c0.379,0,0.686-0.308,0.686-0.686l0-5.773C222.205,172.125,221.897,171.817,221.519,171.817z"/>
	<path fill="#A09F9F" d="M247.568,85.691l-0.001-27.247c0-0.38-0.307-0.687-0.686-0.687h-5.773c-0.378,0-0.687,0.307-0.687,0.687
		l0.001,27.247c0,0.379,0.308,0.686,0.686,0.686l5.773,0.001C247.26,86.377,247.568,86.07,247.568,85.691z"/>
	<path fill="#A09F9F" d="M11.167,95.016l-0.001-27.247c0-0.38-0.307-0.687-0.686-0.687H4.707c-0.378,0-0.687,0.307-0.687,0.687
		l0.001,27.247c0,0.379,0.308,0.686,0.686,0.686l5.773,0.001C10.859,95.702,11.167,95.395,11.167,95.016z"/>
	<path fill="#A09F9F" d="M195.381,86.847L195.38,59.6c0-0.38-0.307-0.687-0.686-0.687h-5.773c-0.378,0-0.687,0.307-0.687,0.687
		l0.001,27.247c0,0.379,0.308,0.686,0.686,0.686l5.773,0.001C195.073,87.533,195.381,87.226,195.381,86.847z"/>
	<path fill="#A09F9F" d="M63.552,161.397l-19.267-19.266c-0.269-0.269-0.702-0.269-0.97,0l-4.083,4.083
		c-0.267,0.267-0.269,0.702,0,0.971L58.5,166.45c0.268,0.268,0.702,0.267,0.969,0l4.083-4.082
		C63.82,162.099,63.82,161.665,63.552,161.397z"/>
	<path fill="#F49E1E" d="M193.938,141.02l-27.248,0c-0.379,0-0.686,0.307-0.687,0.686v5.773c0,0.378,0.307,0.686,0.687,0.686
		l27.247,0c0.379,0,0.686-0.308,0.686-0.686l0-5.773C194.624,141.327,194.316,141.02,193.938,141.02z"/>
	<path fill="#A09F9F" d="M161.652,44.742l-27.248,0c-0.379,0-0.686,0.307-0.687,0.686v5.773c0,0.378,0.307,0.686,0.687,0.686
		l27.247,0c0.379,0,0.686-0.308,0.686-0.686l0-5.773C162.338,45.049,162.031,44.742,161.652,44.742z"/>
	<path fill="#A09F9F" d="M156.602,44.742l-27.248,0c-0.379,0-0.686,0.307-0.687,0.686v5.773c0,0.378,0.307,0.686,0.687,0.686
		l27.247,0c0.379,0,0.686-0.308,0.686-0.686l0-5.773C157.288,45.049,156.98,44.742,156.602,44.742z"/>
</g>
<g id="Layer_2">
	<g>
		<path fill="#3C3640" d="M56.616,85.116h-4.042v16.816H48.49V85.116h-2.321v-3.123h2.321v-3.124c0-1.574,0.454-2.883,1.361-3.924
			c1.014-1.147,2.415-1.722,4.203-1.722h2.562v3.483h-1.801c-1.495,0-2.241,0.788-2.241,2.362v2.924h4.042V85.116z"/>
		<path fill="#3C3640" d="M84.278,101.933h-4.084v-2.042c-1.379,1.521-3.169,2.282-5.369,2.282c-2.068,0-3.726-0.613-4.972-1.842
			c-1.353-1.335-2.029-3.243-2.029-5.726V81.633h4.084v12.372c0,1.496,0.4,2.644,1.201,3.443c0.72,0.721,1.681,1.081,2.882,1.081
			c1.228,0,2.235-0.381,3.022-1.142c0.787-0.76,1.181-1.887,1.181-3.383V81.633h4.084V101.933z"/>
		<path fill="#3C3640" d="M106.256,101.933h-2.442c-1.788,0-3.189-0.573-4.203-1.722c-0.907-1.041-1.361-2.349-1.361-3.923V85.116
			h-2.321v-3.123h2.321v-6.167h4.084v6.167h3.923v3.123h-3.923v10.972c0,1.574,0.746,2.361,2.241,2.361h1.682V101.933z"/>
		<path fill="#3C3640" d="M134.719,101.933h-4.084v-2.042c-1.379,1.521-3.169,2.282-5.369,2.282c-2.068,0-3.726-0.613-4.972-1.842
			c-1.353-1.335-2.029-3.243-2.029-5.726V81.633h4.084v12.372c0,1.496,0.4,2.644,1.201,3.443c0.72,0.721,1.681,1.081,2.882,1.081
			c1.228,0,2.235-0.381,3.022-1.142c0.787-0.76,1.181-1.887,1.181-3.383V81.633h4.084V101.933z"/>
		<path fill="#3C3640" d="M162.419,83.314l-3.106,3.083c-0.915-0.907-1.938-1.361-3.066-1.361c-1.157,0-2.126,0.42-2.904,1.261
			c-0.78,0.841-1.17,1.942-1.17,3.304v12.332h-4.004v-20.3h4.004v2.202c1.174-1.628,2.975-2.442,5.403-2.442
			C159.522,81.393,161.138,82.033,162.419,83.314z"/>
		<path fill="#3C3640" d="M188.921,92.964H175.79c0,1.762,0.445,3.15,1.337,4.164c0.891,1.015,2.161,1.521,3.811,1.521
			c1.89,0,3.525-0.694,4.908-2.081l2.595,2.441c-1.095,1.095-2.176,1.882-3.243,2.362c-1.201,0.534-2.655,0.801-4.363,0.801
			c-6.085,0-9.127-3.47-9.127-10.41c0-3.256,0.773-5.799,2.321-7.628c1.548-1.828,3.644-2.742,6.285-2.742
			c2.669,0,4.79,0.907,6.365,2.723c1.494,1.762,2.242,4.111,2.242,7.047V92.964z M184.877,90.121
			c-0.026-1.041-0.212-1.962-0.558-2.763c-0.718-1.708-2.046-2.562-3.985-2.562c-1.967,0-3.309,0.854-4.026,2.562
			c-0.318,0.721-0.491,1.642-0.518,2.763H184.877z"/>
		<path fill="#3C3640" d="M216.382,95.728c0,2.055-0.781,3.643-2.342,4.764c-1.562,1.121-3.597,1.682-6.105,1.682
			c-3.71,0-6.552-0.975-8.526-2.923l2.682-2.682c1.388,1.414,3.336,2.121,5.845,2.121c2.963,0,4.444-0.935,4.444-2.802
			c0-1.442-0.908-2.243-2.723-2.403l-3.242-0.28c-4.004-0.347-6.005-2.215-6.005-5.605c0-1.922,0.746-3.457,2.241-4.604
			c1.414-1.067,3.216-1.602,5.404-1.602c3.283,0,5.791,0.761,7.526,2.282l-2.562,2.603c-1.174-0.987-2.842-1.481-5.004-1.481
			c-2.455,0-3.683,0.867-3.683,2.603c0,1.389,0.934,2.162,2.802,2.322l3.203,0.28C214.366,90.349,216.382,92.257,216.382,95.728z"/>
	</g>
</g>
</svg>
