<?xml version="1.0" encoding="utf-8"?>
<!-- Generator: Adobe Illustrator 16.0.0, SVG Export Plug-In . SVG Version: 6.00 Build 0)  -->
<!DOCTYPE svg PUBLIC "-//W3C//DTD SVG 1.1//EN" "http://www.w3.org/Graphics/SVG/1.1/DTD/svg11.dtd">
<svg version="1.1" id="Layer_1" xmlns="http://www.w3.org/2000/svg" xmlns:xlink="http://www.w3.org/1999/xlink" x="0px" y="0px"
	 width="224.516px" height="161.12px" viewBox="0 0 224.516 161.12" enable-background="new 0 0 224.516 161.12"
	 xml:space="preserve">
<path fill="#EF4134" d="M93.093,130.529c0,0.289-0.232,0.521-0.52,0.521l-4.423,0.001c-0.288-0.001-0.521-0.234-0.521-0.522
	l-0.001-4.379c0.001-0.288,0.232-0.521,0.522-0.521h4.423c0.287,0,0.519,0.233,0.521,0.521L93.093,130.529z"/>
<path fill="#4BA1D9" d="M149.852,108.657c0,0.287-0.234,0.52-0.521,0.52l-4.422,0.001c-0.287,0-0.52-0.234-0.52-0.521v-4.38
	c0-0.288,0.232-0.521,0.521-0.521h4.423c0.287,0,0.52,0.233,0.521,0.521L149.852,108.657z"/>
<path fill="#4BA1D9" d="M197.854,23.788c0,0.288-0.234,0.521-0.521,0.521l-4.422,0c-0.287,0-0.521-0.233-0.52-0.521l-0.001-4.38
	c0.001-0.288,0.232-0.521,0.521-0.521h4.423c0.287,0,0.52,0.233,0.521,0.521L197.854,23.788z"/>
<path fill="#4BA1D9" d="M96.811,17.732c0.204,0.204,0.203,0.534,0,0.737l-3.127,3.128c-0.203,0.202-0.532,0.203-0.736-0.001
	l-3.098-3.097c-0.202-0.204-0.202-0.532,0.001-0.736l3.128-3.128c0.203-0.203,0.532-0.202,0.735,0L96.811,17.732z"/>
<path fill="#EF4134" d="M28.235,38.894c0.204,0.204,0.203,0.534,0,0.737l-3.128,3.128c-0.203,0.202-0.532,0.202-0.735-0.001
	l-3.098-3.097c-0.203-0.204-0.203-0.532,0.001-0.738l3.127-3.127c0.203-0.202,0.532-0.202,0.736,0.001L28.235,38.894z"/>
<path fill="#965BA5" d="M135.877,115.246l-9.816,0.001c-0.288,0-0.52,0.233-0.52,0.52v4.38c0,0.288,0.231,0.522,0.52,0.52
	l9.816,0.001c0.287-0.001,0.52-0.233,0.52-0.521v-4.379C136.396,115.481,136.164,115.246,135.877,115.246z"/>
<path fill="#EF4134" d="M155.699,8.901l-9.816,0.001c-0.288,0-0.52,0.232-0.52,0.52v4.38c0,0.289,0.232,0.521,0.52,0.52l9.816,0
	c0.287,0,0.52-0.231,0.52-0.52V9.423C156.219,9.136,155.986,8.902,155.699,8.901z"/>
<path fill="#965BA5" d="M184.305,52.542l-6.941-6.94c-0.204-0.203-0.531-0.203-0.734,0.001l-3.098,3.097
	c-0.203,0.204-0.205,0.533,0.001,0.735l6.939,6.942c0.203,0.203,0.532,0.203,0.736,0l3.096-3.098
	C184.508,53.076,184.508,52.745,184.305,52.542z"/>
<path fill="#4BA1D9" d="M86.587,116.854l-9.815,0.001c-0.288,0-0.52,0.231-0.52,0.52v4.38c0,0.289,0.233,0.52,0.521,0.519
	l9.814,0.001c0.288-0.001,0.521-0.231,0.521-0.52v-4.38C87.108,117.09,86.875,116.855,86.587,116.854z"/>
<path fill="#EF4134" d="M73.194,75.869h-9.816c-0.288,0-0.519,0.233-0.519,0.521v4.38c0,0.287,0.231,0.522,0.519,0.52h9.816
	c0.287,0,0.521-0.233,0.521-0.52v-4.379C73.715,76.104,73.481,75.869,73.194,75.869z"/>
<path fill="#4BA1D9" d="M57.87,29.238l-6.941-6.94c-0.204-0.204-0.532-0.204-0.735,0l-3.099,3.097
	c-0.203,0.204-0.204,0.532,0.001,0.735l6.94,6.94c0.203,0.204,0.531,0.204,0.735,0l3.097-3.097
	C58.071,29.771,58.071,29.441,57.87,29.238z"/>
<path fill="#965BA5" d="M40.458,28.97l-6.941-6.941c-0.204-0.204-0.531-0.203-0.735,0l-3.098,3.097
	c-0.203,0.204-0.203,0.533,0.001,0.736l6.939,6.941c0.205,0.203,0.532,0.203,0.737,0l3.097-3.097
	C40.659,29.504,40.661,29.173,40.458,28.97z"/>
<path fill="#965BA5" d="M158.323,92.061v-9.816c0-0.289-0.232-0.521-0.521-0.521h-4.38c-0.289,0-0.521,0.233-0.52,0.521
	l-0.002,9.816c0.002,0.287,0.232,0.52,0.521,0.52h4.38C158.09,92.581,158.323,92.348,158.323,92.061z"/>
<path fill="#4BA1D9" d="M75.818,22.413l-0.001-9.816c0-0.288-0.231-0.52-0.519-0.52h-4.382c-0.287,0-0.521,0.233-0.519,0.521v9.815
	c0,0.287,0.231,0.52,0.519,0.52h4.38C75.584,22.933,75.818,22.7,75.818,22.413z"/>
<path fill="#4BA1D9" d="M110.106,152.599l-0.001-9.815c0-0.288-0.231-0.521-0.519-0.521h-4.382c-0.288,0-0.521,0.233-0.519,0.521
	v9.815c0,0.287,0.23,0.521,0.519,0.521h4.381C109.872,153.12,110.105,152.886,110.106,152.599z"/>
<path fill="#4BA1D9" d="M130.465,49.736l-0.001-9.816c0-0.288-0.232-0.521-0.521-0.521h-4.38c-0.287,0-0.521,0.232-0.52,0.521v9.816
	c0,0.287,0.232,0.521,0.52,0.521h4.379C130.23,50.256,130.465,50.022,130.465,49.736z"/>
<path fill="#965BA5" d="M59.747,85.899l-0.001-9.817c0-0.287-0.233-0.519-0.521-0.519h-4.379c-0.288,0-0.522,0.233-0.521,0.521
	v9.815c0,0.286,0.233,0.519,0.521,0.519h4.379C59.511,86.418,59.746,86.185,59.747,85.899z"/>
<path fill="#4BA1D9" d="M54.39,58.04l-0.002-9.816c0-0.287-0.231-0.519-0.52-0.519h-4.381c-0.286,0-0.521,0.232-0.519,0.521v9.814
	c0,0.287,0.232,0.52,0.519,0.52h4.38C54.154,58.56,54.39,58.327,54.39,58.04z"/>
<path fill="#4BA1D9" d="M26.528,47.452l-6.942-6.94c-0.204-0.203-0.532-0.203-0.734,0l-3.099,3.098
	c-0.203,0.202-0.204,0.532,0.002,0.735l6.939,6.941c0.203,0.203,0.532,0.203,0.735,0l3.098-3.097
	C26.729,47.986,26.729,47.655,26.528,47.452z"/>
<path fill="#EF4134" d="M119.683,131.051l-15.249,0.001c-0.288,0-0.521,0.232-0.521,0.521v4.379c0,0.288,0.232,0.521,0.521,0.519
	l15.248,0.002c0.289-0.002,0.521-0.233,0.521-0.521v-4.379C120.204,131.286,119.971,131.053,119.683,131.051z"/>
<path fill="#965BA5" d="M191.425,30.623L180.641,19.84c-0.203-0.203-0.532-0.203-0.735,0l-3.097,3.098
	c-0.204,0.203-0.205,0.532,0.001,0.736l10.781,10.783c0.205,0.203,0.532,0.203,0.737,0l3.097-3.097
	C191.627,31.157,191.628,30.827,191.425,30.623z"/>
<path fill="#4BA1D9" d="M102.004,98.906l-15.25,0.001c-0.288,0-0.521,0.233-0.521,0.521v4.38c0,0.287,0.233,0.521,0.522,0.519
	l15.249,0.001c0.288-0.001,0.521-0.233,0.521-0.52v-4.379C102.524,99.141,102.291,98.907,102.004,98.906z"/>
<path fill="#4BA1D9" d="M51.911,35.956l-15.25,0.001c-0.288,0-0.52,0.233-0.52,0.521v4.38c0,0.288,0.231,0.521,0.521,0.519
	l15.249,0.001c0.288-0.001,0.521-0.232,0.521-0.521v-4.38C52.433,36.191,52.199,35.956,51.911,35.956z"/>
<path fill="#965BA5" d="M122.094,80.692h-15.249c-0.288,0-0.521,0.231-0.521,0.52v4.38c0,0.287,0.232,0.521,0.521,0.52h15.248
	c0.289,0,0.521-0.233,0.521-0.52v-4.38C122.615,80.926,122.382,80.692,122.094,80.692z"/>
<path fill="#965BA5" d="M130.307,106.562l-0.001-15.249c0-0.289-0.231-0.521-0.521-0.521h-4.379c-0.289,0-0.521,0.232-0.52,0.521
	l-0.001,15.249c0.001,0.29,0.231,0.522,0.521,0.522h4.379C130.072,107.084,130.307,106.85,130.307,106.562z"/>
<path fill="#965BA5" d="M93.072,95.312l-0.001-15.249c0-0.287-0.231-0.52-0.52-0.52h-4.381c-0.288,0-0.521,0.232-0.519,0.521
	l-0.001,15.248c0.001,0.289,0.231,0.521,0.52,0.521h4.381C92.838,95.833,93.072,95.6,93.072,95.312z"/>
<path fill="#EF4134" d="M66.285,46.558L66.284,31.31c0-0.288-0.232-0.52-0.521-0.52h-4.379c-0.289,0-0.522,0.232-0.52,0.521v15.248
	c0,0.29,0.23,0.522,0.52,0.522h4.379C66.051,47.081,66.285,46.847,66.285,46.558z"/>
<path fill="#4BA1D9" d="M110.751,115.67v-15.249c0-0.288-0.231-0.521-0.52-0.521h-4.38c-0.289,0-0.521,0.233-0.52,0.521
	l-0.001,15.249c0.001,0.289,0.231,0.522,0.521,0.522h4.38C110.518,116.192,110.751,115.958,110.751,115.67z"/>
<path fill="#965BA5" d="M170.446,9.93l-10.781,10.784c-0.203,0.203-0.203,0.531,0,0.735l3.099,3.097
	c0.203,0.204,0.531,0.205,0.734-0.001l10.783-10.781c0.204-0.205,0.204-0.533,0-0.737l-3.096-3.096
	C170.982,9.727,170.652,9.726,170.446,9.93z"/>
<path fill="#4BA1D9" d="M179.555,73.416L168.772,84.2c-0.203,0.203-0.203,0.531,0,0.735l3.098,3.097
	c0.204,0.204,0.532,0.205,0.735-0.001l10.783-10.782c0.203-0.205,0.203-0.532,0-0.735l-3.096-3.097
	C180.09,73.213,179.76,73.211,179.555,73.416z"/>
<path fill="#EF4134" d="M93.65,28.748L82.869,17.966c-0.205-0.203-0.534-0.203-0.737,0l-3.097,3.098
	c-0.205,0.203-0.205,0.532,0.001,0.735l10.782,10.783c0.203,0.203,0.531,0.203,0.736,0l3.096-3.097
	C93.854,29.283,93.854,28.952,93.65,28.748z"/>
<path fill="#965BA5" d="M98.39,35.377L87.607,46.161c-0.203,0.203-0.203,0.532,0,0.735l3.097,3.097c0.203,0.205,0.534,0.206,0.736,0
	l10.782-10.782c0.203-0.205,0.204-0.533,0.001-0.737l-3.097-3.097C98.924,35.174,98.594,35.174,98.39,35.377z"/>
<path fill="#EF4134" d="M76.424,89.755l-10.782,10.784c-0.203,0.205-0.203,0.533,0,0.736l3.097,3.097
	c0.204,0.203,0.534,0.203,0.737-0.001l10.781-10.782c0.204-0.205,0.205-0.532,0.001-0.736l-3.097-3.097
	C76.958,89.553,76.628,89.552,76.424,89.755z"/>
<path fill="#965BA5" d="M47.226,9.93L36.443,20.713c-0.203,0.203-0.203,0.531,0,0.735l3.098,3.097
	c0.204,0.204,0.533,0.205,0.736-0.001L51.06,13.763c0.204-0.205,0.204-0.533,0-0.737L47.963,9.93
	C47.76,9.727,47.431,9.726,47.226,9.93z"/>
<path fill="#4BA1D9" d="M156.904,64.291V43.582c0-0.288-0.233-0.521-0.521-0.521h-4.379c-0.288,0-0.521,0.232-0.521,0.522
	l-0.001,20.708c0.001,0.288,0.233,0.52,0.521,0.52h4.379C156.67,64.811,156.904,64.578,156.904,64.291z"/>
<path fill="#965BA5" d="M203.529,48.984l-14.642,14.644c-0.204,0.203-0.204,0.531,0,0.735l3.097,3.098
	c0.203,0.203,0.533,0.204,0.736-0.001l14.643-14.642c0.203-0.203,0.203-0.532,0-0.735l-3.097-3.097
	C204.063,48.782,203.732,48.782,203.529,48.984z"/>
<path fill="#EF4134" d="M173.12,32.474l-20.708,0.001c-0.288,0-0.521,0.232-0.521,0.521v4.379c0,0.289,0.232,0.521,0.521,0.52
	l20.708,0.001c0.287-0.001,0.52-0.232,0.52-0.521v-4.379C173.641,32.708,173.406,32.475,173.12,32.474z"/>
<path fill="#EF4134" d="M46.371,67.645L31.728,53.002c-0.203-0.203-0.531-0.203-0.735,0l-3.096,3.097
	c-0.206,0.203-0.206,0.534,0,0.736l14.643,14.644c0.204,0.204,0.531,0.204,0.734,0l3.097-3.097
	C46.574,68.178,46.575,67.848,46.371,67.645z"/>
<path fill="#965BA5" d="M134.571,13.297L116.06,31.81c-0.204,0.205-0.204,0.532,0,0.736l3.098,3.096
	c0.202,0.205,0.531,0.205,0.733,0l18.514-18.512c0.202-0.204,0.203-0.531-0.001-0.735l-3.096-3.097
	C135.106,13.095,134.774,13.094,134.571,13.297z"/>
</svg>
