<?xml version="1.0" encoding="utf-8"?>
<!-- Generator: Adobe Illustrator 16.0.0, SVG Export Plug-In . SVG Version: 6.00 Build 0)  -->
<!DOCTYPE svg PUBLIC "-//W3C//DTD SVG 1.1//EN" "http://www.w3.org/Graphics/SVG/1.1/DTD/svg11.dtd">
<svg version="1.1" id="Icons" xmlns="http://www.w3.org/2000/svg" xmlns:xlink="http://www.w3.org/1999/xlink" x="0px" y="0px"
	 width="100px" height="100px" viewBox="0 0 100 100" enable-background="new 0 0 100 100" xml:space="preserve">
<path d="M2.93,77.23V22.578c0-0.442,0.069-0.967,0.207-1.574L42.141,60.09c2.18,2.18,4.857,3.271,8.033,3.271
	c3.119,0,5.77-1.092,7.95-3.271L97.21,21.004c0.083,0.552,0.124,1.077,0.124,1.574v54.654c0,2.043-0.725,3.795-2.175,5.258
	c-1.448,1.463-3.195,2.193-5.237,2.193H10.424c-2.042,0-3.802-0.73-5.279-2.193S2.93,79.273,2.93,77.23L2.93,77.23z M8.271,15.457
	c0.718-0.221,1.436-0.332,2.153-0.332h79.497c0.662,0,1.353,0.111,2.071,0.332l-39.293,39.25c-0.691,0.689-1.547,1.034-2.568,1.034
	c-1.021,0-1.877-0.345-2.567-1.034L8.271,15.457z"/>
</svg>
