<?xml version="1.0" encoding="utf-8"?>
<!-- Generator: Adobe Illustrator 16.0.0, SVG Export Plug-In . SVG Version: 6.00 Build 0)  -->
<!DOCTYPE svg PUBLIC "-//W3C//DTD SVG 1.1//EN" "http://www.w3.org/Graphics/SVG/1.1/DTD/svg11.dtd">
<svg version="1.1" id="Layer_1" xmlns="http://www.w3.org/2000/svg" xmlns:xlink="http://www.w3.org/1999/xlink" x="0px" y="0px"
	 width="139.583px" height="29.426px" viewBox="0 0 139.583 29.426" enable-background="new 0 0 139.583 29.426"
	 xml:space="preserve">
<path fill="#E74C35" d="M137.524,23.199c0.006,0.184-0.139,0.339-0.323,0.346l-2.845,0.1c-0.185,0.006-0.34-0.139-0.347-0.324
	l-0.098-2.817c-0.007-0.186,0.139-0.34,0.323-0.347l2.846-0.099c0.184-0.007,0.339,0.138,0.346,0.322L137.524,23.199z"/>
<path fill="#E74C35" d="M117.668,23.891c0.006,0.185-0.139,0.34-0.322,0.347l-2.846,0.1c-0.184,0.006-0.339-0.138-0.346-0.324
	l-0.098-2.816c-0.007-0.186,0.138-0.341,0.323-0.348l2.845-0.099c0.184-0.006,0.339,0.138,0.346,0.324L117.668,23.891z"/>
<path fill="#E74C35" d="M94.23,24.711c0.006,0.184-0.138,0.339-0.323,0.347l-2.845,0.098c-0.186,0.007-0.341-0.138-0.347-0.322
	l-0.098-2.818c-0.007-0.185,0.138-0.339,0.323-0.347l2.845-0.099c0.185-0.006,0.34,0.138,0.347,0.323L94.23,24.711z"/>
<path fill="#965BA5" d="M75.552,25.363c0.006,0.185-0.138,0.339-0.323,0.347l-2.846,0.099c-0.185,0.007-0.34-0.138-0.346-0.322
	l-0.099-2.817c-0.006-0.186,0.139-0.34,0.324-0.347l2.845-0.1c0.184-0.006,0.34,0.138,0.346,0.323L75.552,25.363z"/>
<path fill="#E74C35" d="M70.805,25.5c0.006,0.185-0.138,0.339-0.323,0.347l-2.845,0.099c-0.185,0.007-0.34-0.138-0.347-0.323
	l-0.098-2.818c-0.007-0.185,0.138-0.339,0.323-0.346l2.845-0.099c0.185-0.007,0.34,0.137,0.347,0.322L70.805,25.5z"/>
<path fill="#E74C35" d="M38.186,26.666c0.007,0.184-0.138,0.339-0.323,0.347l-2.845,0.098c-0.186,0.007-0.341-0.139-0.347-0.323
	l-0.099-2.817c-0.006-0.185,0.138-0.34,0.324-0.347l2.845-0.099c0.185-0.007,0.34,0.138,0.347,0.323L38.186,26.666z"/>
<path fill="#4BA1D9" d="M33.475,26.83c0.007,0.185-0.138,0.34-0.322,0.347l-2.846,0.099c-0.185,0.007-0.34-0.138-0.346-0.323
	l-0.099-2.817c-0.007-0.185,0.138-0.34,0.323-0.347l2.846-0.1c0.184-0.006,0.339,0.139,0.346,0.324L33.475,26.83z"/>
<path fill="#965BA5" d="M22.977,27.197c0.007,0.185-0.138,0.34-0.323,0.346l-2.845,0.101c-0.185,0.004-0.34-0.14-0.347-0.324
	l-0.099-2.816c-0.006-0.186,0.139-0.341,0.324-0.348l2.845-0.099c0.184-0.007,0.339,0.138,0.346,0.324L22.977,27.197z"/>
<path fill="#4BA1D9" d="M10.062,27.648c0.007,0.185-0.139,0.34-0.323,0.347l-2.845,0.099c-0.185,0.007-0.34-0.139-0.347-0.323
	l-0.098-2.817c-0.007-0.185,0.138-0.34,0.323-0.347l2.845-0.099c0.185-0.006,0.34,0.139,0.347,0.323L10.062,27.648z"/>
<path fill="#965BA5" d="M5.333,27.813c0.006,0.184-0.138,0.339-0.323,0.347l-2.845,0.1c-0.186,0.006-0.34-0.14-0.347-0.324
	l-0.098-2.818c-0.006-0.185,0.138-0.339,0.323-0.346l2.845-0.099c0.185-0.007,0.34,0.138,0.346,0.323L5.333,27.813z"/>
<path fill="#4BA1D9" d="M132.846,23.362c0.007,0.185-0.138,0.34-0.323,0.347l-2.846,0.099c-0.185,0.007-0.339-0.137-0.346-0.323
	l-0.098-2.817c-0.007-0.185,0.137-0.34,0.322-0.347l2.847-0.099c0.184-0.006,0.339,0.138,0.346,0.324L132.846,23.362z"/>
<path fill="#4BA1D9" d="M107.168,24.229c0.008,0.186-0.138,0.34-0.322,0.348l-2.845,0.099c-0.185,0.007-0.34-0.138-0.346-0.323
	l-0.099-2.817c-0.006-0.185,0.139-0.34,0.323-0.347l2.846-0.099c0.185-0.007,0.339,0.138,0.347,0.323L107.168,24.229z"/>
<path fill="#965BA5" d="M101.979,21.283l-6.313,0.22c-0.186,0.007-0.329,0.161-0.323,0.347l0.099,2.817
	c0.006,0.185,0.162,0.33,0.346,0.323l6.314-0.22c0.184-0.008,0.33-0.163,0.323-0.347l-0.099-2.817
	C102.319,21.422,102.164,21.277,101.979,21.283z"/>
<path fill="#4BA1D9" d="M83.288,21.935l-6.314,0.222c-0.186,0.007-0.33,0.162-0.323,0.346l0.098,2.817
	c0.006,0.185,0.161,0.33,0.347,0.323l6.313-0.221c0.184-0.007,0.33-0.162,0.323-0.346l-0.098-2.818
	C83.627,22.074,83.472,21.93,83.288,21.935z"/>
<path fill="#4BA1D9" d="M59.862,22.726l-6.314,0.221c-0.185,0.007-0.33,0.162-0.324,0.347l0.099,2.817
	c0.007,0.184,0.163,0.328,0.347,0.322l6.314-0.221c0.185-0.006,0.33-0.161,0.323-0.346l-0.098-2.817
	C60.202,22.864,60.046,22.719,59.862,22.726z"/>
<path fill="#965BA5" d="M45.922,23.239l-6.314,0.221c-0.185,0.006-0.33,0.162-0.323,0.346l0.098,2.818
	c0.007,0.184,0.162,0.33,0.347,0.323l6.313-0.22c0.185-0.006,0.33-0.162,0.323-0.347l-0.099-2.817
	C46.262,23.376,46.107,23.232,45.922,23.239z"/>
<path fill="#E74C35" d="M17.797,24.221l-6.314,0.221c-0.185,0.006-0.329,0.161-0.323,0.347l0.099,2.817
	c0.007,0.184,0.162,0.33,0.347,0.323l6.313-0.22c0.185-0.007,0.33-0.163,0.324-0.348l-0.099-2.817
	C18.137,24.359,17.982,24.215,17.797,24.221z"/>
<path fill="#965BA5" d="M128.167,23.526c0.007,0.184-0.139,0.339-0.323,0.346l-2.845,0.099c-0.185,0.008-0.34-0.137-0.347-0.322
	l-0.099-2.817c-0.007-0.185,0.139-0.34,0.324-0.348l2.845-0.098c0.186-0.007,0.339,0.138,0.347,0.323L128.167,23.526z"/>
<path fill="#3C3640" d="M12.114,5.639c0,1.31-0.435,2.389-1.304,3.239c-0.869,0.851-2.02,1.275-3.452,1.275H3.979v5.851H1.727V1.125
	h5.631c1.432,0,2.583,0.425,3.452,1.274C11.679,3.25,12.114,4.33,12.114,5.639z M9.861,5.639c0-0.78-0.24-1.39-0.719-1.829
	c-0.48-0.438-1.117-0.658-1.909-0.658H3.979v4.952h3.254c0.792,0,1.429-0.22,1.909-0.658C9.621,7.008,9.861,6.405,9.861,5.639z"/>
<path fill="#3C3640" d="M29.323,16.004h-2.628l-3.129-6.269H20.75v6.269h-2.252V1.125h5.757c1.391,0,2.507,0.404,3.348,1.212
	c0.841,0.808,1.262,1.853,1.262,3.134c0,1.018-0.274,1.871-0.823,2.561c-0.55,0.689-1.262,1.153-2.138,1.389L29.323,16.004z
	 M26.61,5.503c0-0.728-0.229-1.301-0.688-1.721c-0.458-0.419-1.07-0.63-1.835-0.63h-3.337v4.681h3.337
	c0.765,0,1.377-0.207,1.835-0.62C26.381,6.801,26.61,6.231,26.61,5.503z"/>
<path fill="#3C3640" d="M45.947,8.565c0,1.741-0.056,2.912-0.167,3.51c-0.167,0.975-0.583,1.797-1.251,2.466
	c-1.057,1.059-2.364,1.589-3.921,1.589c-1.544,0-2.844-0.53-3.901-1.589c-0.667-0.668-1.091-1.491-1.272-2.466
	c-0.111-0.613-0.167-1.783-0.167-3.51c0-1.728,0.056-2.898,0.167-3.511c0.181-0.975,0.605-1.797,1.272-2.465
	C37.763,1.529,39.063,1,40.607,1c1.558,0,2.864,0.529,3.921,1.588c0.668,0.669,1.084,1.491,1.251,2.465
	C45.891,5.653,45.947,6.823,45.947,8.565z M43.694,8.565c0-1.268-0.021-2.076-0.062-2.424c-0.098-0.989-0.369-1.72-0.814-2.194
	c-0.57-0.612-1.307-0.919-2.21-0.919c-0.905,0-1.641,0.307-2.211,0.919C37.951,4.42,37.68,5.152,37.583,6.14
	c-0.042,0.349-0.062,1.156-0.062,2.424c0,1.268,0.021,2.076,0.062,2.424c0.097,0.989,0.368,1.72,0.813,2.195
	c0.57,0.612,1.307,0.918,2.211,0.918c0.904,0,1.641-0.306,2.21-0.918c0.445-0.475,0.716-1.206,0.814-2.195
	C43.673,10.64,43.694,9.832,43.694,8.565z"/>
<path fill="#3C3640" d="M62.238,11.761c0,1.352-0.494,2.417-1.481,3.197c-0.987,0.779-2.273,1.171-3.859,1.171
	c-2.21,0-3.963-0.655-5.256-1.965l1.502-1.483c0.945,0.947,2.21,1.42,3.796,1.42c0.973,0,1.728-0.198,2.263-0.595
	c0.535-0.397,0.803-0.958,0.803-1.682c0-0.67-0.195-1.185-0.584-1.547c-0.333-0.306-0.875-0.516-1.627-0.627l-1.752-0.25
	c-1.224-0.181-2.162-0.578-2.816-1.191c-0.723-0.683-1.084-1.63-1.084-2.842c0-1.309,0.445-2.365,1.335-3.166
	C54.366,1.401,55.576,1,57.106,1c1.863,0,3.399,0.564,4.61,1.692l-1.439,1.421c-0.807-0.766-1.884-1.149-3.233-1.149
	c-0.848,0-1.512,0.216-1.992,0.647c-0.48,0.432-0.72,0.989-0.72,1.671c0,0.585,0.191,1.049,0.574,1.39
	c0.383,0.341,0.935,0.567,1.659,0.679l1.689,0.251c1.224,0.181,2.148,0.55,2.774,1.107C61.834,9.421,62.238,10.438,62.238,11.761z"
	/>
<path fill="#3C3640" d="M79.028,8.565c0,1.741-0.055,2.912-0.167,3.51c-0.167,0.975-0.583,1.797-1.251,2.466
	c-1.057,1.059-2.364,1.589-3.921,1.589c-1.543,0-2.845-0.53-3.901-1.589c-0.667-0.668-1.092-1.491-1.272-2.466
	c-0.111-0.613-0.167-1.783-0.167-3.51c0-1.728,0.056-2.898,0.167-3.511c0.18-0.975,0.604-1.797,1.272-2.465
	C70.844,1.529,72.146,1,73.689,1c1.557,0,2.864,0.529,3.921,1.588c0.667,0.669,1.084,1.491,1.251,2.465
	C78.973,5.653,79.028,6.823,79.028,8.565z M76.776,8.565c0-1.268-0.021-2.076-0.062-2.424c-0.097-0.989-0.368-1.72-0.813-2.194
	c-0.571-0.612-1.308-0.919-2.212-0.919s-1.64,0.307-2.21,0.919c-0.446,0.474-0.717,1.206-0.813,2.194
	c-0.042,0.349-0.062,1.156-0.062,2.424c0,1.268,0.021,2.076,0.062,2.424c0.096,0.989,0.368,1.72,0.813,2.195
	c0.57,0.612,1.307,0.918,2.21,0.918s1.641-0.306,2.212-0.918c0.445-0.475,0.716-1.206,0.813-2.195
	C76.755,10.64,76.776,9.832,76.776,8.565z"/>
<path fill="#3C3640" d="M94.965,14.374c-1.197,1.17-2.581,1.756-4.152,1.756c-1.543,0-2.843-0.53-3.9-1.589
	c-0.667-0.668-1.092-1.491-1.272-2.466c-0.112-0.613-0.167-1.783-0.167-3.51c0-1.728,0.055-2.898,0.167-3.511
	c0.18-0.975,0.604-1.797,1.272-2.465C87.97,1.529,89.271,1,90.813,1c1.571,0,2.955,0.585,4.151,1.755L93.463,4.28
	c-0.834-0.835-1.718-1.253-2.648-1.253c-0.904,0-1.635,0.299-2.191,0.898c-0.445,0.474-0.716,1.205-0.813,2.194
	c-0.042,0.349-0.063,1.163-0.063,2.444c0,1.282,0.021,2.097,0.063,2.445c0.097,0.989,0.368,1.72,0.813,2.194
	c0.556,0.599,1.287,0.899,2.191,0.899c0.931,0,1.814-0.417,2.648-1.254L94.965,14.374z"/>
<path fill="#3C3640" d="M103.892,16.004h-2.253V1.125h2.253V16.004z"/>
<path fill="#3C3640" d="M122.352,16.004h-2.399l-1.021-2.988h-5.862l-1.021,2.988h-2.398l5.444-14.878h1.814L122.352,16.004z
	 M118.306,11.114l-2.253-6.624l-2.316,6.624H118.306z"/>
<path fill="#3C3640" d="M137.516,16.004h-9.408V1.125h2.253v12.852h7.155V16.004z"/>
</svg>
