<?xml version="1.0" encoding="utf-8"?>
<!-- Generator: Adobe Illustrator 16.0.0, SVG Export Plug-In . SVG Version: 6.00 Build 0)  -->
<!DOCTYPE svg PUBLIC "-//W3C//DTD SVG 1.1//EN" "http://www.w3.org/Graphics/SVG/1.1/DTD/svg11.dtd">
<svg version="1.1" id="Layer_1" xmlns="http://www.w3.org/2000/svg" xmlns:xlink="http://www.w3.org/1999/xlink" x="0px" y="0px"
	 width="148.255px" height="29.422px" viewBox="0 0 148.255 29.422" enable-background="new 0 0 148.255 29.422"
	 xml:space="preserve">
<g>
	<g>
		<path fill="#E74C35" d="M148.255,23.961c0.006,0.2-0.15,0.367-0.349,0.374l-3.072,0.107c-0.199,0.007-0.367-0.149-0.374-0.349
			l-0.105-3.041c-0.007-0.2,0.149-0.367,0.349-0.375l3.071-0.106c0.2-0.007,0.367,0.149,0.374,0.349L148.255,23.961z"/>
		<path fill="#E74C35" d="M126.822,24.709c0.007,0.199-0.149,0.367-0.348,0.374l-3.071,0.107c-0.199,0.007-0.368-0.149-0.375-0.348
			l-0.105-3.041c-0.007-0.2,0.149-0.368,0.349-0.375l3.071-0.107c0.198-0.008,0.366,0.149,0.373,0.349L126.822,24.709z"/>
		<path fill="#E74C35" d="M101.524,25.593c0.007,0.199-0.149,0.366-0.349,0.373l-3.07,0.107c-0.2,0.007-0.368-0.149-0.375-0.348
			l-0.106-3.042c-0.007-0.199,0.149-0.366,0.349-0.373l3.071-0.107c0.2-0.007,0.367,0.149,0.375,0.348L101.524,25.593z"/>
		<path fill="#F49E1E" d="M81.362,26.297c0.007,0.2-0.149,0.367-0.348,0.374l-3.072,0.107c-0.2,0.007-0.367-0.149-0.374-0.349
			l-0.107-3.041c-0.006-0.2,0.149-0.367,0.349-0.374l3.072-0.107c0.198-0.007,0.366,0.149,0.373,0.348L81.362,26.297z"/>
		<path fill="#E74C35" d="M76.239,26.445c0.007,0.199-0.149,0.366-0.349,0.374l-3.071,0.107c-0.2,0.007-0.367-0.15-0.375-0.349
			l-0.106-3.041c-0.007-0.2,0.149-0.367,0.349-0.375l3.071-0.107c0.2-0.007,0.367,0.149,0.374,0.349L76.239,26.445z"/>
		<path fill="#E74C35" d="M41.03,27.703c0.007,0.199-0.149,0.367-0.349,0.374l-3.071,0.107c-0.2,0.007-0.368-0.15-0.375-0.349
			l-0.106-3.041c-0.007-0.2,0.149-0.367,0.349-0.375l3.071-0.107c0.199-0.007,0.367,0.149,0.374,0.349L41.03,27.703z"/>
		<path fill="#4BA1D9" d="M35.944,27.88c0.007,0.199-0.149,0.367-0.349,0.374l-3.071,0.107c-0.2,0.008-0.367-0.149-0.374-0.348
			l-0.106-3.041c-0.007-0.199,0.149-0.367,0.349-0.375l3.071-0.107c0.2-0.007,0.367,0.149,0.374,0.349L35.944,27.88z"/>
		<path fill="#F49E1E" d="M24.613,28.276c0.007,0.199-0.149,0.367-0.349,0.374l-3.071,0.107c-0.2,0.007-0.367-0.15-0.375-0.349
			l-0.106-3.041c-0.007-0.2,0.149-0.367,0.349-0.375l3.071-0.107c0.199-0.007,0.367,0.149,0.374,0.349L24.613,28.276z"/>
		<path fill="#4BA1D9" d="M10.673,28.763c0.007,0.199-0.149,0.366-0.349,0.374l-3.071,0.107c-0.2,0.006-0.367-0.15-0.375-0.349
			l-0.105-3.042c-0.007-0.2,0.149-0.367,0.349-0.374l3.071-0.107c0.2-0.007,0.367,0.149,0.374,0.349L10.673,28.763z"/>
		<path fill="#F49E1E" d="M5.567,28.941c0.007,0.199-0.149,0.367-0.349,0.374l-3.071,0.106c-0.2,0.008-0.367-0.149-0.374-0.348
			l-0.107-3.041c-0.006-0.2,0.149-0.367,0.349-0.375l3.071-0.107c0.2-0.007,0.367,0.149,0.374,0.349L5.567,28.941z"/>
		<path fill="#4BA1D9" d="M143.204,24.137c0.007,0.2-0.149,0.367-0.348,0.374l-3.071,0.107c-0.2,0.007-0.366-0.15-0.374-0.349
			l-0.106-3.041c-0.007-0.2,0.148-0.367,0.348-0.375l3.071-0.107c0.2-0.007,0.367,0.149,0.374,0.349L143.204,24.137z"/>
		<path fill="#4BA1D9" d="M115.489,25.074c0.008,0.2-0.149,0.367-0.348,0.374l-3.071,0.107c-0.199,0.007-0.367-0.149-0.374-0.349
			l-0.106-3.041c-0.006-0.2,0.149-0.367,0.349-0.375l3.071-0.107c0.2-0.007,0.367,0.149,0.374,0.349L115.489,25.074z"/>
		<path fill="#F49E1E" d="M109.887,21.894l-6.815,0.238c-0.199,0.007-0.355,0.174-0.349,0.375l0.107,3.041
			c0.007,0.199,0.174,0.355,0.374,0.348l6.814-0.237c0.2-0.008,0.356-0.175,0.349-0.375l-0.106-3.041
			C110.255,22.043,110.087,21.887,109.887,21.894z"/>
		<path fill="#4BA1D9" d="M89.711,22.599l-6.815,0.238c-0.199,0.006-0.355,0.174-0.348,0.374l0.105,3.041
			c0.007,0.2,0.174,0.356,0.374,0.349l6.815-0.238c0.2-0.007,0.356-0.174,0.349-0.375l-0.106-3.041
			C90.079,22.748,89.912,22.592,89.711,22.599z"/>
		<path fill="#4BA1D9" d="M64.426,23.451l-6.815,0.238c-0.2,0.006-0.356,0.174-0.35,0.374l0.106,3.042
			c0.007,0.2,0.175,0.355,0.375,0.349l6.815-0.238c0.2-0.007,0.356-0.174,0.349-0.374L64.8,23.8
			C64.793,23.6,64.625,23.444,64.426,23.451z"/>
		<path fill="#F49E1E" d="M49.379,24.005l-6.815,0.238c-0.2,0.007-0.356,0.174-0.349,0.375l0.106,3.041
			c0.007,0.199,0.174,0.356,0.374,0.349l6.815-0.238c0.2-0.008,0.355-0.175,0.349-0.374l-0.106-3.042
			C49.747,24.153,49.579,23.998,49.379,24.005z"/>
		<path fill="#E74C35" d="M19.022,25.065l-6.815,0.238c-0.2,0.007-0.355,0.175-0.349,0.375l0.106,3.041
			c0.007,0.199,0.174,0.356,0.375,0.349l6.815-0.237c0.199-0.007,0.355-0.175,0.349-0.375l-0.106-3.041
			C19.389,25.214,19.222,25.058,19.022,25.065z"/>
		<path fill="#F49E1E" d="M138.154,24.314c0.008,0.199-0.149,0.366-0.348,0.374l-3.071,0.107c-0.2,0.007-0.367-0.149-0.375-0.348
			l-0.106-3.041c-0.007-0.2,0.149-0.367,0.349-0.374l3.071-0.107c0.2-0.007,0.367,0.149,0.374,0.349L138.154,24.314z"/>
	</g>
	<path fill="#3C3640" d="M12.888,5.007c0,1.414-0.469,2.579-1.407,3.496C10.542,9.421,9.3,9.879,7.754,9.879H4.106v6.315H1.676
		V0.135h6.079c1.546,0,2.788,0.459,3.726,1.376C12.418,2.429,12.888,3.594,12.888,5.007z M10.456,5.007
		c0-0.842-0.259-1.5-0.776-1.974s-1.205-0.71-2.06-0.71H4.107v5.345h3.512c0.855,0,1.542-0.237,2.06-0.71
		C10.197,6.485,10.456,5.834,10.456,5.007z"/>
	<path fill="#3C3640" d="M31.462,16.195h-2.837l-3.377-6.766h-3.04v6.766h-2.432V0.135h6.214c1.5,0,2.706,0.437,3.614,1.308
		c0.908,0.873,1.362,2,1.362,3.383c0,1.098-0.297,2.019-0.889,2.764c-0.594,0.744-1.362,1.245-2.308,1.5L31.462,16.195z
		 M28.535,4.86c0-0.785-0.248-1.404-0.743-1.857c-0.496-0.453-1.156-0.68-1.981-0.68h-3.603v5.052h3.603
		c0.826,0,1.486-0.223,1.981-0.668C28.288,6.262,28.535,5.646,28.535,4.86z"/>
	<path fill="#3C3640" d="M49.406,8.165c0,1.88-0.06,3.143-0.18,3.79c-0.18,1.053-0.63,1.94-1.351,2.662
		c-1.141,1.143-2.552,1.714-4.233,1.714c-1.666,0-3.07-0.571-4.21-1.714c-0.721-0.722-1.178-1.609-1.374-2.662
		c-0.12-0.662-0.18-1.925-0.18-3.79s0.06-3.127,0.18-3.789c0.195-1.053,0.653-1.94,1.374-2.662C40.573,0.572,41.977,0,43.643,0
		c1.681,0,3.092,0.572,4.233,1.714c0.721,0.722,1.17,1.609,1.351,2.662C49.346,5.022,49.406,6.285,49.406,8.165z M46.975,8.165
		c0-1.368-0.022-2.241-0.067-2.616C46.802,4.481,46.51,3.692,46.03,3.18c-0.616-0.661-1.411-0.992-2.387-0.992
		c-0.976,0-1.771,0.331-2.387,0.992c-0.48,0.512-0.773,1.301-0.878,2.369c-0.045,0.376-0.067,1.249-0.067,2.616
		c0,1.369,0.022,2.241,0.067,2.617c0.104,1.068,0.397,1.857,0.878,2.368c0.616,0.662,1.411,0.993,2.387,0.993
		c0.976,0,1.771-0.331,2.387-0.993c0.48-0.511,0.773-1.3,0.878-2.368C46.953,10.406,46.975,9.534,46.975,8.165z"/>
	<path fill="#3C3640" d="M66.991,11.616c0,1.459-0.533,2.609-1.599,3.451c-1.066,0.842-2.454,1.263-4.166,1.263
		c-2.387,0-4.277-0.707-5.673-2.12l1.621-1.602c1.021,1.023,2.387,1.534,4.098,1.534c1.05,0,1.865-0.214,2.443-0.643
		c0.578-0.428,0.867-1.034,0.867-1.816c0-0.722-0.21-1.278-0.63-1.669c-0.36-0.331-0.945-0.556-1.756-0.676l-1.892-0.271
		c-1.321-0.195-2.334-0.623-3.04-1.285c-0.781-0.737-1.171-1.759-1.171-3.067c0-1.413,0.48-2.553,1.441-3.418
		C58.495,0.433,59.801,0,61.452,0c2.012,0,3.67,0.609,4.976,1.827L64.875,3.36c-0.871-0.827-2.034-1.24-3.49-1.24
		c-0.916,0-1.632,0.233-2.15,0.699c-0.518,0.467-0.777,1.068-0.777,1.804c0,0.632,0.207,1.132,0.619,1.5
		c0.413,0.369,1.009,0.613,1.791,0.733l1.823,0.271c1.321,0.196,2.319,0.594,2.995,1.196C66.555,9.09,66.991,10.188,66.991,11.616z"
		/>
	<path fill="#3C3640" d="M85.115,8.165c0,1.88-0.061,3.143-0.18,3.79c-0.18,1.053-0.63,1.94-1.351,2.662
		c-1.142,1.143-2.552,1.714-4.233,1.714c-1.666,0-3.07-0.571-4.21-1.714c-0.721-0.722-1.178-1.609-1.374-2.662
		c-0.12-0.662-0.18-1.925-0.18-3.79s0.06-3.127,0.18-3.789c0.195-1.053,0.653-1.94,1.374-2.662C76.281,0.572,77.685,0,79.351,0
		c1.681,0,3.092,0.572,4.233,1.714c0.721,0.722,1.171,1.609,1.351,2.662C85.054,5.022,85.115,6.285,85.115,8.165z M82.684,8.165
		c0-1.368-0.023-2.241-0.068-2.616c-0.104-1.068-0.397-1.857-0.877-2.369c-0.617-0.661-1.412-0.992-2.387-0.992
		c-0.976,0-1.771,0.331-2.387,0.992c-0.48,0.512-0.774,1.301-0.877,2.369c-0.045,0.376-0.068,1.249-0.068,2.616
		c0,1.369,0.023,2.241,0.068,2.617c0.104,1.068,0.397,1.857,0.877,2.368c0.615,0.662,1.411,0.993,2.387,0.993
		c0.975,0,1.77-0.331,2.387-0.993c0.48-0.511,0.773-1.3,0.877-2.368C82.661,10.406,82.684,9.534,82.684,8.165z"/>
	<path fill="#3C3640" d="M102.316,14.436c-1.292,1.263-2.786,1.895-4.481,1.895c-1.667,0-3.07-0.571-4.21-1.714
		c-0.721-0.722-1.179-1.609-1.374-2.662c-0.121-0.662-0.18-1.925-0.18-3.79s0.059-3.127,0.18-3.789
		c0.194-1.053,0.653-1.94,1.374-2.662C94.766,0.572,96.169,0,97.836,0c1.695,0,3.189,0.631,4.48,1.895l-1.622,1.646
		c-0.9-0.902-1.854-1.354-2.858-1.354c-0.976,0-1.764,0.323-2.365,0.97c-0.48,0.511-0.772,1.301-0.877,2.369
		c-0.045,0.376-0.068,1.256-0.068,2.639c0,1.384,0.023,2.264,0.068,2.639c0.105,1.068,0.397,1.857,0.877,2.369
		c0.601,0.646,1.389,0.97,2.365,0.97c1.005,0,1.958-0.452,2.858-1.354L102.316,14.436z"/>
	<path fill="#3C3640" d="M111.953,16.195h-2.432V0.135h2.432V16.195z"/>
	<path fill="#3C3640" d="M131.877,16.195h-2.589l-1.103-3.225h-6.327l-1.104,3.225h-2.588l5.876-16.059H126L131.877,16.195z
		 M127.51,10.917l-2.432-7.15l-2.499,7.15H127.51z"/>
	<path fill="#3C3640" d="M148.246,16.195h-10.154V0.135h2.432v13.872h7.722V16.195z"/>
</g>
</svg>
