<?xml version="1.0" encoding="utf-8"?>
<!-- Generator: Adobe Illustrator 16.0.0, SVG Export Plug-In . SVG Version: 6.00 Build 0)  -->
<!DOCTYPE svg PUBLIC "-//W3C//DTD SVG 1.1//EN" "http://www.w3.org/Graphics/SVG/1.1/DTD/svg11.dtd">
<svg version="1.1" id="Layer_1" xmlns="http://www.w3.org/2000/svg" xmlns:xlink="http://www.w3.org/1999/xlink" x="0px" y="0px"
	 width="171.869px" height="56.969px" viewBox="0 0 171.869 56.969" enable-background="new 0 0 171.869 56.969"
	 xml:space="preserve">
<g>
	<path fill="#3C3640" d="M11.349,54.997c-1.36,1.315-2.872,1.972-4.535,1.972c-1.633,0-3.009-0.559-4.128-1.678
		c-0.695-0.695-1.141-1.542-1.337-2.54c-0.121-0.681-0.182-2.011-0.182-3.991s0.061-3.311,0.182-3.991
		c0.196-0.998,0.642-1.844,1.337-2.54c1.119-1.119,2.495-1.679,4.128-1.679c1.663,0,3.174,0.658,4.535,1.974l-1.156,1.156
		c-0.559-0.544-1.051-0.93-1.474-1.156c-0.56-0.288-1.195-0.431-1.905-0.431c-1.119,0-2.049,0.377-2.79,1.134
		c-0.483,0.498-0.802,1.125-0.952,1.881C2.951,45.774,2.89,46.991,2.89,48.76c0,1.77,0.061,2.986,0.182,3.651
		c0.15,0.756,0.469,1.384,0.952,1.882c0.741,0.756,1.67,1.135,2.79,1.135c0.71,0,1.345-0.144,1.905-0.432
		c0.423-0.227,0.915-0.613,1.474-1.156L11.349,54.997z"/>
	<path fill="#3C3640" d="M25.772,48.76c0,1.98-0.061,3.311-0.182,3.991c-0.196,0.998-0.643,1.845-1.338,2.54
		c-1.119,1.12-2.495,1.678-4.127,1.678c-1.633,0-3.009-0.559-4.127-1.678c-0.696-0.695-1.142-1.542-1.338-2.54
		c-0.121-0.681-0.182-2.011-0.182-3.991s0.061-3.311,0.182-3.991c0.196-0.998,0.642-1.844,1.338-2.54
		c1.119-1.119,2.495-1.679,4.127-1.679c1.632,0,3.008,0.56,4.127,1.679c0.695,0.696,1.142,1.542,1.338,2.54
		C25.711,45.45,25.772,46.78,25.772,48.76z M24.048,48.76c0-1.769-0.061-2.979-0.181-3.628c-0.151-0.755-0.469-1.383-0.952-1.882
		c-0.757-0.771-1.687-1.156-2.79-1.156s-2.033,0.385-2.79,1.156c-0.483,0.5-0.801,1.127-0.952,1.882
		c-0.122,0.65-0.182,1.859-0.182,3.628s0.06,2.979,0.182,3.628c0.15,0.756,0.468,1.383,0.952,1.882
		c0.756,0.771,1.686,1.156,2.79,1.156s2.033-0.386,2.79-1.156c0.483-0.5,0.801-1.126,0.952-1.882
		C23.988,51.739,24.048,50.529,24.048,48.76z"/>
	<path fill="#3C3640" d="M43.664,56.833H41.94V44.564l-4.422,9.729h-1.474l-4.49-9.729v12.269h-1.723V40.688h1.723l5.261,11.452
		l5.125-11.452h1.724L43.664,56.833L43.664,56.833z"/>
	<path fill="#3C3640" d="M59.333,45.426c0,1.437-0.461,2.59-1.384,3.459s-2.124,1.304-3.606,1.304h-4.286v6.645h-1.723V40.688h6.009
		c1.482,0,2.684,0.43,3.606,1.292C58.873,42.842,59.333,43.991,59.333,45.426z M57.61,45.426c0-1.042-0.31-1.836-0.929-2.38
		c-0.621-0.544-1.452-0.816-2.495-0.816h-4.127v6.417h4.127c1.043,0,1.875-0.275,2.495-0.827C57.3,47.268,57.61,46.471,57.61,45.426
		z"/>
	<path fill="#3C3640" d="M73.665,51.504c0,1.603-0.533,2.914-1.599,3.935c-1.065,1.021-2.415,1.53-4.048,1.53
		s-2.978-0.51-4.037-1.53c-1.059-1.021-1.587-2.332-1.587-3.935V40.688h1.724v10.681c0,1.225,0.354,2.208,1.065,2.948
		c0.71,0.742,1.656,1.112,2.834,1.112c1.18,0,2.127-0.371,2.846-1.112c0.718-0.741,1.077-1.724,1.077-2.948V40.688h1.723
		L73.665,51.504L73.665,51.504z"/>
	<path fill="#3C3640" d="M87.521,42.229h-4.671v14.604h-1.724V42.229h-4.671v-1.542h11.066V42.229L87.521,42.229z"/>
	<path fill="#3C3640" d="M92.26,56.833h-1.724V40.688h1.724V56.833z"/>
	<path fill="#3C3640" d="M108.859,56.833h-1.633l-8.572-12.949v12.949h-1.724V40.688h1.633l8.572,12.903V40.688h1.724V56.833z"/>
	<path fill="#3C3640" d="M124.212,50.937c0,1.784-0.462,3.175-1.383,4.173c-1.149,1.24-2.571,1.859-4.264,1.859
		c-1.633,0-3.009-0.559-4.128-1.678c-0.695-0.695-1.141-1.542-1.337-2.54c-0.122-0.681-0.183-2.011-0.183-3.991
		s0.061-3.311,0.183-3.991c0.196-0.998,0.642-1.844,1.337-2.54c1.119-1.119,2.495-1.679,4.128-1.679
		c1.012,0,1.904,0.189,2.676,0.567c0.665,0.318,1.383,0.862,2.154,1.633l-1.156,1.157c-0.635-0.635-1.179-1.081-1.633-1.338
		c-0.59-0.318-1.271-0.476-2.041-0.476c-1.104,0-2.034,0.384-2.789,1.156c-0.484,0.5-0.802,1.127-0.953,1.882
		c-0.121,0.65-0.181,1.86-0.181,3.628c0,1.77,0.06,2.986,0.181,3.651c0.151,0.756,0.468,1.384,0.953,1.882
		c0.74,0.756,1.67,1.135,2.789,1.135c1.254,0,2.267-0.462,3.039-1.384c0.589-0.71,0.884-1.693,0.884-2.948v-1.202h-3.923v-1.52
		h5.646V50.937z"/>
	<path fill="#3C3640" d="M143.781,56.833h-9.978V40.688h1.724v14.604h8.254L143.781,56.833L143.781,56.833z"/>
	<path fill="#3C3640" d="M158.045,56.833h-1.836l-1.292-3.651h-7.053l-1.293,3.651h-1.836l5.941-16.146h1.451L158.045,56.833z
		 M154.417,51.686l-2.993-8.527l-3.04,8.527H154.417z"/>
	<path fill="#3C3640" d="M171.743,52.366c0,1.436-0.436,2.54-1.304,3.31c-0.87,0.771-2.037,1.157-3.504,1.157h-6.282V40.688h6.078
		c1.421,0,2.57,0.385,3.448,1.156c0.876,0.771,1.315,1.822,1.315,3.152c0,0.832-0.224,1.564-0.67,2.2
		c-0.445,0.635-1.017,1.081-1.711,1.338C170.865,49.183,171.743,50.461,171.743,52.366z M169.769,45.019
		c0-0.922-0.291-1.618-0.872-2.086c-0.583-0.468-1.35-0.703-2.302-0.703h-4.218v5.602h4.218c0.936,0,1.701-0.239,2.29-0.715
		C169.473,46.639,169.769,45.941,169.769,45.019z M170.019,52.321c0-0.907-0.291-1.625-0.873-2.155s-1.372-0.793-2.37-0.793h-4.399
		v5.918h4.399c0.998,0,1.788-0.269,2.37-0.805S170.019,53.228,170.019,52.321z"/>
</g>
<path fill="#E74C35" d="M171.869,28.856c0.008,0.231-0.174,0.426-0.404,0.434l-3.571,0.125c-0.231,0.008-0.427-0.173-0.435-0.405
	l-0.124-3.536c-0.008-0.232,0.175-0.426,0.406-0.434l3.57-0.125c0.231-0.008,0.427,0.173,0.434,0.405L171.869,28.856z"/>
<path fill="#E74C35" d="M146.952,29.726c0.008,0.233-0.174,0.427-0.405,0.435l-3.571,0.125c-0.231,0.008-0.426-0.173-0.434-0.406
	l-0.123-3.534c-0.009-0.232,0.173-0.428,0.405-0.436l3.571-0.124c0.231-0.008,0.426,0.173,0.434,0.406L146.952,29.726z"/>
<path fill="#E74C35" d="M117.541,30.754c0.008,0.231-0.173,0.426-0.405,0.435l-3.57,0.124c-0.232,0.008-0.427-0.173-0.436-0.405
	l-0.123-3.536c-0.009-0.231,0.173-0.426,0.406-0.435l3.57-0.124c0.232-0.008,0.427,0.173,0.436,0.404L117.541,30.754z"/>
<path fill="#965BA5" d="M94.102,31.572c0.008,0.232-0.173,0.426-0.405,0.434l-3.57,0.125c-0.232,0.008-0.427-0.173-0.435-0.405
	l-0.124-3.535c-0.008-0.232,0.174-0.427,0.406-0.435l3.571-0.125c0.231-0.008,0.426,0.173,0.434,0.405L94.102,31.572z"/>
<path fill="#E74C35" d="M88.145,31.745c0.009,0.231-0.173,0.426-0.405,0.435l-3.57,0.124c-0.232,0.009-0.427-0.173-0.435-0.405
	l-0.124-3.536c-0.008-0.232,0.173-0.426,0.406-0.435l3.57-0.125c0.231-0.008,0.426,0.173,0.435,0.405L88.145,31.745z"/>
<path fill="#E74C35" d="M47.213,33.207c0.008,0.231-0.173,0.426-0.406,0.435l-3.57,0.124c-0.232,0.009-0.427-0.173-0.435-0.405
	l-0.124-3.535c-0.008-0.233,0.173-0.427,0.406-0.436l3.57-0.125c0.232-0.009,0.427,0.173,0.435,0.406L47.213,33.207z"/>
<path fill="#4BA1D9" d="M41.301,33.413c0.008,0.231-0.173,0.427-0.405,0.435l-3.57,0.125c-0.232,0.009-0.427-0.173-0.435-0.406
	l-0.124-3.535c-0.008-0.232,0.173-0.427,0.405-0.435l3.57-0.125c0.232-0.008,0.426,0.173,0.435,0.406L41.301,33.413z"/>
<path fill="#965BA5" d="M28.127,33.873c0.008,0.232-0.173,0.427-0.405,0.434l-3.57,0.126c-0.232,0.007-0.427-0.174-0.435-0.406
	l-0.124-3.535c-0.008-0.233,0.174-0.427,0.406-0.436l3.57-0.125c0.232-0.009,0.427,0.173,0.435,0.406L28.127,33.873z"/>
<path fill="#4BA1D9" d="M11.921,34.439c0.008,0.231-0.173,0.427-0.405,0.435l-3.57,0.125c-0.232,0.008-0.427-0.174-0.435-0.406
	l-0.124-3.535c-0.008-0.233,0.173-0.427,0.406-0.435l3.57-0.125c0.232-0.008,0.427,0.174,0.435,0.406L11.921,34.439z"/>
<path fill="#965BA5" d="M5.986,34.646c0.008,0.231-0.173,0.427-0.405,0.435l-3.57,0.125c-0.233,0.008-0.427-0.174-0.436-0.406
	l-0.124-3.536c-0.008-0.231,0.173-0.426,0.406-0.435l3.57-0.124c0.232-0.009,0.427,0.173,0.435,0.406L5.986,34.646z"/>
<path fill="#4BA1D9" d="M165.997,29.061c0.009,0.233-0.173,0.427-0.405,0.435l-3.57,0.124c-0.232,0.009-0.426-0.172-0.434-0.405
	l-0.124-3.535c-0.008-0.232,0.173-0.427,0.405-0.435l3.571-0.125c0.232-0.008,0.426,0.173,0.434,0.406L165.997,29.061z"/>
<path fill="#4BA1D9" d="M133.777,30.151c0.009,0.232-0.173,0.427-0.405,0.435l-3.571,0.125c-0.232,0.008-0.427-0.173-0.435-0.406
	l-0.124-3.535c-0.008-0.232,0.174-0.427,0.406-0.435l3.57-0.125c0.232-0.008,0.426,0.173,0.435,0.406L133.777,30.151z"/>
<path fill="#965BA5" d="M127.264,26.453l-7.923,0.277c-0.233,0.008-0.414,0.202-0.405,0.435l0.124,3.535
	c0.008,0.233,0.203,0.415,0.435,0.405l7.923-0.276c0.231-0.009,0.414-0.203,0.406-0.435l-0.124-3.535
	C127.691,26.627,127.496,26.445,127.264,26.453z"/>
<path fill="#4BA1D9" d="M103.809,27.271l-7.923,0.278c-0.232,0.009-0.413,0.203-0.405,0.434l0.124,3.536
	c0.008,0.232,0.202,0.414,0.435,0.405l7.922-0.276c0.231-0.009,0.414-0.203,0.406-0.435l-0.124-3.536
	C104.235,27.446,104.041,27.264,103.809,27.271z"/>
<path fill="#4BA1D9" d="M74.413,28.264l-7.923,0.277c-0.232,0.008-0.414,0.203-0.406,0.435l0.124,3.535
	c0.008,0.232,0.203,0.413,0.435,0.405l7.923-0.277c0.232-0.008,0.413-0.202,0.406-0.434l-0.124-3.535
	C74.839,28.437,74.645,28.255,74.413,28.264z"/>
<path fill="#965BA5" d="M56.92,28.907l-7.923,0.277c-0.231,0.008-0.414,0.202-0.405,0.434l0.123,3.536
	c0.008,0.231,0.203,0.414,0.435,0.406l7.923-0.277c0.232-0.008,0.414-0.204,0.405-0.435l-0.124-3.535
	C57.347,29.08,57.152,28.899,56.92,28.907z"/>
<path fill="#E74C35" d="M21.627,30.139l-7.923,0.277c-0.231,0.008-0.413,0.202-0.405,0.435l0.124,3.536
	c0.008,0.231,0.203,0.414,0.435,0.405l7.923-0.276c0.232-0.009,0.414-0.204,0.406-0.436l-0.123-3.535
	C22.055,30.312,21.86,30.131,21.627,30.139z"/>
<path fill="#965BA5" d="M160.125,29.267c0.009,0.231-0.173,0.426-0.405,0.434l-3.571,0.125c-0.231,0.009-0.427-0.173-0.435-0.405
	l-0.124-3.535c-0.008-0.232,0.174-0.427,0.406-0.436l3.57-0.124c0.233-0.008,0.427,0.173,0.436,0.406L160.125,29.267z"/>
<path fill="#3C3640" d="M14.496,6.821c0,1.644-0.546,2.999-1.636,4.064c-1.091,1.067-2.535,1.6-4.332,1.6h-4.24v7.342H1.461V1.157
	h7.067c1.797,0,3.241,0.534,4.332,1.6C13.95,3.824,14.496,5.178,14.496,6.821z M11.669,6.821c0-0.979-0.301-1.744-0.903-2.294
	s-1.4-0.826-2.395-0.826H4.288v6.214h4.083c0.994,0,1.793-0.275,2.395-0.826C11.368,8.539,11.669,7.783,11.669,6.821z"/>
<path fill="#3C3640" d="M36.09,19.828h-3.298l-3.926-7.867h-3.534v7.867h-2.827V1.157h7.224c1.745,0,3.146,0.507,4.202,1.521
	c1.055,1.014,1.583,2.326,1.583,3.933c0,1.277-0.345,2.348-1.034,3.213c-0.69,0.865-1.584,1.447-2.684,1.743L36.09,19.828z
	 M32.688,6.651c0-0.913-0.289-1.633-0.864-2.16c-0.576-0.526-1.343-0.79-2.303-0.79h-4.188v5.874h4.188
	c0.959,0,1.728-0.259,2.303-0.777C32.4,8.28,32.688,7.564,32.688,6.651z"/>
<path fill="#3C3640" d="M56.952,10.493c0,2.185-0.07,3.654-0.21,4.405c-0.209,1.224-0.732,2.255-1.57,3.094
	c-1.326,1.329-2.967,1.994-4.921,1.994c-1.937,0-3.568-0.665-4.895-1.994c-0.838-0.839-1.37-1.871-1.596-3.094
	c-0.14-0.77-0.209-2.237-0.209-4.405s0.069-3.636,0.209-4.405c0.227-1.224,0.758-2.255,1.596-3.094C46.682,1.665,48.314,1,50.25,1
	c1.955,0,3.595,0.665,4.921,1.993c0.838,0.839,1.361,1.871,1.57,3.094C56.881,6.839,56.952,8.307,56.952,10.493z M54.125,10.493
	c0-1.59-0.026-2.604-0.079-3.042c-0.123-1.242-0.462-2.159-1.021-2.754c-0.716-0.769-1.641-1.154-2.775-1.154
	c-1.135,0-2.059,0.385-2.774,1.154c-0.558,0.595-0.899,1.512-1.021,2.754c-0.053,0.437-0.079,1.451-0.079,3.042
	c0,1.591,0.026,2.605,0.079,3.042c0.122,1.242,0.462,2.159,1.021,2.754c0.715,0.769,1.64,1.152,2.774,1.152
	c1.134,0,2.059-0.384,2.775-1.152c0.558-0.595,0.898-1.513,1.021-2.754C54.099,13.098,54.125,12.083,54.125,10.493z"/>
<path fill="#3C3640" d="M77.394,14.504c0,1.696-0.62,3.034-1.858,4.012c-1.239,0.979-2.853,1.47-4.843,1.47
	c-2.774,0-4.973-0.822-6.596-2.466l1.885-1.861c1.186,1.189,2.774,1.783,4.763,1.783c1.222,0,2.168-0.249,2.84-0.747
	c0.671-0.498,1.008-1.202,1.008-2.11c0-0.84-0.245-1.486-0.733-1.941c-0.418-0.384-1.099-0.647-2.042-0.787l-2.198-0.314
	c-1.536-0.227-2.714-0.725-3.534-1.495c-0.908-0.856-1.361-2.045-1.361-3.566c0-1.643,0.558-2.967,1.675-3.973
	C67.517,1.503,69.035,1,70.955,1c2.338,0,4.267,0.708,5.785,2.124l-1.806,1.783c-1.013-0.961-2.365-1.442-4.058-1.442
	c-1.064,0-1.897,0.271-2.5,0.812c-0.602,0.542-0.903,1.241-0.903,2.098c0,0.734,0.24,1.315,0.72,1.744
	c0.48,0.428,1.173,0.712,2.081,0.852l2.12,0.314c1.536,0.228,2.696,0.691,3.481,1.39C76.888,11.567,77.394,12.844,77.394,14.504z"/>
<path fill="#3C3640" d="M98.464,10.493c0,2.185-0.069,3.654-0.209,4.405c-0.209,1.224-0.732,2.255-1.57,3.094
	c-1.326,1.329-2.967,1.994-4.921,1.994c-1.937,0-3.569-0.665-4.895-1.994c-0.838-0.839-1.37-1.871-1.597-3.094
	c-0.14-0.77-0.209-2.237-0.209-4.405s0.07-3.636,0.209-4.405c0.227-1.224,0.759-2.255,1.597-3.094C88.195,1.665,89.827,1,91.764,1
	c1.954,0,3.595,0.665,4.921,1.993c0.838,0.839,1.361,1.871,1.57,3.094C98.395,6.839,98.464,8.307,98.464,10.493z M95.638,10.493
	c0-1.59-0.026-2.604-0.079-3.042c-0.122-1.242-0.462-2.159-1.02-2.754c-0.717-0.769-1.641-1.154-2.775-1.154
	s-2.059,0.385-2.774,1.154c-0.559,0.595-0.9,1.512-1.021,2.754c-0.053,0.437-0.079,1.451-0.079,3.042
	c0,1.591,0.026,2.605,0.079,3.042c0.121,1.242,0.462,2.159,1.021,2.754c0.715,0.769,1.64,1.152,2.774,1.152s2.059-0.384,2.775-1.152
	c0.558-0.595,0.898-1.513,1.02-2.754C95.612,13.098,95.638,12.083,95.638,10.493z"/>
<path fill="#3C3640" d="M118.462,17.783c-1.501,1.468-3.237,2.203-5.209,2.203c-1.938,0-3.568-0.665-4.895-1.994
	c-0.838-0.839-1.37-1.871-1.596-3.094c-0.141-0.77-0.209-2.237-0.209-4.405s0.068-3.636,0.209-4.405
	c0.226-1.224,0.758-2.255,1.596-3.094C109.685,1.665,111.316,1,113.253,1c1.972,0,3.708,0.734,5.209,2.202l-1.884,1.915
	c-1.047-1.049-2.155-1.573-3.324-1.573c-1.135,0-2.051,0.375-2.749,1.127c-0.559,0.595-0.898,1.512-1.021,2.754
	c-0.053,0.437-0.079,1.46-0.079,3.068c0,1.608,0.027,2.631,0.079,3.068c0.123,1.241,0.462,2.159,1.021,2.753
	c0.698,0.752,1.614,1.128,2.749,1.128c1.169,0,2.277-0.524,3.324-1.573L118.462,17.783z"/>
<path fill="#3C3640" d="M129.665,19.828h-2.827V1.157h2.827V19.828z"/>
<path fill="#3C3640" d="M152.829,19.828h-3.009l-1.283-3.749h-7.356l-1.282,3.749h-3.009l6.831-18.67h2.277L152.829,19.828z
	 M147.751,13.691l-2.827-8.312l-2.906,8.312H147.751z"/>
<path fill="#3C3640" d="M171.858,19.828h-11.805V1.157h2.827v16.127h8.978V19.828z"/>
</svg>
