<?xml version="1.0" encoding="utf-8"?>
<!-- Generator: Adobe Illustrator 16.0.0, SVG Export Plug-In . SVG Version: 6.00 Build 0)  -->
<!DOCTYPE svg PUBLIC "-//W3C//DTD SVG 1.1//EN" "http://www.w3.org/Graphics/SVG/1.1/DTD/svg11.dtd">
<svg version="1.1" id="Layer_1" xmlns="http://www.w3.org/2000/svg" xmlns:xlink="http://www.w3.org/1999/xlink" x="0px" y="0px"
	 width="134.302px" height="44.651px" viewBox="0 0 134.302 44.651" enable-background="new 0 0 134.302 44.651"
	 xml:space="preserve">
<g>
	<path fill="#A8A8A8" d="M8.525,42.374c-1.061,1.026-2.24,1.538-3.537,1.538c-1.273,0-2.347-0.436-3.22-1.309
		c-0.542-0.542-0.89-1.202-1.042-1.981c-0.094-0.53-0.142-1.567-0.142-3.112c0-1.544,0.048-2.582,0.142-3.112
		c0.153-0.778,0.5-1.438,1.042-1.981c0.873-0.873,1.946-1.31,3.22-1.31c1.297,0,2.475,0.514,3.537,1.539l-0.902,0.902
		c-0.436-0.425-0.82-0.726-1.149-0.902c-0.437-0.224-0.932-0.336-1.486-0.336c-0.873,0-1.598,0.294-2.176,0.885
		c-0.376,0.389-0.625,0.877-0.743,1.467c-0.094,0.52-0.142,1.469-0.142,2.849c0,1.381,0.048,2.329,0.142,2.848
		c0.118,0.59,0.366,1.079,0.743,1.468c0.578,0.59,1.303,0.885,2.176,0.885c0.554,0,1.049-0.111,1.486-0.336
		c0.33-0.177,0.713-0.479,1.149-0.902L8.525,42.374z"/>
	<path fill="#A8A8A8" d="M19.773,37.51c0,1.545-0.047,2.582-0.142,3.112c-0.152,0.779-0.501,1.439-1.043,1.981
		c-0.873,0.874-1.946,1.309-3.219,1.309c-1.273,0-2.347-0.436-3.219-1.309c-0.543-0.542-0.891-1.202-1.043-1.981
		c-0.094-0.53-0.142-1.567-0.142-3.112c0-1.544,0.047-2.582,0.142-3.112c0.153-0.778,0.5-1.438,1.043-1.981
		c0.873-0.873,1.946-1.31,3.219-1.31c1.273,0,2.346,0.437,3.219,1.31c0.542,0.543,0.891,1.203,1.043,1.981
		C19.726,34.929,19.773,35.966,19.773,37.51z M18.429,37.51c0-1.38-0.047-2.323-0.141-2.829c-0.118-0.589-0.366-1.079-0.743-1.468
		c-0.59-0.603-1.316-0.902-2.176-0.902c-0.86,0-1.585,0.3-2.176,0.902c-0.376,0.39-0.625,0.879-0.743,1.468
		c-0.095,0.507-0.142,1.449-0.142,2.829s0.047,2.323,0.142,2.83c0.117,0.59,0.365,1.079,0.743,1.467
		c0.589,0.602,1.315,0.902,2.176,0.902c0.861,0,1.586-0.301,2.176-0.902c0.376-0.39,0.625-0.877,0.743-1.467
		C18.382,39.833,18.429,38.89,18.429,37.51z"/>
	<path fill="#A8A8A8" d="M33.728,43.807h-1.345v-9.569l-3.449,7.588h-1.15l-3.501-7.588v9.569h-1.344V31.214h1.344l4.103,8.933
		l3.997-8.933h1.345V43.807L33.728,43.807z"/>
	<path fill="#A8A8A8" d="M45.949,34.909c0,1.121-0.36,2.021-1.08,2.698c-0.72,0.678-1.656,1.018-2.812,1.018h-3.342v5.182H37.37
		V31.214h4.687c1.156,0,2.093,0.336,2.812,1.009C45.59,32.895,45.949,33.791,45.949,34.909z M44.604,34.909
		c0-0.812-0.242-1.432-0.724-1.855c-0.484-0.425-1.133-0.637-1.946-0.637h-3.218v5.004h3.218c0.813,0,1.462-0.214,1.946-0.644
		C44.363,36.346,44.604,35.725,44.604,34.909z"/>
	<path fill="#A8A8A8" d="M57.126,39.65c0,1.25-0.416,2.272-1.247,3.069c-0.831,0.796-1.884,1.192-3.157,1.192
		c-1.274,0-2.323-0.397-3.148-1.192c-0.826-0.797-1.238-1.819-1.238-3.069v-8.437h1.345v8.331c0,0.955,0.276,1.722,0.831,2.299
		c0.554,0.578,1.292,0.868,2.21,0.868c0.92,0,1.659-0.29,2.219-0.868c0.56-0.577,0.84-1.345,0.84-2.299v-8.331h1.344L57.126,39.65
		L57.126,39.65z"/>
	<path fill="#A8A8A8" d="M67.933,32.416H64.29v11.391h-1.345V32.416h-3.643v-1.202h8.63V32.416L67.933,32.416z"/>
	<path fill="#A8A8A8" d="M71.629,43.807h-1.344V31.214h1.344V43.807z"/>
	<path fill="#A8A8A8" d="M84.575,43.807h-1.273l-6.686-10.1v10.1h-1.343V31.214h1.273l6.685,10.063V31.214h1.344V43.807z"/>
	<path fill="#A8A8A8" d="M96.55,39.208c0,1.391-0.361,2.476-1.08,3.254c-0.895,0.967-2.004,1.45-3.324,1.45
		c-1.273,0-2.348-0.436-3.221-1.309c-0.541-0.542-0.889-1.202-1.041-1.981c-0.096-0.53-0.145-1.567-0.145-3.112
		c0-1.544,0.049-2.582,0.145-3.112c0.152-0.778,0.5-1.438,1.041-1.981c0.873-0.873,1.947-1.31,3.221-1.31
		c0.789,0,1.484,0.147,2.086,0.442c0.52,0.249,1.08,0.672,1.682,1.273l-0.902,0.903c-0.496-0.496-0.92-0.844-1.273-1.045
		c-0.461-0.247-0.992-0.371-1.592-0.371c-0.861,0-1.588,0.3-2.176,0.902c-0.377,0.39-0.625,0.879-0.742,1.468
		c-0.096,0.507-0.143,1.45-0.143,2.829c0,1.381,0.047,2.329,0.143,2.848c0.117,0.59,0.363,1.079,0.742,1.468
		c0.578,0.59,1.303,0.886,2.176,0.886c0.979,0,1.768-0.36,2.369-1.08c0.459-0.554,0.689-1.32,0.689-2.299v-0.938h-3.059v-1.186
		h4.402v2H96.55z"/>
	<path fill="#A8A8A8" d="M111.812,43.807h-7.781V31.214h1.344v11.391h6.438V43.807L111.812,43.807z"/>
	<path fill="#A8A8A8" d="M122.937,43.807h-1.432l-1.008-2.849h-5.5l-1.01,2.849h-1.432l4.633-12.593h1.133L122.937,43.807z
		 M120.106,39.792l-2.334-6.65l-2.371,6.65H120.106z"/>
	<path fill="#A8A8A8" d="M133.62,40.322c0,1.12-0.34,1.981-1.018,2.581c-0.678,0.602-1.59,0.903-2.732,0.903h-4.9V31.214h4.742
		c1.107,0,2.004,0.301,2.688,0.902s1.025,1.421,1.025,2.458c0,0.649-0.174,1.221-0.521,1.716s-0.793,0.844-1.336,1.044
		C132.935,37.84,133.62,38.837,133.62,40.322z M132.079,34.593c0-0.719-0.227-1.263-0.678-1.627
		c-0.457-0.365-1.055-0.549-1.797-0.549h-3.289v4.369h3.289c0.73,0,1.326-0.187,1.785-0.558
		C131.851,35.855,132.079,35.312,132.079,34.593z M132.274,40.287c0-0.707-0.227-1.268-0.68-1.681
		c-0.455-0.413-1.07-0.618-1.848-0.618h-3.432v4.615h3.432c0.777,0,1.393-0.21,1.848-0.628
		C132.048,41.558,132.274,40.995,132.274,40.287z"/>
</g>
<path fill="#A8A8A8" d="M133.718,21.986c0.006,0.18-0.137,0.333-0.314,0.338l-2.785,0.098c-0.18,0.006-0.334-0.135-0.34-0.316
	l-0.096-2.758c-0.008-0.181,0.135-0.333,0.316-0.338l2.785-0.098c0.18-0.006,0.332,0.135,0.338,0.316L133.718,21.986z"/>
<path fill="#A8A8A8" d="M114.284,22.665c0.006,0.182-0.135,0.333-0.316,0.339l-2.785,0.097c-0.18,0.006-0.332-0.135-0.338-0.317
	l-0.096-2.756c-0.006-0.181,0.135-0.334,0.316-0.34l2.785-0.097c0.18-0.006,0.332,0.135,0.338,0.317L114.284,22.665z"/>
<path fill="#A8A8A8" d="M91.347,23.466c0.006,0.18-0.135,0.333-0.316,0.34l-2.785,0.096c-0.18,0.006-0.332-0.134-0.34-0.315
	l-0.096-2.758c-0.006-0.18,0.137-0.333,0.316-0.339l2.785-0.097c0.182-0.006,0.334,0.135,0.34,0.315L91.347,23.466z"/>
<path fill="#A8A8A8" d="M73.066,24.105c0.006,0.181-0.135,0.332-0.316,0.338l-2.784,0.098c-0.18,0.006-0.333-0.135-0.339-0.315
	l-0.098-2.757c-0.006-0.181,0.137-0.333,0.317-0.339l2.785-0.098c0.181-0.006,0.333,0.135,0.339,0.316L73.066,24.105z"/>
<path fill="#A8A8A8" d="M68.42,24.24c0.006,0.18-0.135,0.332-0.316,0.339l-2.785,0.097c-0.181,0.006-0.333-0.135-0.339-0.316
	l-0.097-2.758c-0.006-0.181,0.135-0.332,0.317-0.339l2.784-0.097c0.18-0.006,0.332,0.135,0.34,0.316L68.42,24.24z"/>
<path fill="#A8A8A8" d="M36.496,25.38c0.007,0.18-0.135,0.332-0.316,0.339l-2.784,0.096c-0.181,0.008-0.333-0.135-0.339-0.315
	l-0.097-2.757c-0.006-0.182,0.135-0.334,0.316-0.34l2.784-0.098c0.182-0.007,0.333,0.134,0.339,0.316L36.496,25.38z"/>
<path fill="#A8A8A8" d="M31.885,25.541c0.006,0.181-0.135,0.333-0.316,0.339l-2.784,0.098c-0.181,0.007-0.333-0.135-0.339-0.317
	l-0.097-2.756c-0.007-0.182,0.135-0.333,0.315-0.339l2.785-0.098c0.181-0.007,0.332,0.134,0.339,0.316L31.885,25.541z"/>
<path fill="#A8A8A8" d="M21.61,25.899c0.006,0.181-0.135,0.333-0.316,0.338l-2.785,0.099c-0.181,0.004-0.333-0.136-0.339-0.317
	l-0.097-2.757c-0.006-0.182,0.136-0.333,0.317-0.339l2.784-0.098c0.181-0.008,0.333,0.134,0.339,0.316L21.61,25.899z"/>
<path fill="#A8A8A8" d="M8.971,26.341c0.006,0.18-0.135,0.333-0.316,0.339l-2.784,0.098c-0.181,0.006-0.333-0.136-0.339-0.317
	l-0.097-2.756c-0.007-0.182,0.135-0.333,0.316-0.34l2.784-0.097c0.181-0.006,0.333,0.135,0.339,0.317L8.971,26.341z"/>
<path fill="#A8A8A8" d="M4.342,26.502c0.006,0.18-0.135,0.333-0.316,0.339l-2.784,0.098c-0.182,0.006-0.333-0.136-0.34-0.317
	l-0.097-2.758c-0.006-0.18,0.135-0.332,0.316-0.339l2.784-0.097c0.181-0.007,0.333,0.135,0.339,0.317L4.342,26.502z"/>
<path fill="#A8A8A8" d="M129.138,22.146c0.008,0.182-0.135,0.333-0.314,0.339l-2.785,0.097c-0.182,0.007-0.332-0.134-0.338-0.316
	l-0.098-2.757c-0.006-0.181,0.137-0.333,0.316-0.339l2.785-0.097c0.18-0.007,0.332,0.135,0.338,0.316L129.138,22.146z"/>
<path fill="#A8A8A8" d="M104.009,22.996c0.008,0.182-0.135,0.334-0.314,0.34l-2.787,0.098c-0.18,0.006-0.332-0.135-0.338-0.317
	l-0.098-2.757c-0.006-0.181,0.137-0.333,0.316-0.339l2.785-0.098c0.182-0.006,0.332,0.135,0.34,0.317L104.009,22.996z"/>
<path fill="#A8A8A8" d="M98.931,20.112l-6.18,0.216c-0.182,0.006-0.324,0.158-0.316,0.339l0.096,2.757
	c0.006,0.182,0.158,0.324,0.34,0.316l6.18-0.215c0.18-0.007,0.322-0.159,0.316-0.339l-0.096-2.757
	C99.263,20.248,99.11,20.106,98.931,20.112z"/>
<path fill="#A8A8A8" d="M80.637,20.75l-6.18,0.217c-0.181,0.007-0.322,0.158-0.315,0.338l0.096,2.758
	c0.006,0.181,0.158,0.323,0.339,0.315l6.179-0.215c0.18-0.007,0.323-0.158,0.317-0.339l-0.097-2.758
	C80.969,20.886,80.817,20.745,80.637,20.75z"/>
<path fill="#A8A8A8" d="M57.71,21.525l-6.179,0.216c-0.182,0.006-0.323,0.158-0.317,0.339l0.097,2.757
	c0.006,0.181,0.159,0.322,0.339,0.316l6.179-0.216c0.181-0.006,0.322-0.157,0.317-0.338l-0.097-2.757
	C58.042,21.66,57.891,21.518,57.71,21.525z"/>
<path fill="#A8A8A8" d="M44.066,22.026l-6.179,0.215c-0.18,0.006-0.323,0.158-0.316,0.339l0.096,2.758
	c0.006,0.18,0.158,0.323,0.339,0.316l6.18-0.216c0.181-0.006,0.323-0.159,0.316-0.339l-0.097-2.757
	C44.4,22.161,44.248,22.02,44.066,22.026z"/>
<path fill="#A8A8A8" d="M16.541,22.987l-6.179,0.216c-0.18,0.006-0.322,0.158-0.316,0.339l0.097,2.757
	c0.006,0.181,0.159,0.323,0.339,0.316l6.179-0.215c0.181-0.007,0.323-0.158,0.317-0.34l-0.096-2.757
	C16.875,23.122,16.722,22.98,16.541,22.987z"/>
<path fill="#A8A8A8" d="M124.56,22.307c0.006,0.18-0.137,0.332-0.316,0.338l-2.785,0.098c-0.18,0.007-0.334-0.136-0.34-0.316
	l-0.096-2.757c-0.008-0.181,0.135-0.333,0.316-0.34l2.783-0.097c0.182-0.007,0.334,0.135,0.34,0.316L124.56,22.307z"/>
<path fill="#A8A8A8" d="M10.979,4.8c0,1.283-0.426,2.339-1.276,3.17C8.852,8.803,7.726,9.218,6.324,9.218H3.018v5.726H0.813V0.383
	h5.511c1.402,0,2.528,0.417,3.379,1.248C10.553,2.463,10.979,3.519,10.979,4.8z M8.774,4.8c0-0.763-0.235-1.36-0.705-1.789
	C7.601,2.583,6.978,2.367,6.202,2.367H3.018v4.847h3.185C6.978,7.214,7.601,7,8.07,6.569C8.54,6.141,8.774,5.551,8.774,4.8z"/>
<path fill="#A8A8A8" d="M27.821,14.945h-2.572L22.187,8.81H19.43v6.136h-2.205V0.383h5.634c1.361,0,2.454,0.396,3.277,1.186
	c0.822,0.791,1.234,1.814,1.234,3.067c0,0.996-0.269,1.832-0.807,2.506c-0.538,0.674-1.235,1.128-2.093,1.359L27.821,14.945z
	 M25.167,4.668c0-0.712-0.226-1.273-0.674-1.685c-0.449-0.41-1.047-0.616-1.796-0.616h-3.266v4.582h3.266
	c0.748,0,1.348-0.202,1.796-0.606C24.943,5.939,25.167,5.38,25.167,4.668z"/>
<path fill="#A8A8A8" d="M44.092,7.665c0,1.704-0.055,2.85-0.164,3.436c-0.163,0.955-0.571,1.759-1.225,2.413
	c-1.034,1.037-2.314,1.555-3.838,1.555c-1.511,0-2.783-0.519-3.818-1.555c-0.653-0.654-1.068-1.459-1.245-2.413
	C33.694,10.5,33.64,9.355,33.64,7.665s0.054-2.836,0.163-3.436c0.177-0.955,0.591-1.759,1.245-2.413
	c1.035-1.037,2.307-1.555,3.817-1.555c1.524,0,2.804,0.519,3.838,1.555c0.653,0.654,1.062,1.459,1.225,2.413
	C44.036,4.814,44.092,5.96,44.092,7.665z M41.887,7.665c0-1.24-0.02-2.031-0.062-2.373c-0.096-0.969-0.36-1.684-0.796-2.147
	c-0.559-0.601-1.28-0.9-2.164-0.9c-0.885,0-1.606,0.3-2.164,0.9C36.266,3.608,36,4.323,35.905,5.292
	c-0.042,0.341-0.062,1.132-0.062,2.373s0.02,2.032,0.062,2.373c0.095,0.969,0.36,1.684,0.796,2.148
	c0.558,0.6,1.279,0.898,2.164,0.898c0.884,0,1.605-0.299,2.164-0.898c0.435-0.464,0.7-1.18,0.796-2.148
	C41.867,9.696,41.887,8.905,41.887,7.665z"/>
<path fill="#A8A8A8" d="M60.035,10.793c0,1.323-0.483,2.366-1.449,3.129c-0.967,0.764-2.225,1.146-3.777,1.146
	c-2.164,0-3.878-0.641-5.145-1.923l1.47-1.451c0.925,0.927,2.164,1.39,3.715,1.39c0.953,0,1.691-0.194,2.215-0.583
	c0.523-0.388,0.786-0.937,0.786-1.646c0-0.655-0.191-1.159-0.572-1.514c-0.326-0.3-0.857-0.505-1.592-0.614l-1.714-0.245
	c-1.198-0.177-2.117-0.565-2.756-1.166c-0.708-0.667-1.062-1.595-1.062-2.781c0-1.281,0.436-2.314,1.307-3.099
	s2.055-1.177,3.552-1.177c1.824,0,3.328,0.552,4.512,1.657l-1.409,1.391c-0.79-0.75-1.845-1.125-3.165-1.125
	c-0.83,0-1.479,0.211-1.95,0.633c-0.47,0.423-0.704,0.968-0.704,1.636c0,0.573,0.187,1.026,0.561,1.36
	c0.375,0.333,0.916,0.555,1.623,0.665l1.654,0.245c1.198,0.178,2.103,0.539,2.715,1.083C59.64,8.502,60.035,9.498,60.035,10.793z"/>
<path fill="#A8A8A8" d="M76.468,7.665c0,1.704-0.053,2.85-0.163,3.436c-0.163,0.955-0.571,1.759-1.225,2.413
	c-1.035,1.037-2.314,1.555-3.837,1.555c-1.511,0-2.785-0.519-3.818-1.555c-0.654-0.654-1.069-1.459-1.246-2.413
	c-0.109-0.601-0.163-1.745-0.163-3.436s0.054-2.836,0.163-3.436c0.177-0.955,0.592-1.759,1.246-2.413
	c1.033-1.037,2.307-1.555,3.818-1.555c1.523,0,2.803,0.519,3.837,1.555c0.653,0.654,1.062,1.459,1.225,2.413
	C76.415,4.814,76.468,5.96,76.468,7.665z M74.264,7.665c0-1.24-0.02-2.031-0.061-2.373c-0.096-0.969-0.361-1.684-0.796-2.147
	c-0.56-0.601-1.28-0.9-2.164-0.9c-0.885,0-1.606,0.3-2.164,0.9c-0.437,0.464-0.703,1.179-0.797,2.147
	c-0.041,0.341-0.062,1.132-0.062,2.373s0.021,2.032,0.062,2.373c0.094,0.969,0.36,1.684,0.797,2.148
	c0.557,0.6,1.279,0.898,2.164,0.898c0.884,0,1.605-0.299,2.164-0.898c0.435-0.464,0.7-1.18,0.796-2.148
	C74.244,9.696,74.264,8.905,74.264,7.665z"/>
<path fill="#A8A8A8" d="M92.065,13.351c-1.172,1.145-2.525,1.718-4.062,1.718c-1.512,0-2.784-0.519-3.818-1.555
	c-0.653-0.654-1.069-1.459-1.245-2.413c-0.11-0.601-0.163-1.745-0.163-3.436s0.053-2.836,0.163-3.436
	c0.175-0.955,0.591-1.759,1.245-2.413c1.034-1.037,2.307-1.555,3.818-1.555c1.537,0,2.891,0.572,4.062,1.717l-1.471,1.494
	c-0.816-0.818-1.68-1.227-2.592-1.227c-0.885,0-1.599,0.292-2.144,0.879c-0.436,0.464-0.701,1.18-0.797,2.148
	c-0.041,0.341-0.061,1.139-0.061,2.393s0.021,2.052,0.061,2.393c0.096,0.967,0.361,1.684,0.797,2.147
	c0.545,0.586,1.259,0.879,2.144,0.879c0.912,0,1.775-0.408,2.592-1.227L92.065,13.351z"/>
<path fill="#A8A8A8" d="M100.802,14.945h-2.205V0.383h2.205V14.945z"/>
<path fill="#A8A8A8" d="M118.868,14.945h-2.348l-1-2.924h-5.736l-1,2.924h-2.348l5.328-14.561h1.775L118.868,14.945z
	 M114.907,10.159l-2.205-6.483l-2.266,6.483H114.907z"/>
<path fill="#A8A8A8" d="M133.71,14.945h-9.207V0.383h2.205v12.578h7.002V14.945z"/>
</svg>
