<?xml version="1.0" encoding="utf-8"?>
<!-- Generator: Adobe Illustrator 16.0.0, SVG Export Plug-In . SVG Version: 6.00 Build 0)  -->
<!DOCTYPE svg PUBLIC "-//W3C//DTD SVG 1.1//EN" "http://www.w3.org/Graphics/SVG/1.1/DTD/svg11.dtd">
<svg version="1.1" id="Layer_1" xmlns="http://www.w3.org/2000/svg" xmlns:xlink="http://www.w3.org/1999/xlink" x="0px" y="0px"
	 width="224.516px" height="161.12px" viewBox="0 0 224.516 161.12" enable-background="new 0 0 224.516 161.12"
	 xml:space="preserve">
<path fill="#EF382C" d="M150.444,136.865c0,0.287-0.234,0.521-0.521,0.521H145.5c-0.287,0-0.52-0.233-0.52-0.521v-4.38
	c0-0.289,0.23-0.52,0.52-0.52h4.424c0.287,0,0.52,0.23,0.52,0.52V136.865z"/>
<path fill="#965BA5" d="M52.27,147.914c0.205,0.203,0.203,0.532,0,0.735l-3.127,3.128c-0.203,0.203-0.533,0.203-0.735,0
	l-3.097-3.097c-0.204-0.205-0.205-0.533,0-0.737l3.127-3.128c0.203-0.203,0.531-0.201,0.736,0L52.27,147.914z"/>
<path fill="#4BA1D9" d="M130.722,93.547c-0.204,0.204-0.533,0.203-0.736,0l-3.127-3.127c-0.204-0.203-0.204-0.532,0-0.736
	l3.096-3.097c0.205-0.204,0.533-0.204,0.738,0l3.127,3.128c0.202,0.203,0.202,0.531-0.002,0.735L130.722,93.547z"/>
<path fill="#4BA1D9" d="M167.577,22.507c0-0.288,0.234-0.521,0.521-0.521h4.423c0.287,0,0.52,0.233,0.52,0.521v4.379
	c0,0.289-0.231,0.521-0.521,0.521h-4.423c-0.287,0-0.52-0.232-0.52-0.521V22.507z"/>
<path fill="#EF382C" d="M39.757,118.792h-9.815c-0.289,0-0.521,0.233-0.521,0.521v4.379c0,0.289,0.232,0.522,0.521,0.521h9.815
	c0.288,0,0.521-0.232,0.521-0.521v-4.379C40.278,119.027,40.045,118.792,39.757,118.792z"/>
<path fill="#965BA5" d="M20.5,137.983h-9.814c-0.289,0-0.52,0.232-0.52,0.521v4.38c-0.002,0.287,0.231,0.521,0.52,0.518l9.814,0.003
	c0.288-0.003,0.521-0.233,0.521-0.521v-4.38C21.022,138.216,20.789,137.983,20.5,137.983z"/>
<path fill="#EF382C" d="M117.635,86.973h-9.815c-0.288,0-0.52,0.233-0.52,0.521v4.379c-0.001,0.289,0.232,0.522,0.521,0.52
	l9.814,0.002c0.288-0.002,0.521-0.232,0.521-0.521v-4.379C118.157,87.208,117.923,86.973,117.635,86.973z"/>
<path fill="#965BA5" d="M160.32,95.581l-0.001-9.815c0-0.288-0.232-0.52-0.521-0.52h-4.379c-0.289-0.001-0.521,0.233-0.52,0.521
	l-0.002,9.814c0.002,0.288,0.232,0.521,0.521,0.521h4.379C160.085,96.102,160.32,95.869,160.32,95.581z"/>
<path fill="#EF382C" d="M128.717,68.477h9.815c0.289,0,0.521-0.232,0.521-0.521v-4.38c0-0.289-0.232-0.521-0.521-0.52h-9.815
	c-0.286,0-0.519,0.23-0.519,0.52v4.379C128.199,68.243,128.431,68.477,128.717,68.477z"/>
<path fill="#965BA5" d="M194.999,112.733h9.816c0.288,0,0.52-0.232,0.52-0.521v-4.38c0-0.288-0.232-0.521-0.521-0.52h-9.815
	c-0.287,0-0.52,0.231-0.52,0.52v4.379C194.479,112.5,194.711,112.733,194.999,112.733z"/>
<path fill="#4BA1D9" d="M95.975,133.65l-9.816,0.001c-0.289,0-0.52,0.232-0.52,0.521v4.379c0,0.288,0.232,0.522,0.52,0.521h9.816
	c0.287,0,0.52-0.233,0.52-0.521v-4.378C96.495,133.885,96.262,133.651,95.975,133.65z"/>
<path fill="#EF382C" d="M187.351,23.544l0.001,9.816c0,0.289,0.232,0.52,0.521,0.52h4.38c0.288,0,0.521-0.232,0.52-0.52v-9.816
	c0-0.287-0.231-0.52-0.52-0.52h-4.379C187.585,23.025,187.352,23.257,187.351,23.544z"/>
<path fill="#965BA5" d="M196.727,4.517v9.815c0,0.288,0.232,0.52,0.521,0.52h4.38c0.288,0.001,0.521-0.232,0.52-0.521V4.517
	c0-0.287-0.231-0.521-0.52-0.521h-4.379C196.961,3.996,196.727,4.23,196.727,4.517z"/>
<path fill="#EF382C" d="M147.186,48.531l6.941,6.939c0.205,0.204,0.532,0.203,0.736,0l3.096-3.098c0.205-0.203,0.205-0.533,0-0.735
	l-6.939-6.94c-0.203-0.203-0.531-0.203-0.736,0l-3.096,3.097C146.985,47.996,146.984,48.327,147.186,48.531z"/>
<path fill="#4BA1D9" d="M110.5,44.768l0.001,9.816c0,0.288,0.232,0.52,0.521,0.52h4.381c0.287,0,0.521-0.232,0.52-0.521v-9.815
	c0-0.287-0.232-0.52-0.52-0.52h-4.381C110.735,44.249,110.501,44.481,110.5,44.768z"/>
<path fill="#4BA1D9" d="M76.124,133.435v9.815c0,0.288,0.232,0.52,0.521,0.52h4.38c0.288,0,0.521-0.232,0.52-0.52l0.001-9.815
	c-0.001-0.288-0.232-0.521-0.521-0.521h-4.379C76.358,132.915,76.124,133.147,76.124,133.435z"/>
<path fill="#4BA1D9" d="M173.036,52.974l-0.001-9.816c0-0.289-0.233-0.52-0.521-0.52h-4.38c-0.288,0-0.521,0.231-0.52,0.52
	l-0.001,9.816c0.001,0.286,0.232,0.52,0.521,0.52h4.38C172.8,53.494,173.035,53.26,173.036,52.974z"/>
<path fill="#965BA5" d="M66.412,100.395l6.939-6.942c0.204-0.204,0.204-0.531,0-0.735l-3.097-3.097
	c-0.204-0.203-0.533-0.203-0.735,0.001l-6.941,6.939c-0.203,0.204-0.204,0.533,0,0.736l3.097,3.097
	C65.878,100.597,66.208,100.597,66.412,100.395z"/>
<path fill="#4BA1D9" d="M123.778,125.62l-9.816,0.001c-0.288,0-0.52,0.231-0.52,0.519v4.382c0,0.287,0.232,0.521,0.521,0.519h9.815
	c0.287,0,0.52-0.231,0.52-0.519v-4.38C124.297,125.854,124.065,125.62,123.778,125.62z"/>
<path fill="#EF382C" d="M193.486,73.03l0.001,9.816c0,0.288,0.232,0.52,0.52,0.52h4.381c0.288,0,0.521-0.232,0.52-0.521V73.03
	c0-0.287-0.231-0.52-0.52-0.52h-4.38C193.72,72.51,193.487,72.743,193.486,73.03z"/>
<path fill="#4BA1D9" d="M51.699,108.191l6.943,6.94c0.204,0.203,0.531,0.203,0.735,0l3.097-3.098c0.204-0.203,0.204-0.532,0-0.735
	l-6.94-6.94c-0.204-0.203-0.532-0.203-0.735,0l-3.097,3.098C51.499,107.658,51.497,107.989,51.699,108.191z"/>
<path fill="#965BA5" d="M66.689,137.454l-0.001-15.249c0-0.288-0.232-0.521-0.52-0.521h-4.381c-0.287,0-0.521,0.232-0.52,0.521
	v15.249c0,0.288,0.232,0.52,0.52,0.52h4.381C66.454,137.973,66.688,137.742,66.689,137.454z"/>
<path fill="#4BA1D9" d="M26.736,144.399l-10.782,10.783c-0.203,0.203-0.203,0.532,0,0.735l3.098,3.097
	c0.203,0.203,0.532,0.203,0.734,0l10.784-10.783c0.202-0.203,0.203-0.531,0-0.734l-3.097-3.098
	C27.27,144.196,26.94,144.196,26.736,144.399z"/>
<path fill="#EF382C" d="M46.375,142.055l-10.783-10.783c-0.204-0.204-0.533-0.204-0.736,0l-3.098,3.098
	c-0.203,0.203-0.203,0.532,0.002,0.734l10.781,10.785c0.205,0.202,0.533,0.203,0.736,0l3.097-3.098
	C46.578,142.588,46.579,142.258,46.375,142.055z"/>
<path fill="#965BA5" d="M98.231,107.395h-15.25c-0.287,0-0.52,0.232-0.52,0.521v4.38c0,0.287,0.232,0.521,0.52,0.52l15.25,0.001
	c0.287-0.001,0.52-0.233,0.52-0.521v-4.38C98.751,107.628,98.518,107.395,98.231,107.395z"/>
<path fill="#965BA5" d="M130.594,55.249l10.783-10.784c0.203-0.203,0.203-0.531,0-0.734l-3.098-3.098
	c-0.203-0.204-0.532-0.204-0.735,0.001l-10.783,10.782c-0.202,0.203-0.203,0.532,0,0.736l3.097,3.096
	C130.061,55.451,130.391,55.453,130.594,55.249z"/>
<path fill="#EF382C" d="M121.921,144.087l-15.25,0.001c-0.287,0-0.52,0.232-0.52,0.52v4.381c0,0.288,0.232,0.521,0.52,0.52
	l15.25,0.002c0.288-0.002,0.521-0.233,0.521-0.521v-4.379C122.443,144.323,122.208,144.087,121.921,144.087z"/>
<path fill="#4BA1D9" d="M132.502,124.902l0.002,15.249c0,0.289,0.23,0.521,0.52,0.521h4.38c0.288,0,0.521-0.231,0.52-0.521
	l0.001-15.249c-0.001-0.288-0.232-0.521-0.521-0.521h-4.38C132.737,124.381,132.502,124.615,132.502,124.902z"/>
<path fill="#965BA5" d="M197.28,144.468l-10.782,10.784c-0.203,0.204-0.202,0.532,0.001,0.735l3.098,3.097
	c0.203,0.203,0.532,0.203,0.734,0l10.783-10.783c0.203-0.203,0.204-0.531,0-0.734l-3.097-3.098
	C197.815,144.266,197.484,144.265,197.28,144.468z"/>
<path fill="#4BA1D9" d="M126.269,112.78h15.248c0.289,0,0.521-0.232,0.521-0.52v-4.381c0-0.288-0.232-0.521-0.521-0.52
	l-15.248-0.002c-0.287,0.002-0.521,0.233-0.521,0.521v4.379C125.748,112.545,125.982,112.78,126.269,112.78z"/>
<path fill="#4BA1D9" d="M188.669,92.247l-0.001-15.249c0-0.288-0.231-0.52-0.521-0.52h-4.379c-0.288-0.001-0.521,0.231-0.52,0.521
	l-0.002,15.248c0.002,0.288,0.233,0.521,0.521,0.521h4.379C188.435,92.768,188.669,92.535,188.669,92.247z"/>
<path fill="#965BA5" d="M193.472,43.51l0.001,15.249c0,0.288,0.232,0.521,0.521,0.521h4.38c0.287,0,0.521-0.232,0.52-0.521V43.51
	c0-0.288-0.232-0.521-0.52-0.521h-4.379C193.708,42.989,193.473,43.223,193.472,43.51z"/>
<path fill="#965BA5" d="M184.405,131.954l-20.709,0.001c-0.287,0-0.52,0.232-0.52,0.521v4.379c0,0.289,0.232,0.521,0.521,0.52
	l20.708,0.002c0.288-0.002,0.52-0.232,0.52-0.521v-4.379C184.925,132.188,184.692,131.954,184.405,131.954z"/>
<path fill="#4BA1D9" d="M155.416,68.467l20.709-0.002c0.289,0,0.521-0.232,0.521-0.52l-0.001-4.381
	c0.001-0.287-0.232-0.521-0.52-0.52h-20.709c-0.287,0-0.52,0.232-0.52,0.52v4.381C154.896,68.231,155.128,68.466,155.416,68.467z"/>
<path fill="#EF382C" d="M101.709,77.632L81,77.633c-0.289,0-0.521,0.232-0.521,0.52l0.001,4.38c-0.001,0.288,0.232,0.521,0.52,0.521
	h20.709c0.287,0,0.52-0.232,0.52-0.521v-4.379C102.23,77.867,101.996,77.632,101.709,77.632z"/>
<path fill="#EF382C" d="M155.411,112.778h20.709c0.288,0,0.52-0.232,0.52-0.521v-4.379c0-0.289-0.231-0.521-0.521-0.52
	l-20.708-0.001c-0.287,0.001-0.521,0.231-0.521,0.521v4.379C154.89,112.543,155.124,112.778,155.411,112.778z"/>
</svg>
