<?xml version="1.0" encoding="utf-8"?>
<!-- Generator: Adobe Illustrator 16.0.0, SVG Export Plug-In . SVG Version: 6.00 Build 0)  -->
<!DOCTYPE svg PUBLIC "-//W3C//DTD SVG 1.1//EN" "http://www.w3.org/Graphics/SVG/1.1/DTD/svg11.dtd">
<svg version="1.1" id="Layer_1" xmlns="http://www.w3.org/2000/svg" xmlns:xlink="http://www.w3.org/1999/xlink" x="0px" y="0px"
	 width="224.516px" height="161.12px" viewBox="0 0 224.516 161.12" enable-background="new 0 0 224.516 161.12"
	 xml:space="preserve">
<path fill="#EF382C" d="M130.999,124.045c0,0.287-0.234,0.521-0.521,0.521h-4.423c-0.287,0-0.52-0.233-0.52-0.521v-4.38
	c0-0.289,0.23-0.52,0.52-0.52h4.424c0.287,0,0.52,0.23,0.52,0.52V124.045z"/>
<path fill="#4BA1D9" d="M165.512,33.611c0,0.287-0.233,0.52-0.52,0.52l-4.424,0c-0.287,0-0.52-0.233-0.52-0.521v-4.38
	c0-0.288,0.231-0.521,0.521-0.521h4.423c0.288,0,0.52,0.232,0.521,0.521L165.512,33.611z"/>
<path fill="#965BA5" d="M62.825,139.094c0.204,0.203,0.203,0.532,0,0.735l-3.127,3.128c-0.204,0.203-0.533,0.203-0.736,0
	l-3.097-3.097c-0.204-0.205-0.204-0.533,0-0.737l3.127-3.128c0.203-0.203,0.532-0.201,0.736,0L62.825,139.094z"/>
<path fill="#4BA1D9" d="M190.608,103.733c0.204,0.204,0.203,0.533,0,0.736l-3.127,3.127c-0.203,0.204-0.532,0.204-0.736,0
	l-3.097-3.096c-0.204-0.205-0.204-0.533,0-0.738l3.128-3.127c0.203-0.202,0.531-0.202,0.735,0.002L190.608,103.733z"/>
<path fill="#4BA1D9" d="M19.186,42.419c0,0.288-0.234,0.521-0.521,0.521l-4.423,0c-0.288,0-0.52-0.233-0.52-0.521l0-4.38
	c0-0.288,0.232-0.521,0.521-0.521h4.423c0.288,0,0.52,0.233,0.52,0.521L19.186,42.419z"/>
<path fill="#4BA1D9" d="M61.865,73.325l0-9.816c0-0.288-0.232-0.52-0.521-0.52h-4.38c-0.287,0-0.521,0.233-0.52,0.521l0,9.814
	c0,0.288,0.233,0.52,0.52,0.52h4.379C61.631,73.845,61.865,73.612,61.865,73.325z"/>
<path fill="#EF382C" d="M60.312,99.972h-9.816c-0.288,0-0.52,0.233-0.52,0.521v4.379c0,0.289,0.232,0.522,0.521,0.521h9.815
	c0.288,0,0.52-0.232,0.52-0.521v-4.379C60.832,100.207,60.6,99.972,60.312,99.972z"/>
<path fill="#965BA5" d="M24.051,87.94l-9.815,0.001c-0.288,0-0.52,0.232-0.52,0.521v4.379c0,0.289,0.232,0.521,0.52,0.521
	l9.815,0.001c0.288-0.001,0.521-0.232,0.521-0.521v-4.379C24.572,88.175,24.338,87.941,24.051,87.94z"/>
<path fill="#965BA5" d="M24.056,119.163H14.24c-0.288,0-0.52,0.232-0.52,0.521v4.38c-0.001,0.287,0.232,0.521,0.521,0.518
	l9.814,0.003c0.288-0.003,0.521-0.233,0.521-0.521v-4.38C24.576,119.396,24.343,119.163,24.056,119.163z"/>
<path fill="#EF382C" d="M148.19,74.153l-9.815,0.001c-0.288,0-0.52,0.233-0.52,0.521v4.379c-0.001,0.289,0.232,0.522,0.521,0.52
	l9.814,0.001c0.288-0.001,0.521-0.233,0.521-0.521v-4.379C148.711,74.388,148.478,74.154,148.19,74.153z"/>
<path fill="#965BA5" d="M192.641,74.135l-9.815,0.001c-0.288,0-0.52,0.232-0.52,0.521v4.379c-0.001,0.288,0.233,0.521,0.521,0.519
	l9.814,0.002c0.288-0.002,0.521-0.233,0.521-0.521v-4.379C193.163,74.37,192.929,74.135,192.641,74.135z"/>
<path fill="#EF382C" d="M165.538,105.738v-9.815c0-0.289-0.232-0.521-0.521-0.521h-4.38c-0.289,0-0.521,0.232-0.52,0.521v9.815
	c0,0.286,0.23,0.519,0.52,0.519h4.379C165.303,106.257,165.538,106.024,165.538,105.738z"/>
<path fill="#965BA5" d="M160.081,11.948v9.816c0,0.289,0.232,0.52,0.521,0.52h4.38c0.288,0,0.521-0.232,0.52-0.521v-9.815
	c0-0.287-0.231-0.52-0.52-0.52h-4.379C160.314,11.428,160.081,11.662,160.081,11.948z"/>
<path fill="#4BA1D9" d="M108.529,44.83l-9.816,0.001c-0.289,0-0.52,0.232-0.52,0.52v4.379c0,0.289,0.232,0.522,0.52,0.521h9.815
	c0.288,0,0.521-0.233,0.521-0.521v-4.378C109.05,45.065,108.817,44.831,108.529,44.83z"/>
<path fill="#965BA5" d="M24.033,44.812l-9.815,0.001c-0.289,0-0.52,0.232-0.52,0.52v4.38c0,0.288,0.232,0.521,0.52,0.52h9.815
	c0.288,0,0.521-0.231,0.521-0.52v-4.379C24.554,45.047,24.321,44.813,24.033,44.812z"/>
<path fill="#965BA5" d="M49.061,54.188h-9.815c-0.288,0-0.52,0.232-0.52,0.521v4.38c0,0.288,0.232,0.521,0.52,0.52h9.815
	c0.287,0,0.521-0.232,0.521-0.52V54.71C49.582,54.423,49.348,54.188,49.061,54.188z"/>
<path fill="#EF382C" d="M42.576,16.396l-6.941-6.94c-0.204-0.204-0.532-0.203-0.736,0l-3.096,3.097
	c-0.205,0.203-0.205,0.533,0,0.736l6.94,6.941c0.203,0.202,0.531,0.203,0.735,0l3.097-3.097C42.778,16.93,42.779,16.6,42.576,16.396
	z"/>
<path fill="#4BA1D9" d="M133.055,11.948l0.001,9.816c0,0.289,0.232,0.52,0.521,0.52h4.381c0.287,0,0.521-0.232,0.52-0.521v-9.815
	c0-0.287-0.232-0.52-0.52-0.52h-4.381C133.29,11.428,133.056,11.662,133.055,11.948z"/>
<path fill="#4BA1D9" d="M78.678,27.615l0,9.815c0,0.289,0.233,0.52,0.521,0.52h4.379c0.289,0,0.522-0.232,0.52-0.52l0.001-9.815
	c-0.001-0.288-0.232-0.521-0.521-0.521h-4.379C78.913,27.094,78.678,27.328,78.678,27.615z"/>
<path fill="#4BA1D9" d="M13.728,11.953l0,9.816c0,0.289,0.233,0.52,0.521,0.52h4.38c0.288,0,0.521-0.232,0.52-0.521l0-9.815
	c0-0.287-0.232-0.521-0.52-0.521h-4.379C13.962,11.432,13.728,11.666,13.728,11.953z"/>
<path fill="#965BA5" d="M113.014,27.347l0.002,9.816c0,0.289,0.231,0.52,0.52,0.52h4.38c0.288,0,0.521-0.233,0.52-0.52l0.001-9.815
	c-0.001-0.287-0.232-0.521-0.521-0.521h-4.38C113.249,26.826,113.015,27.06,113.014,27.347z"/>
<path fill="#4BA1D9" d="M94.332,130.8l-9.815,0.001c-0.289,0-0.52,0.231-0.52,0.519v4.382c0,0.287,0.232,0.521,0.521,0.519h9.815
	c0.287,0,0.52-0.231,0.52-0.519v-4.38C94.852,131.034,94.619,130.8,94.332,130.8z"/>
<path fill="#EF382C" d="M179.784,11.436l-9.816,0.001c-0.288,0-0.52,0.232-0.52,0.52v4.38c0,0.289,0.232,0.521,0.521,0.52
	l9.815,0.001c0.287-0.001,0.52-0.232,0.52-0.521v-4.379C180.303,11.67,180.071,11.436,179.784,11.436z"/>
<path fill="#4BA1D9" d="M117.905,11.431l-9.816,0.001c-0.289,0-0.52,0.232-0.52,0.52v4.38c0,0.288,0.232,0.521,0.521,0.52
	l9.815,0.001c0.287-0.001,0.52-0.232,0.52-0.521v-4.379C118.424,11.666,118.192,11.431,117.905,11.431z"/>
<path fill="#965BA5" d="M77.244,118.634l0-15.249c0-0.288-0.233-0.521-0.521-0.521h-4.38c-0.288,0-0.521,0.232-0.52,0.521l0,15.249
	c0,0.288,0.232,0.52,0.52,0.52h4.38C77.009,119.153,77.243,118.922,77.244,118.634z"/>
<path fill="#4BA1D9" d="M37.291,135.579l-10.783,10.783c-0.203,0.203-0.203,0.532,0,0.735l3.098,3.097
	c0.203,0.203,0.532,0.203,0.735,0l10.784-10.783c0.202-0.203,0.203-0.531,0-0.734l-3.097-3.098
	C37.825,135.376,37.494,135.376,37.291,135.579z"/>
<path fill="#EF382C" d="M56.93,133.235l-10.784-10.783c-0.204-0.204-0.532-0.204-0.736,0l-3.098,3.098
	c-0.204,0.203-0.204,0.532,0.001,0.734l10.782,10.785c0.204,0.202,0.533,0.203,0.735,0l3.097-3.098
	C57.132,133.769,57.133,133.438,56.93,133.235z"/>
<path fill="#965BA5" d="M128.786,94.575h-15.25c-0.287,0-0.52,0.232-0.52,0.521v4.38c0,0.287,0.232,0.521,0.52,0.52l15.25,0.001
	c0.287-0.001,0.52-0.233,0.52-0.521v-4.38C129.306,94.809,129.073,94.575,128.786,94.575z"/>
<path fill="#EF382C" d="M183.817,25.214l-10.782,10.784c-0.204,0.204-0.203,0.531,0.001,0.735l3.097,3.097
	c0.203,0.205,0.532,0.205,0.735,0l10.783-10.782c0.202-0.204,0.204-0.533,0-0.736l-3.097-3.097
	C184.352,25.012,184.021,25.012,183.817,25.214z"/>
<path fill="#EF382C" d="M41.661,40.283L30.876,29.5c-0.204-0.204-0.533-0.203-0.735,0l-3.097,3.097
	c-0.204,0.204-0.205,0.533,0,0.735l10.782,10.783c0.205,0.203,0.532,0.204,0.735,0l3.097-3.097
	C41.862,40.817,41.863,40.487,41.661,40.283z"/>
<path fill="#965BA5" d="M69.168,9.678L58.385,20.461c-0.203,0.204-0.203,0.532,0,0.735l3.097,3.098
	c0.203,0.204,0.533,0.204,0.736-0.001l10.783-10.782c0.203-0.204,0.203-0.532,0-0.736l-3.097-3.096
	C69.702,9.476,69.372,9.474,69.168,9.678z"/>
<path fill="#EF382C" d="M128.69,143.979l-15.25,0.001c-0.287,0-0.52,0.232-0.52,0.52v4.381c0,0.288,0.232,0.521,0.52,0.52
	l15.25,0.002c0.288-0.002,0.521-0.233,0.521-0.521v-4.379C129.211,144.214,128.977,143.979,128.69,143.979z"/>
<path fill="#4BA1D9" d="M113.057,125.082l0.002,15.249c0,0.289,0.23,0.521,0.52,0.521h4.38c0.288,0,0.521-0.231,0.52-0.521
	l0.001-15.249c-0.001-0.288-0.232-0.521-0.521-0.521h-4.38C113.292,124.562,113.057,124.795,113.057,125.082z"/>
<path fill="#965BA5" d="M187.834,121.648l-10.782,10.784c-0.203,0.204-0.202,0.532,0.001,0.735l3.098,3.097
	c0.203,0.203,0.532,0.203,0.734,0l10.783-10.783c0.203-0.203,0.204-0.531,0-0.734l-3.097-3.098
	C188.37,121.446,188.039,121.445,187.834,121.648z"/>
<path fill="#965BA5" d="M208.277,142.343l-10.784-10.783c-0.203-0.204-0.531-0.204-0.734,0l-3.098,3.096
	c-0.204,0.205-0.204,0.535,0,0.737l10.782,10.782c0.204,0.204,0.533,0.205,0.736,0l3.097-3.096
	C208.479,142.876,208.48,142.546,208.277,142.343z"/>
<path fill="#4BA1D9" d="M209.84,108.187V92.938c0-0.289-0.232-0.521-0.52-0.521h-4.381c-0.288,0-0.521,0.232-0.52,0.521
	l-0.002,15.248c0.002,0.287,0.233,0.521,0.521,0.521h4.379C209.606,108.708,209.84,108.474,209.84,108.187z"/>
<path fill="#4BA1D9" d="M209.307,44.786l-15.249,0.001c-0.288,0-0.52,0.231-0.52,0.52v4.38c-0.001,0.288,0.231,0.521,0.521,0.52
	l15.248,0.001c0.288-0.001,0.521-0.233,0.521-0.521v-4.379C209.829,45.02,209.595,44.787,209.307,44.786z"/>
<path fill="#965BA5" d="M209.303,11.422l-15.249,0.001c-0.288,0-0.521,0.233-0.521,0.521v4.38c0,0.288,0.232,0.521,0.521,0.52
	l15.249,0c0.288,0,0.521-0.232,0.521-0.52v-4.379C209.825,11.657,209.59,11.422,209.303,11.422z"/>
<path fill="#EF382C" d="M19.126,81.45l0-20.708c0-0.288-0.232-0.52-0.521-0.52h-4.379c-0.289,0-0.521,0.231-0.52,0.521L13.706,81.45
	c0.001,0.287,0.232,0.521,0.521,0.521h4.379C18.891,81.971,19.126,81.737,19.126,81.45z"/>
<path fill="#965BA5" d="M164.959,119.134l-20.709,0.001c-0.287,0-0.52,0.232-0.52,0.521v4.379c0,0.289,0.232,0.521,0.521,0.52
	l20.708,0.002c0.288-0.002,0.52-0.232,0.52-0.521v-4.379C165.48,119.368,165.247,119.134,164.959,119.134z"/>
<path fill="#4BA1D9" d="M165.528,79.04l-0.002-20.708c0-0.289-0.232-0.521-0.52-0.521l-4.381,0.001
	c-0.287-0.001-0.521,0.232-0.52,0.52V79.04c0,0.288,0.232,0.52,0.52,0.52h4.381C165.292,79.56,165.527,79.327,165.528,79.04z"/>
<path fill="#EF382C" d="M134.264,44.812l-20.709,0.001c-0.289,0-0.521,0.232-0.521,0.52l0.001,4.38
	c-0.001,0.288,0.232,0.521,0.52,0.521h20.709c0.287,0,0.52-0.232,0.52-0.521v-4.379C134.785,45.047,134.55,44.812,134.264,44.812z"
	/>
<path fill="#EF382C" d="M209.838,79.045V58.336c0-0.289-0.232-0.52-0.521-0.52h-4.379c-0.289,0-0.521,0.232-0.52,0.521
	l-0.001,20.708c0.001,0.287,0.231,0.52,0.521,0.52h4.379C209.604,79.565,209.838,79.332,209.838,79.045z"/>
<path fill="#EF382C" d="M192.243,143.925l-26.18,0.002c-0.289,0-0.521,0.232-0.521,0.521l0.001,4.379
	c-0.002,0.287,0.232,0.521,0.52,0.519l26.18,0.002c0.288-0.002,0.521-0.233,0.521-0.521v-4.379
	C192.764,144.16,192.53,143.927,192.243,143.925z"/>
</svg>
